<mxfile host="Electron" modified="2024-05-21T00:52:52.862Z" agent="Mozilla/5.0 (Windows NT 10.0; Win64; x64) AppleWebKit/537.36 (KHTML, like Gecko) draw.io/24.4.0 Chrome/120.0.6099.109 Electron/28.1.0 Safari/537.36" etag="P1m-AjS-xUsDJ0V5td8a" version="24.4.0" type="device">
  <diagram name="Page-1" id="KZN-zyBD-0XipZeYQRDT">
    <mxGraphModel dx="580" dy="335" grid="1" gridSize="10" guides="1" tooltips="1" connect="1" arrows="1" fold="1" page="1" pageScale="1" pageWidth="500" pageHeight="200" math="0" shadow="0">
      <root>
        <mxCell id="0" />
        <mxCell id="1" parent="0" />
        <mxCell id="oGT1-rxk5gDqi7XwYrmR-399" value="" style="group" vertex="1" connectable="0" parent="1">
          <mxGeometry x="9" y="78" width="482.6" height="44.45" as="geometry" />
        </mxCell>
        <mxCell id="bhrRq7M9s_2c-lPHGw9V-1592" value="" style="group" parent="oGT1-rxk5gDqi7XwYrmR-399" vertex="1" connectable="0">
          <mxGeometry width="482.6" height="44.45" as="geometry" />
        </mxCell>
        <mxCell id="PZP4gdgeWaH-fIwLRfgN-368" value="" style="rounded=0;whiteSpace=wrap;html=1;fillColor=#000000;strokeColor=#111111;glass=0;aspect=fixed;container=0;" parent="bhrRq7M9s_2c-lPHGw9V-1592" vertex="1">
          <mxGeometry width="482.6" height="44.45" as="geometry" />
        </mxCell>
        <mxCell id="ZiPsxMh2GIwE2ub0tuqV-34" value="" style="rounded=0;whiteSpace=wrap;html=1;fillColor=#000000;strokeColor=#111111;glass=0;container=0;gradientColor=#222222;shadow=0;" parent="bhrRq7M9s_2c-lPHGw9V-1592" vertex="1">
          <mxGeometry x="42" y="8" width="398.6" height="28.450000000000003" as="geometry" />
        </mxCell>
        <mxCell id="ZiPsxMh2GIwE2ub0tuqV-45" value="" style="group" parent="bhrRq7M9s_2c-lPHGw9V-1592" vertex="1" connectable="0">
          <mxGeometry x="468.85" y="3" width="10" height="38.45" as="geometry" />
        </mxCell>
        <mxCell id="ZiPsxMh2GIwE2ub0tuqV-35" value="" style="group;strokeColor=#111111;rounded=1;arcSize=50;" parent="ZiPsxMh2GIwE2ub0tuqV-45" vertex="1" connectable="0">
          <mxGeometry width="10" height="6" as="geometry" />
        </mxCell>
        <mxCell id="ZiPsxMh2GIwE2ub0tuqV-24" value="" style="rounded=0;whiteSpace=wrap;html=1;fillColor=#000000;fontColor=#ffffff;strokeColor=none;container=0;" parent="ZiPsxMh2GIwE2ub0tuqV-35" vertex="1">
          <mxGeometry x="3" width="4" height="6" as="geometry" />
        </mxCell>
        <mxCell id="ZiPsxMh2GIwE2ub0tuqV-25" value="" style="ellipse;whiteSpace=wrap;html=1;aspect=fixed;strokeColor=none;fillColor=#000000;container=0;" parent="ZiPsxMh2GIwE2ub0tuqV-35" vertex="1">
          <mxGeometry x="4" width="6" height="6" as="geometry" />
        </mxCell>
        <mxCell id="ZiPsxMh2GIwE2ub0tuqV-26" value="" style="ellipse;whiteSpace=wrap;html=1;aspect=fixed;strokeColor=none;fillColor=#000000;container=0;" parent="ZiPsxMh2GIwE2ub0tuqV-35" vertex="1">
          <mxGeometry width="6" height="6" as="geometry" />
        </mxCell>
        <mxCell id="ZiPsxMh2GIwE2ub0tuqV-40" value="" style="group;strokeColor=#111111;rounded=1;arcSize=50;" parent="ZiPsxMh2GIwE2ub0tuqV-45" vertex="1" connectable="0">
          <mxGeometry y="32.45" width="10" height="6" as="geometry" />
        </mxCell>
        <mxCell id="ZiPsxMh2GIwE2ub0tuqV-41" value="" style="rounded=0;whiteSpace=wrap;html=1;fillColor=#000000;fontColor=#ffffff;strokeColor=none;container=0;" parent="ZiPsxMh2GIwE2ub0tuqV-40" vertex="1">
          <mxGeometry x="3" width="4" height="6" as="geometry" />
        </mxCell>
        <mxCell id="ZiPsxMh2GIwE2ub0tuqV-42" value="" style="ellipse;whiteSpace=wrap;html=1;aspect=fixed;strokeColor=none;fillColor=#000000;container=0;" parent="ZiPsxMh2GIwE2ub0tuqV-40" vertex="1">
          <mxGeometry x="4" width="6" height="6" as="geometry" />
        </mxCell>
        <mxCell id="ZiPsxMh2GIwE2ub0tuqV-43" value="" style="ellipse;whiteSpace=wrap;html=1;aspect=fixed;strokeColor=none;fillColor=#000000;container=0;" parent="ZiPsxMh2GIwE2ub0tuqV-40" vertex="1">
          <mxGeometry width="6" height="6" as="geometry" />
        </mxCell>
        <mxCell id="ZiPsxMh2GIwE2ub0tuqV-46" value="" style="group" parent="bhrRq7M9s_2c-lPHGw9V-1592" vertex="1" connectable="0">
          <mxGeometry x="4" y="3" width="10" height="38.45" as="geometry" />
        </mxCell>
        <mxCell id="ZiPsxMh2GIwE2ub0tuqV-47" value="" style="group;strokeColor=#111111;rounded=1;arcSize=50;" parent="ZiPsxMh2GIwE2ub0tuqV-46" vertex="1" connectable="0">
          <mxGeometry width="10" height="6" as="geometry" />
        </mxCell>
        <mxCell id="ZiPsxMh2GIwE2ub0tuqV-48" value="" style="rounded=0;whiteSpace=wrap;html=1;fillColor=#000000;fontColor=#ffffff;strokeColor=none;container=0;" parent="ZiPsxMh2GIwE2ub0tuqV-47" vertex="1">
          <mxGeometry x="3" width="4" height="6" as="geometry" />
        </mxCell>
        <mxCell id="ZiPsxMh2GIwE2ub0tuqV-49" value="" style="ellipse;whiteSpace=wrap;html=1;aspect=fixed;strokeColor=none;fillColor=#000000;container=0;" parent="ZiPsxMh2GIwE2ub0tuqV-47" vertex="1">
          <mxGeometry x="4" width="6" height="6" as="geometry" />
        </mxCell>
        <mxCell id="ZiPsxMh2GIwE2ub0tuqV-50" value="" style="ellipse;whiteSpace=wrap;html=1;aspect=fixed;strokeColor=none;fillColor=#000000;container=0;" parent="ZiPsxMh2GIwE2ub0tuqV-47" vertex="1">
          <mxGeometry width="6" height="6" as="geometry" />
        </mxCell>
        <mxCell id="ZiPsxMh2GIwE2ub0tuqV-55" value="" style="group;strokeColor=#111111;rounded=1;arcSize=50;" parent="ZiPsxMh2GIwE2ub0tuqV-46" vertex="1" connectable="0">
          <mxGeometry y="32.45" width="10" height="6" as="geometry" />
        </mxCell>
        <mxCell id="ZiPsxMh2GIwE2ub0tuqV-56" value="" style="rounded=0;whiteSpace=wrap;html=1;fillColor=#000000;fontColor=#ffffff;strokeColor=none;container=0;" parent="ZiPsxMh2GIwE2ub0tuqV-55" vertex="1">
          <mxGeometry x="3" width="4" height="6" as="geometry" />
        </mxCell>
        <mxCell id="ZiPsxMh2GIwE2ub0tuqV-57" value="" style="ellipse;whiteSpace=wrap;html=1;aspect=fixed;strokeColor=none;fillColor=#000000;container=0;" parent="ZiPsxMh2GIwE2ub0tuqV-55" vertex="1">
          <mxGeometry x="4" width="6" height="6" as="geometry" />
        </mxCell>
        <mxCell id="ZiPsxMh2GIwE2ub0tuqV-58" value="" style="ellipse;whiteSpace=wrap;html=1;aspect=fixed;strokeColor=none;fillColor=#000000;container=0;" parent="ZiPsxMh2GIwE2ub0tuqV-55" vertex="1">
          <mxGeometry width="6" height="6" as="geometry" />
        </mxCell>
        <mxCell id="ZiPsxMh2GIwE2ub0tuqV-64" value="" style="shape=image;verticalLabelPosition=bottom;labelBackgroundColor=default;verticalAlign=top;aspect=fixed;imageAspect=0;image=data:image/svg+xml,PHN2ZyB4bWxuczp4bGluaz0iaHR0cDovL3d3dy53My5vcmcvMTk5OS94bGluayIgeG1sbnM9Imh0dHA6Ly93d3cudzMub3JnLzIwMDAvc3ZnIiB4bWw6c3BhY2U9InByZXNlcnZlIiBzdHlsZT0iZW5hYmxlLWJhY2tncm91bmQ6bmV3IDAgMCA3NC40IDc0Ljk7IiB2aWV3Qm94PSIwIDAgNzQuNCA3NC45IiB5PSIwcHgiIHg9IjBweCIgaWQ9InV1aWQtMWJmYWM2NzgtNjU5Yi00ZGNiLWFlNTctYWY0Mzk4MDVhNzM4IiB2ZXJzaW9uPSIxLjEiPiYjeGE7PHN0eWxlIHR5cGU9InRleHQvY3NzIj4mI3hhOwkuc3Qwe2ZpbGw6bm9uZTt9JiN4YTsJLnN0MXtmaWxsOiNCQ0JFQzA7fSYjeGE7PC9zdHlsZT4mI3hhOzxwYXRoIGQ9Ik03NC40LDc0LjlIMFYwaDc0LjRWNzQuOXogTTYyLjksMTQuNWMtOS4yLTEwLjgtMjcuOC0xNi4yLTQzLjgtNkMzLjMsMTguNS0yLDM5LjcsOC42LDU2LjEmIzEwOyYjOTtjMTAuMywxNiwzMS41LDIwLjksNDcuOCwxMC4yYzE2LjMtMTAuOCwxNy45LTMwLjEsMTMuMy00MC41Yy0wLjcsMC4xLTEuNCwwLjMtMi4xLDAuM2MtMTIuNCwwLTI0LjcsMC0zNy4xLDBjLTIsMC0zLjYtMS00LjctMi42JiMxMDsmIzk7Yy0xLjItMS45LTEuMy0zLjgtMC4zLTUuOGMxLjEtMi4xLDIuOS0zLjEsNS4zLTMuMWMxMC4yLDAsMjAuNSwwLDMwLjcsMEM2MS45LDE0LjUsNjIuNCwxNC41LDYyLjksMTQuNUw2Mi45LDE0LjV6IE02My45LDE0LjYmIzEwOyYjOTtjMi4xLDMuNSw0LjIsNyw2LjMsMTAuNmMyLTAuOSwzLjItMy4zLDIuOS01LjdjLTAuNC0yLjYtMi4zLTQuNi00LjktNC45QzY2LjcsMTQuNSw2NS4yLDE0LjYsNjMuOSwxNC42TDYzLjksMTQuNnoiIGNsYXNzPSJzdDAiLz4mI3hhOzxnPiYjeGE7CTxwYXRoIGQ9Ik02Mi45LDE0LjVjLTAuNSwwLTEsMC0xLjQsMGMtMTAuMiwwLTIwLjUsMC0zMC43LDBjLTIuNCwwLTQuMSwxLjEtNS4zLDMuMWMtMSwyLTAuOSwzLjksMC4zLDUuOCYjMTA7JiM5OyYjOTtjMS4xLDEuNywyLjcsMi42LDQuNywyLjZjMTIuNCwwLDI0LjcsMCwzNy4xLDBjMC43LDAsMS40LTAuMiwyLjEtMC4zYzQuNywxMC41LDMuMSwyOS43LTEzLjMsNDAuNUM0MC4xLDc3LjEsMTguOSw3Mi4xLDguNiw1Ni4xJiMxMDsmIzk7JiM5O0MtMiwzOS43LDMuMywxOC41LDE5LjEsOC41QzM1LjItMS43LDUzLjgsMy43LDYyLjksMTQuNXogTTQwLjEsNDMuM2MzLjMsMCw2LjUsMCw5LjgsMGMwLjcsMCwxLjQsMCwyLTAuMWMyLjYtMC41LDQuNS0yLjksNC4zLTUuNSYjMTA7JiM5OyYjOTtjLTAuMi0yLjgtMi40LTQuOC01LjMtNC44Yy03LjIsMC0xNC40LDAtMjEuNSwwYy0zLjEsMC01LjQsMi4zLTUuNCw1LjJjMCwzLDIuNCw1LjIsNS41LDUuMkMzMyw0My4zLDM2LjUsNDMuMyw0MC4xLDQzLjMmIzEwOyYjOTsmIzk7TDQwLjEsNDMuM3ogTTMyLjMsNTkuNGMxLjUsMCwzLjEsMCw0LjcsMGMyLjYsMCw0LjUtMiw0LjYtNC41YzAtMi41LTEuOS00LjYtNC41LTQuN2MtMy4yLTAuMS02LjQtMC4xLTkuNSwwJiMxMDsmIzk7JiM5O2MtMi41LDAtNC41LDIuMS00LjUsNC43czIsNC41LDQuNiw0LjZDMjkuMiw1OS40LDMwLjcsNTkuNCwzMi4zLDU5LjR6IiBjbGFzcz0ic3QxIi8+JiN4YTsJPHBhdGggZD0iTTYzLjgsMTQuN2MxLjMsMCwyLjgtMC4xLDQuMywwYzIuNSwwLjIsNC41LDIuMyw0LjksNC44YzAuNCwyLjQtMC45LDQuNy0yLjksNS43QzY4LDIxLjcsNjUuOSwxOC4yLDYzLjgsMTQuNyYjMTA7JiM5OyYjOTtMNjMuOCwxNC43eiIgY2xhc3M9InN0MSIvPiYjeGE7PC9nPiYjeGE7PC9zdmc+;" parent="bhrRq7M9s_2c-lPHGw9V-1592" vertex="1">
          <mxGeometry x="19" y="16.730000000000004" width="10.85" height="11" as="geometry" />
        </mxCell>
        <mxCell id="oGT1-rxk5gDqi7XwYrmR-1" value="" style="endArrow=none;html=1;rounded=0;strokeColor=#111111;strokeWidth=0.2;sketch=1;curveFitting=1;jiggle=2;" edge="1" parent="bhrRq7M9s_2c-lPHGw9V-1592">
          <mxGeometry width="50" height="50" relative="1" as="geometry">
            <mxPoint x="60" y="36.230000000000004" as="sourcePoint" />
            <mxPoint x="60" y="8.229999999999999" as="targetPoint" />
          </mxGeometry>
        </mxCell>
        <mxCell id="oGT1-rxk5gDqi7XwYrmR-2" value="" style="endArrow=none;html=1;rounded=0;strokeColor=#111111;strokeWidth=0.2;sketch=1;curveFitting=1;jiggle=2;" edge="1" parent="oGT1-rxk5gDqi7XwYrmR-399">
          <mxGeometry width="50" height="50" relative="1" as="geometry">
            <mxPoint x="61" y="36.230000000000004" as="sourcePoint" />
            <mxPoint x="61" y="8.229999999999997" as="targetPoint" />
          </mxGeometry>
        </mxCell>
        <mxCell id="oGT1-rxk5gDqi7XwYrmR-3" value="" style="endArrow=none;html=1;rounded=0;strokeColor=#111111;strokeWidth=0.2;sketch=1;curveFitting=1;jiggle=2;" edge="1" parent="oGT1-rxk5gDqi7XwYrmR-399">
          <mxGeometry width="50" height="50" relative="1" as="geometry">
            <mxPoint x="59" y="36.230000000000004" as="sourcePoint" />
            <mxPoint x="59" y="8.229999999999997" as="targetPoint" />
          </mxGeometry>
        </mxCell>
        <mxCell id="oGT1-rxk5gDqi7XwYrmR-4" value="" style="endArrow=none;html=1;rounded=0;strokeColor=#111111;strokeWidth=0.2;sketch=1;curveFitting=1;jiggle=2;" edge="1" parent="oGT1-rxk5gDqi7XwYrmR-399">
          <mxGeometry width="50" height="50" relative="1" as="geometry">
            <mxPoint x="58" y="36.230000000000004" as="sourcePoint" />
            <mxPoint x="58" y="8.229999999999997" as="targetPoint" />
          </mxGeometry>
        </mxCell>
        <mxCell id="oGT1-rxk5gDqi7XwYrmR-5" value="" style="endArrow=none;html=1;rounded=0;strokeColor=#111111;strokeWidth=0.2;sketch=1;curveFitting=1;jiggle=2;" edge="1" parent="oGT1-rxk5gDqi7XwYrmR-399">
          <mxGeometry width="50" height="50" relative="1" as="geometry">
            <mxPoint x="56" y="36.230000000000004" as="sourcePoint" />
            <mxPoint x="56" y="8.229999999999997" as="targetPoint" />
          </mxGeometry>
        </mxCell>
        <mxCell id="oGT1-rxk5gDqi7XwYrmR-6" value="" style="endArrow=none;html=1;rounded=0;strokeColor=#111111;strokeWidth=0.2;sketch=1;curveFitting=1;jiggle=2;" edge="1" parent="oGT1-rxk5gDqi7XwYrmR-399">
          <mxGeometry width="50" height="50" relative="1" as="geometry">
            <mxPoint x="57" y="36.230000000000004" as="sourcePoint" />
            <mxPoint x="57" y="8.229999999999997" as="targetPoint" />
          </mxGeometry>
        </mxCell>
        <mxCell id="oGT1-rxk5gDqi7XwYrmR-7" value="" style="endArrow=none;html=1;rounded=0;strokeColor=#111111;strokeWidth=0.2;sketch=1;curveFitting=1;jiggle=2;" edge="1" parent="oGT1-rxk5gDqi7XwYrmR-399">
          <mxGeometry width="50" height="50" relative="1" as="geometry">
            <mxPoint x="55" y="36.230000000000004" as="sourcePoint" />
            <mxPoint x="55" y="8.229999999999997" as="targetPoint" />
          </mxGeometry>
        </mxCell>
        <mxCell id="oGT1-rxk5gDqi7XwYrmR-8" value="" style="endArrow=none;html=1;rounded=0;strokeColor=#111111;strokeWidth=0.2;sketch=1;curveFitting=1;jiggle=2;" edge="1" parent="oGT1-rxk5gDqi7XwYrmR-399">
          <mxGeometry width="50" height="50" relative="1" as="geometry">
            <mxPoint x="54" y="36.230000000000004" as="sourcePoint" />
            <mxPoint x="54" y="8.229999999999997" as="targetPoint" />
          </mxGeometry>
        </mxCell>
        <mxCell id="oGT1-rxk5gDqi7XwYrmR-9" value="" style="endArrow=none;html=1;rounded=0;strokeColor=#111111;strokeWidth=0.2;sketch=1;curveFitting=1;jiggle=2;" edge="1" parent="oGT1-rxk5gDqi7XwYrmR-399">
          <mxGeometry width="50" height="50" relative="1" as="geometry">
            <mxPoint x="52" y="36.230000000000004" as="sourcePoint" />
            <mxPoint x="52" y="8.229999999999997" as="targetPoint" />
          </mxGeometry>
        </mxCell>
        <mxCell id="oGT1-rxk5gDqi7XwYrmR-10" value="" style="endArrow=none;html=1;rounded=0;strokeColor=#111111;strokeWidth=0.2;sketch=1;curveFitting=1;jiggle=2;" edge="1" parent="oGT1-rxk5gDqi7XwYrmR-399">
          <mxGeometry width="50" height="50" relative="1" as="geometry">
            <mxPoint x="53" y="36.230000000000004" as="sourcePoint" />
            <mxPoint x="53" y="8.229999999999997" as="targetPoint" />
          </mxGeometry>
        </mxCell>
        <mxCell id="oGT1-rxk5gDqi7XwYrmR-11" value="" style="endArrow=none;html=1;rounded=0;strokeColor=#111111;strokeWidth=0.2;sketch=1;curveFitting=1;jiggle=2;" edge="1" parent="oGT1-rxk5gDqi7XwYrmR-399">
          <mxGeometry width="50" height="50" relative="1" as="geometry">
            <mxPoint x="51" y="36.230000000000004" as="sourcePoint" />
            <mxPoint x="51" y="8.229999999999997" as="targetPoint" />
          </mxGeometry>
        </mxCell>
        <mxCell id="oGT1-rxk5gDqi7XwYrmR-12" value="" style="endArrow=none;html=1;rounded=0;strokeColor=#111111;strokeWidth=0.2;sketch=1;curveFitting=1;jiggle=2;" edge="1" parent="oGT1-rxk5gDqi7XwYrmR-399">
          <mxGeometry width="50" height="50" relative="1" as="geometry">
            <mxPoint x="50" y="36.230000000000004" as="sourcePoint" />
            <mxPoint x="50" y="8.229999999999997" as="targetPoint" />
          </mxGeometry>
        </mxCell>
        <mxCell id="oGT1-rxk5gDqi7XwYrmR-13" value="" style="endArrow=none;html=1;rounded=0;strokeColor=#111111;strokeWidth=0.2;sketch=1;curveFitting=1;jiggle=2;" edge="1" parent="oGT1-rxk5gDqi7XwYrmR-399">
          <mxGeometry width="50" height="50" relative="1" as="geometry">
            <mxPoint x="48" y="36.230000000000004" as="sourcePoint" />
            <mxPoint x="48" y="8.229999999999997" as="targetPoint" />
          </mxGeometry>
        </mxCell>
        <mxCell id="oGT1-rxk5gDqi7XwYrmR-14" value="" style="endArrow=none;html=1;rounded=0;strokeColor=#111111;strokeWidth=0.2;sketch=1;curveFitting=1;jiggle=2;" edge="1" parent="oGT1-rxk5gDqi7XwYrmR-399">
          <mxGeometry width="50" height="50" relative="1" as="geometry">
            <mxPoint x="49" y="36.230000000000004" as="sourcePoint" />
            <mxPoint x="49" y="8.229999999999997" as="targetPoint" />
          </mxGeometry>
        </mxCell>
        <mxCell id="oGT1-rxk5gDqi7XwYrmR-15" value="" style="endArrow=none;html=1;rounded=0;strokeColor=#111111;strokeWidth=0.2;sketch=1;curveFitting=1;jiggle=2;" edge="1" parent="oGT1-rxk5gDqi7XwYrmR-399">
          <mxGeometry width="50" height="50" relative="1" as="geometry">
            <mxPoint x="47" y="36.230000000000004" as="sourcePoint" />
            <mxPoint x="47" y="8.229999999999997" as="targetPoint" />
          </mxGeometry>
        </mxCell>
        <mxCell id="oGT1-rxk5gDqi7XwYrmR-16" value="" style="endArrow=none;html=1;rounded=0;strokeColor=#111111;strokeWidth=0.2;sketch=1;curveFitting=1;jiggle=2;" edge="1" parent="oGT1-rxk5gDqi7XwYrmR-399">
          <mxGeometry width="50" height="50" relative="1" as="geometry">
            <mxPoint x="46" y="36.230000000000004" as="sourcePoint" />
            <mxPoint x="46" y="8.229999999999997" as="targetPoint" />
          </mxGeometry>
        </mxCell>
        <mxCell id="oGT1-rxk5gDqi7XwYrmR-17" value="" style="endArrow=none;html=1;rounded=0;strokeColor=#111111;strokeWidth=0.2;sketch=1;curveFitting=1;jiggle=2;" edge="1" parent="oGT1-rxk5gDqi7XwYrmR-399">
          <mxGeometry width="50" height="50" relative="1" as="geometry">
            <mxPoint x="45" y="36.230000000000004" as="sourcePoint" />
            <mxPoint x="45" y="8.229999999999997" as="targetPoint" />
          </mxGeometry>
        </mxCell>
        <mxCell id="oGT1-rxk5gDqi7XwYrmR-19" value="" style="endArrow=none;html=1;rounded=0;strokeColor=#111111;strokeWidth=0.2;sketch=1;curveFitting=1;jiggle=2;" edge="1" parent="oGT1-rxk5gDqi7XwYrmR-399">
          <mxGeometry width="50" height="50" relative="1" as="geometry">
            <mxPoint x="44" y="36.230000000000004" as="sourcePoint" />
            <mxPoint x="44" y="8.229999999999997" as="targetPoint" />
          </mxGeometry>
        </mxCell>
        <mxCell id="oGT1-rxk5gDqi7XwYrmR-20" value="" style="endArrow=none;html=1;rounded=0;strokeColor=#111111;strokeWidth=0.2;sketch=1;curveFitting=1;jiggle=2;" edge="1" parent="oGT1-rxk5gDqi7XwYrmR-399">
          <mxGeometry width="50" height="50" relative="1" as="geometry">
            <mxPoint x="43" y="36.230000000000004" as="sourcePoint" />
            <mxPoint x="43" y="8.229999999999997" as="targetPoint" />
          </mxGeometry>
        </mxCell>
        <mxCell id="oGT1-rxk5gDqi7XwYrmR-21" value="" style="endArrow=none;html=1;rounded=0;strokeColor=#111111;strokeWidth=0.2;sketch=1;curveFitting=1;jiggle=2;" edge="1" parent="oGT1-rxk5gDqi7XwYrmR-399">
          <mxGeometry width="50" height="50" relative="1" as="geometry">
            <mxPoint x="79" y="36.230000000000004" as="sourcePoint" />
            <mxPoint x="79" y="8.229999999999997" as="targetPoint" />
          </mxGeometry>
        </mxCell>
        <mxCell id="oGT1-rxk5gDqi7XwYrmR-22" value="" style="endArrow=none;html=1;rounded=0;strokeColor=#111111;strokeWidth=0.2;sketch=1;curveFitting=1;jiggle=2;" edge="1" parent="oGT1-rxk5gDqi7XwYrmR-399">
          <mxGeometry width="50" height="50" relative="1" as="geometry">
            <mxPoint x="80" y="36.230000000000004" as="sourcePoint" />
            <mxPoint x="80" y="8.229999999999997" as="targetPoint" />
          </mxGeometry>
        </mxCell>
        <mxCell id="oGT1-rxk5gDqi7XwYrmR-23" value="" style="endArrow=none;html=1;rounded=0;strokeColor=#111111;strokeWidth=0.2;sketch=1;curveFitting=1;jiggle=2;" edge="1" parent="oGT1-rxk5gDqi7XwYrmR-399">
          <mxGeometry width="50" height="50" relative="1" as="geometry">
            <mxPoint x="78" y="36.230000000000004" as="sourcePoint" />
            <mxPoint x="78" y="8.229999999999997" as="targetPoint" />
          </mxGeometry>
        </mxCell>
        <mxCell id="oGT1-rxk5gDqi7XwYrmR-24" value="" style="endArrow=none;html=1;rounded=0;strokeColor=#111111;strokeWidth=0.2;sketch=1;curveFitting=1;jiggle=2;" edge="1" parent="oGT1-rxk5gDqi7XwYrmR-399">
          <mxGeometry width="50" height="50" relative="1" as="geometry">
            <mxPoint x="77" y="36.230000000000004" as="sourcePoint" />
            <mxPoint x="77" y="8.229999999999997" as="targetPoint" />
          </mxGeometry>
        </mxCell>
        <mxCell id="oGT1-rxk5gDqi7XwYrmR-25" value="" style="endArrow=none;html=1;rounded=0;strokeColor=#111111;strokeWidth=0.2;sketch=1;curveFitting=1;jiggle=2;" edge="1" parent="oGT1-rxk5gDqi7XwYrmR-399">
          <mxGeometry width="50" height="50" relative="1" as="geometry">
            <mxPoint x="75" y="36.230000000000004" as="sourcePoint" />
            <mxPoint x="75" y="8.229999999999997" as="targetPoint" />
          </mxGeometry>
        </mxCell>
        <mxCell id="oGT1-rxk5gDqi7XwYrmR-26" value="" style="endArrow=none;html=1;rounded=0;strokeColor=#111111;strokeWidth=0.2;sketch=1;curveFitting=1;jiggle=2;" edge="1" parent="oGT1-rxk5gDqi7XwYrmR-399">
          <mxGeometry width="50" height="50" relative="1" as="geometry">
            <mxPoint x="76" y="36.230000000000004" as="sourcePoint" />
            <mxPoint x="76" y="8.229999999999997" as="targetPoint" />
          </mxGeometry>
        </mxCell>
        <mxCell id="oGT1-rxk5gDqi7XwYrmR-27" value="" style="endArrow=none;html=1;rounded=0;strokeColor=#111111;strokeWidth=0.2;sketch=1;curveFitting=1;jiggle=2;" edge="1" parent="oGT1-rxk5gDqi7XwYrmR-399">
          <mxGeometry width="50" height="50" relative="1" as="geometry">
            <mxPoint x="74" y="36.230000000000004" as="sourcePoint" />
            <mxPoint x="74" y="8.229999999999997" as="targetPoint" />
          </mxGeometry>
        </mxCell>
        <mxCell id="oGT1-rxk5gDqi7XwYrmR-28" value="" style="endArrow=none;html=1;rounded=0;strokeColor=#111111;strokeWidth=0.2;sketch=1;curveFitting=1;jiggle=2;" edge="1" parent="oGT1-rxk5gDqi7XwYrmR-399">
          <mxGeometry width="50" height="50" relative="1" as="geometry">
            <mxPoint x="73" y="36.230000000000004" as="sourcePoint" />
            <mxPoint x="73" y="8.229999999999997" as="targetPoint" />
          </mxGeometry>
        </mxCell>
        <mxCell id="oGT1-rxk5gDqi7XwYrmR-29" value="" style="endArrow=none;html=1;rounded=0;strokeColor=#111111;strokeWidth=0.2;sketch=1;curveFitting=1;jiggle=2;" edge="1" parent="oGT1-rxk5gDqi7XwYrmR-399">
          <mxGeometry width="50" height="50" relative="1" as="geometry">
            <mxPoint x="71" y="36.230000000000004" as="sourcePoint" />
            <mxPoint x="71" y="8.229999999999997" as="targetPoint" />
          </mxGeometry>
        </mxCell>
        <mxCell id="oGT1-rxk5gDqi7XwYrmR-30" value="" style="endArrow=none;html=1;rounded=0;strokeColor=#111111;strokeWidth=0.2;sketch=1;curveFitting=1;jiggle=2;" edge="1" parent="oGT1-rxk5gDqi7XwYrmR-399">
          <mxGeometry width="50" height="50" relative="1" as="geometry">
            <mxPoint x="72" y="36.230000000000004" as="sourcePoint" />
            <mxPoint x="72" y="8.229999999999997" as="targetPoint" />
          </mxGeometry>
        </mxCell>
        <mxCell id="oGT1-rxk5gDqi7XwYrmR-31" value="" style="endArrow=none;html=1;rounded=0;strokeColor=#111111;strokeWidth=0.2;sketch=1;curveFitting=1;jiggle=2;" edge="1" parent="oGT1-rxk5gDqi7XwYrmR-399">
          <mxGeometry width="50" height="50" relative="1" as="geometry">
            <mxPoint x="70" y="36.230000000000004" as="sourcePoint" />
            <mxPoint x="70" y="8.229999999999997" as="targetPoint" />
          </mxGeometry>
        </mxCell>
        <mxCell id="oGT1-rxk5gDqi7XwYrmR-32" value="" style="endArrow=none;html=1;rounded=0;strokeColor=#111111;strokeWidth=0.2;sketch=1;curveFitting=1;jiggle=2;" edge="1" parent="oGT1-rxk5gDqi7XwYrmR-399">
          <mxGeometry width="50" height="50" relative="1" as="geometry">
            <mxPoint x="69" y="36.230000000000004" as="sourcePoint" />
            <mxPoint x="69" y="8.229999999999997" as="targetPoint" />
          </mxGeometry>
        </mxCell>
        <mxCell id="oGT1-rxk5gDqi7XwYrmR-33" value="" style="endArrow=none;html=1;rounded=0;strokeColor=#111111;strokeWidth=0.2;sketch=1;curveFitting=1;jiggle=2;" edge="1" parent="oGT1-rxk5gDqi7XwYrmR-399">
          <mxGeometry width="50" height="50" relative="1" as="geometry">
            <mxPoint x="67" y="36.230000000000004" as="sourcePoint" />
            <mxPoint x="67" y="8.229999999999997" as="targetPoint" />
          </mxGeometry>
        </mxCell>
        <mxCell id="oGT1-rxk5gDqi7XwYrmR-34" value="" style="endArrow=none;html=1;rounded=0;strokeColor=#111111;strokeWidth=0.2;sketch=1;curveFitting=1;jiggle=2;" edge="1" parent="oGT1-rxk5gDqi7XwYrmR-399">
          <mxGeometry width="50" height="50" relative="1" as="geometry">
            <mxPoint x="68" y="36.230000000000004" as="sourcePoint" />
            <mxPoint x="68" y="8.229999999999997" as="targetPoint" />
          </mxGeometry>
        </mxCell>
        <mxCell id="oGT1-rxk5gDqi7XwYrmR-35" value="" style="endArrow=none;html=1;rounded=0;strokeColor=#111111;strokeWidth=0.2;sketch=1;curveFitting=1;jiggle=2;" edge="1" parent="oGT1-rxk5gDqi7XwYrmR-399">
          <mxGeometry width="50" height="50" relative="1" as="geometry">
            <mxPoint x="66" y="36.230000000000004" as="sourcePoint" />
            <mxPoint x="66" y="8.229999999999997" as="targetPoint" />
          </mxGeometry>
        </mxCell>
        <mxCell id="oGT1-rxk5gDqi7XwYrmR-36" value="" style="endArrow=none;html=1;rounded=0;strokeColor=#111111;strokeWidth=0.2;sketch=1;curveFitting=1;jiggle=2;" edge="1" parent="oGT1-rxk5gDqi7XwYrmR-399">
          <mxGeometry width="50" height="50" relative="1" as="geometry">
            <mxPoint x="65" y="36.230000000000004" as="sourcePoint" />
            <mxPoint x="65" y="8.229999999999997" as="targetPoint" />
          </mxGeometry>
        </mxCell>
        <mxCell id="oGT1-rxk5gDqi7XwYrmR-37" value="" style="endArrow=none;html=1;rounded=0;strokeColor=#111111;strokeWidth=0.2;sketch=1;curveFitting=1;jiggle=2;" edge="1" parent="oGT1-rxk5gDqi7XwYrmR-399">
          <mxGeometry width="50" height="50" relative="1" as="geometry">
            <mxPoint x="64" y="36.230000000000004" as="sourcePoint" />
            <mxPoint x="64" y="8.229999999999997" as="targetPoint" />
          </mxGeometry>
        </mxCell>
        <mxCell id="oGT1-rxk5gDqi7XwYrmR-38" value="" style="endArrow=none;html=1;rounded=0;strokeColor=#111111;strokeWidth=0.2;sketch=1;curveFitting=1;jiggle=2;" edge="1" parent="oGT1-rxk5gDqi7XwYrmR-399">
          <mxGeometry width="50" height="50" relative="1" as="geometry">
            <mxPoint x="63" y="36.230000000000004" as="sourcePoint" />
            <mxPoint x="63" y="8.229999999999997" as="targetPoint" />
          </mxGeometry>
        </mxCell>
        <mxCell id="oGT1-rxk5gDqi7XwYrmR-39" value="" style="endArrow=none;html=1;rounded=0;strokeColor=#111111;strokeWidth=0.2;sketch=1;curveFitting=1;jiggle=2;" edge="1" parent="oGT1-rxk5gDqi7XwYrmR-399">
          <mxGeometry width="50" height="50" relative="1" as="geometry">
            <mxPoint x="62" y="36.230000000000004" as="sourcePoint" />
            <mxPoint x="62" y="8.229999999999997" as="targetPoint" />
          </mxGeometry>
        </mxCell>
        <mxCell id="oGT1-rxk5gDqi7XwYrmR-40" value="" style="endArrow=none;html=1;rounded=0;strokeColor=#111111;strokeWidth=0.2;sketch=1;curveFitting=1;jiggle=2;" edge="1" parent="oGT1-rxk5gDqi7XwYrmR-399">
          <mxGeometry width="50" height="50" relative="1" as="geometry">
            <mxPoint x="98" y="36.230000000000004" as="sourcePoint" />
            <mxPoint x="98" y="8.229999999999997" as="targetPoint" />
          </mxGeometry>
        </mxCell>
        <mxCell id="oGT1-rxk5gDqi7XwYrmR-41" value="" style="endArrow=none;html=1;rounded=0;strokeColor=#111111;strokeWidth=0.2;sketch=1;curveFitting=1;jiggle=2;" edge="1" parent="oGT1-rxk5gDqi7XwYrmR-399">
          <mxGeometry width="50" height="50" relative="1" as="geometry">
            <mxPoint x="99" y="36.230000000000004" as="sourcePoint" />
            <mxPoint x="99" y="8.229999999999997" as="targetPoint" />
          </mxGeometry>
        </mxCell>
        <mxCell id="oGT1-rxk5gDqi7XwYrmR-42" value="" style="endArrow=none;html=1;rounded=0;strokeColor=#111111;strokeWidth=0.2;sketch=1;curveFitting=1;jiggle=2;" edge="1" parent="oGT1-rxk5gDqi7XwYrmR-399">
          <mxGeometry width="50" height="50" relative="1" as="geometry">
            <mxPoint x="97" y="36.230000000000004" as="sourcePoint" />
            <mxPoint x="97" y="8.229999999999997" as="targetPoint" />
          </mxGeometry>
        </mxCell>
        <mxCell id="oGT1-rxk5gDqi7XwYrmR-43" value="" style="endArrow=none;html=1;rounded=0;strokeColor=#111111;strokeWidth=0.2;sketch=1;curveFitting=1;jiggle=2;" edge="1" parent="oGT1-rxk5gDqi7XwYrmR-399">
          <mxGeometry width="50" height="50" relative="1" as="geometry">
            <mxPoint x="96" y="36.230000000000004" as="sourcePoint" />
            <mxPoint x="96" y="8.229999999999997" as="targetPoint" />
          </mxGeometry>
        </mxCell>
        <mxCell id="oGT1-rxk5gDqi7XwYrmR-44" value="" style="endArrow=none;html=1;rounded=0;strokeColor=#111111;strokeWidth=0.2;sketch=1;curveFitting=1;jiggle=2;" edge="1" parent="oGT1-rxk5gDqi7XwYrmR-399">
          <mxGeometry width="50" height="50" relative="1" as="geometry">
            <mxPoint x="94" y="36.230000000000004" as="sourcePoint" />
            <mxPoint x="94" y="8.229999999999997" as="targetPoint" />
          </mxGeometry>
        </mxCell>
        <mxCell id="oGT1-rxk5gDqi7XwYrmR-45" value="" style="endArrow=none;html=1;rounded=0;strokeColor=#111111;strokeWidth=0.2;sketch=1;curveFitting=1;jiggle=2;" edge="1" parent="oGT1-rxk5gDqi7XwYrmR-399">
          <mxGeometry width="50" height="50" relative="1" as="geometry">
            <mxPoint x="95" y="36.230000000000004" as="sourcePoint" />
            <mxPoint x="95" y="8.229999999999997" as="targetPoint" />
          </mxGeometry>
        </mxCell>
        <mxCell id="oGT1-rxk5gDqi7XwYrmR-46" value="" style="endArrow=none;html=1;rounded=0;strokeColor=#111111;strokeWidth=0.2;sketch=1;curveFitting=1;jiggle=2;" edge="1" parent="oGT1-rxk5gDqi7XwYrmR-399">
          <mxGeometry width="50" height="50" relative="1" as="geometry">
            <mxPoint x="93" y="36.230000000000004" as="sourcePoint" />
            <mxPoint x="93" y="8.229999999999997" as="targetPoint" />
          </mxGeometry>
        </mxCell>
        <mxCell id="oGT1-rxk5gDqi7XwYrmR-47" value="" style="endArrow=none;html=1;rounded=0;strokeColor=#111111;strokeWidth=0.2;sketch=1;curveFitting=1;jiggle=2;" edge="1" parent="oGT1-rxk5gDqi7XwYrmR-399">
          <mxGeometry width="50" height="50" relative="1" as="geometry">
            <mxPoint x="92" y="36.230000000000004" as="sourcePoint" />
            <mxPoint x="92" y="8.229999999999997" as="targetPoint" />
          </mxGeometry>
        </mxCell>
        <mxCell id="oGT1-rxk5gDqi7XwYrmR-48" value="" style="endArrow=none;html=1;rounded=0;strokeColor=#111111;strokeWidth=0.2;sketch=1;curveFitting=1;jiggle=2;" edge="1" parent="oGT1-rxk5gDqi7XwYrmR-399">
          <mxGeometry width="50" height="50" relative="1" as="geometry">
            <mxPoint x="90" y="36.230000000000004" as="sourcePoint" />
            <mxPoint x="90" y="8.229999999999997" as="targetPoint" />
          </mxGeometry>
        </mxCell>
        <mxCell id="oGT1-rxk5gDqi7XwYrmR-49" value="" style="endArrow=none;html=1;rounded=0;strokeColor=#111111;strokeWidth=0.2;sketch=1;curveFitting=1;jiggle=2;" edge="1" parent="oGT1-rxk5gDqi7XwYrmR-399">
          <mxGeometry width="50" height="50" relative="1" as="geometry">
            <mxPoint x="91" y="36.230000000000004" as="sourcePoint" />
            <mxPoint x="91" y="8.229999999999997" as="targetPoint" />
          </mxGeometry>
        </mxCell>
        <mxCell id="oGT1-rxk5gDqi7XwYrmR-50" value="" style="endArrow=none;html=1;rounded=0;strokeColor=#111111;strokeWidth=0.2;sketch=1;curveFitting=1;jiggle=2;" edge="1" parent="oGT1-rxk5gDqi7XwYrmR-399">
          <mxGeometry width="50" height="50" relative="1" as="geometry">
            <mxPoint x="89" y="36.230000000000004" as="sourcePoint" />
            <mxPoint x="89" y="8.229999999999997" as="targetPoint" />
          </mxGeometry>
        </mxCell>
        <mxCell id="oGT1-rxk5gDqi7XwYrmR-51" value="" style="endArrow=none;html=1;rounded=0;strokeColor=#111111;strokeWidth=0.2;sketch=1;curveFitting=1;jiggle=2;" edge="1" parent="oGT1-rxk5gDqi7XwYrmR-399">
          <mxGeometry width="50" height="50" relative="1" as="geometry">
            <mxPoint x="88" y="36.230000000000004" as="sourcePoint" />
            <mxPoint x="88" y="8.229999999999997" as="targetPoint" />
          </mxGeometry>
        </mxCell>
        <mxCell id="oGT1-rxk5gDqi7XwYrmR-52" value="" style="endArrow=none;html=1;rounded=0;strokeColor=#111111;strokeWidth=0.2;sketch=1;curveFitting=1;jiggle=2;" edge="1" parent="oGT1-rxk5gDqi7XwYrmR-399">
          <mxGeometry width="50" height="50" relative="1" as="geometry">
            <mxPoint x="86" y="36.230000000000004" as="sourcePoint" />
            <mxPoint x="86" y="8.229999999999997" as="targetPoint" />
          </mxGeometry>
        </mxCell>
        <mxCell id="oGT1-rxk5gDqi7XwYrmR-53" value="" style="endArrow=none;html=1;rounded=0;strokeColor=#111111;strokeWidth=0.2;sketch=1;curveFitting=1;jiggle=2;" edge="1" parent="oGT1-rxk5gDqi7XwYrmR-399">
          <mxGeometry width="50" height="50" relative="1" as="geometry">
            <mxPoint x="87" y="36.230000000000004" as="sourcePoint" />
            <mxPoint x="87" y="8.229999999999997" as="targetPoint" />
          </mxGeometry>
        </mxCell>
        <mxCell id="oGT1-rxk5gDqi7XwYrmR-54" value="" style="endArrow=none;html=1;rounded=0;strokeColor=#111111;strokeWidth=0.2;sketch=1;curveFitting=1;jiggle=2;" edge="1" parent="oGT1-rxk5gDqi7XwYrmR-399">
          <mxGeometry width="50" height="50" relative="1" as="geometry">
            <mxPoint x="85" y="36.230000000000004" as="sourcePoint" />
            <mxPoint x="85" y="8.229999999999997" as="targetPoint" />
          </mxGeometry>
        </mxCell>
        <mxCell id="oGT1-rxk5gDqi7XwYrmR-55" value="" style="endArrow=none;html=1;rounded=0;strokeColor=#111111;strokeWidth=0.2;sketch=1;curveFitting=1;jiggle=2;" edge="1" parent="oGT1-rxk5gDqi7XwYrmR-399">
          <mxGeometry width="50" height="50" relative="1" as="geometry">
            <mxPoint x="84" y="36.230000000000004" as="sourcePoint" />
            <mxPoint x="84" y="8.229999999999997" as="targetPoint" />
          </mxGeometry>
        </mxCell>
        <mxCell id="oGT1-rxk5gDqi7XwYrmR-56" value="" style="endArrow=none;html=1;rounded=0;strokeColor=#111111;strokeWidth=0.2;sketch=1;curveFitting=1;jiggle=2;" edge="1" parent="oGT1-rxk5gDqi7XwYrmR-399">
          <mxGeometry width="50" height="50" relative="1" as="geometry">
            <mxPoint x="83" y="36.230000000000004" as="sourcePoint" />
            <mxPoint x="83" y="8.229999999999997" as="targetPoint" />
          </mxGeometry>
        </mxCell>
        <mxCell id="oGT1-rxk5gDqi7XwYrmR-57" value="" style="endArrow=none;html=1;rounded=0;strokeColor=#111111;strokeWidth=0.2;sketch=1;curveFitting=1;jiggle=2;" edge="1" parent="oGT1-rxk5gDqi7XwYrmR-399">
          <mxGeometry width="50" height="50" relative="1" as="geometry">
            <mxPoint x="82" y="36.230000000000004" as="sourcePoint" />
            <mxPoint x="82" y="8.229999999999997" as="targetPoint" />
          </mxGeometry>
        </mxCell>
        <mxCell id="oGT1-rxk5gDqi7XwYrmR-58" value="" style="endArrow=none;html=1;rounded=0;strokeColor=#111111;strokeWidth=0.2;sketch=1;curveFitting=1;jiggle=2;" edge="1" parent="oGT1-rxk5gDqi7XwYrmR-399">
          <mxGeometry width="50" height="50" relative="1" as="geometry">
            <mxPoint x="81" y="36.230000000000004" as="sourcePoint" />
            <mxPoint x="81" y="8.229999999999997" as="targetPoint" />
          </mxGeometry>
        </mxCell>
        <mxCell id="oGT1-rxk5gDqi7XwYrmR-59" value="" style="endArrow=none;html=1;rounded=0;strokeColor=#111111;strokeWidth=0.2;sketch=1;curveFitting=1;jiggle=2;" edge="1" parent="oGT1-rxk5gDqi7XwYrmR-399">
          <mxGeometry width="50" height="50" relative="1" as="geometry">
            <mxPoint x="117" y="36.230000000000004" as="sourcePoint" />
            <mxPoint x="117" y="8.229999999999997" as="targetPoint" />
          </mxGeometry>
        </mxCell>
        <mxCell id="oGT1-rxk5gDqi7XwYrmR-60" value="" style="endArrow=none;html=1;rounded=0;strokeColor=#111111;strokeWidth=0.2;sketch=1;curveFitting=1;jiggle=2;" edge="1" parent="oGT1-rxk5gDqi7XwYrmR-399">
          <mxGeometry width="50" height="50" relative="1" as="geometry">
            <mxPoint x="118" y="36.230000000000004" as="sourcePoint" />
            <mxPoint x="118" y="8.229999999999997" as="targetPoint" />
          </mxGeometry>
        </mxCell>
        <mxCell id="oGT1-rxk5gDqi7XwYrmR-61" value="" style="endArrow=none;html=1;rounded=0;strokeColor=#111111;strokeWidth=0.2;sketch=1;curveFitting=1;jiggle=2;" edge="1" parent="oGT1-rxk5gDqi7XwYrmR-399">
          <mxGeometry width="50" height="50" relative="1" as="geometry">
            <mxPoint x="116" y="36.230000000000004" as="sourcePoint" />
            <mxPoint x="116" y="8.229999999999997" as="targetPoint" />
          </mxGeometry>
        </mxCell>
        <mxCell id="oGT1-rxk5gDqi7XwYrmR-62" value="" style="endArrow=none;html=1;rounded=0;strokeColor=#111111;strokeWidth=0.2;sketch=1;curveFitting=1;jiggle=2;" edge="1" parent="oGT1-rxk5gDqi7XwYrmR-399">
          <mxGeometry width="50" height="50" relative="1" as="geometry">
            <mxPoint x="115" y="36.230000000000004" as="sourcePoint" />
            <mxPoint x="115" y="8.229999999999997" as="targetPoint" />
          </mxGeometry>
        </mxCell>
        <mxCell id="oGT1-rxk5gDqi7XwYrmR-63" value="" style="endArrow=none;html=1;rounded=0;strokeColor=#111111;strokeWidth=0.2;sketch=1;curveFitting=1;jiggle=2;" edge="1" parent="oGT1-rxk5gDqi7XwYrmR-399">
          <mxGeometry width="50" height="50" relative="1" as="geometry">
            <mxPoint x="113" y="36.230000000000004" as="sourcePoint" />
            <mxPoint x="113" y="8.229999999999997" as="targetPoint" />
          </mxGeometry>
        </mxCell>
        <mxCell id="oGT1-rxk5gDqi7XwYrmR-64" value="" style="endArrow=none;html=1;rounded=0;strokeColor=#111111;strokeWidth=0.2;sketch=1;curveFitting=1;jiggle=2;" edge="1" parent="oGT1-rxk5gDqi7XwYrmR-399">
          <mxGeometry width="50" height="50" relative="1" as="geometry">
            <mxPoint x="114" y="36.230000000000004" as="sourcePoint" />
            <mxPoint x="114" y="8.229999999999997" as="targetPoint" />
          </mxGeometry>
        </mxCell>
        <mxCell id="oGT1-rxk5gDqi7XwYrmR-65" value="" style="endArrow=none;html=1;rounded=0;strokeColor=#111111;strokeWidth=0.2;sketch=1;curveFitting=1;jiggle=2;" edge="1" parent="oGT1-rxk5gDqi7XwYrmR-399">
          <mxGeometry width="50" height="50" relative="1" as="geometry">
            <mxPoint x="112" y="36.230000000000004" as="sourcePoint" />
            <mxPoint x="112" y="8.229999999999997" as="targetPoint" />
          </mxGeometry>
        </mxCell>
        <mxCell id="oGT1-rxk5gDqi7XwYrmR-66" value="" style="endArrow=none;html=1;rounded=0;strokeColor=#111111;strokeWidth=0.2;sketch=1;curveFitting=1;jiggle=2;" edge="1" parent="oGT1-rxk5gDqi7XwYrmR-399">
          <mxGeometry width="50" height="50" relative="1" as="geometry">
            <mxPoint x="111" y="36.230000000000004" as="sourcePoint" />
            <mxPoint x="111" y="8.229999999999997" as="targetPoint" />
          </mxGeometry>
        </mxCell>
        <mxCell id="oGT1-rxk5gDqi7XwYrmR-67" value="" style="endArrow=none;html=1;rounded=0;strokeColor=#111111;strokeWidth=0.2;sketch=1;curveFitting=1;jiggle=2;" edge="1" parent="oGT1-rxk5gDqi7XwYrmR-399">
          <mxGeometry width="50" height="50" relative="1" as="geometry">
            <mxPoint x="109" y="36.230000000000004" as="sourcePoint" />
            <mxPoint x="109" y="8.229999999999997" as="targetPoint" />
          </mxGeometry>
        </mxCell>
        <mxCell id="oGT1-rxk5gDqi7XwYrmR-68" value="" style="endArrow=none;html=1;rounded=0;strokeColor=#111111;strokeWidth=0.2;sketch=1;curveFitting=1;jiggle=2;" edge="1" parent="oGT1-rxk5gDqi7XwYrmR-399">
          <mxGeometry width="50" height="50" relative="1" as="geometry">
            <mxPoint x="110" y="36.230000000000004" as="sourcePoint" />
            <mxPoint x="110" y="8.229999999999997" as="targetPoint" />
          </mxGeometry>
        </mxCell>
        <mxCell id="oGT1-rxk5gDqi7XwYrmR-69" value="" style="endArrow=none;html=1;rounded=0;strokeColor=#111111;strokeWidth=0.2;sketch=1;curveFitting=1;jiggle=2;" edge="1" parent="oGT1-rxk5gDqi7XwYrmR-399">
          <mxGeometry width="50" height="50" relative="1" as="geometry">
            <mxPoint x="108" y="36.230000000000004" as="sourcePoint" />
            <mxPoint x="108" y="8.229999999999997" as="targetPoint" />
          </mxGeometry>
        </mxCell>
        <mxCell id="oGT1-rxk5gDqi7XwYrmR-70" value="" style="endArrow=none;html=1;rounded=0;strokeColor=#111111;strokeWidth=0.2;sketch=1;curveFitting=1;jiggle=2;" edge="1" parent="oGT1-rxk5gDqi7XwYrmR-399">
          <mxGeometry width="50" height="50" relative="1" as="geometry">
            <mxPoint x="107" y="36.230000000000004" as="sourcePoint" />
            <mxPoint x="107" y="8.229999999999997" as="targetPoint" />
          </mxGeometry>
        </mxCell>
        <mxCell id="oGT1-rxk5gDqi7XwYrmR-71" value="" style="endArrow=none;html=1;rounded=0;strokeColor=#111111;strokeWidth=0.2;sketch=1;curveFitting=1;jiggle=2;" edge="1" parent="oGT1-rxk5gDqi7XwYrmR-399">
          <mxGeometry width="50" height="50" relative="1" as="geometry">
            <mxPoint x="105" y="36.230000000000004" as="sourcePoint" />
            <mxPoint x="105" y="8.229999999999997" as="targetPoint" />
          </mxGeometry>
        </mxCell>
        <mxCell id="oGT1-rxk5gDqi7XwYrmR-72" value="" style="endArrow=none;html=1;rounded=0;strokeColor=#111111;strokeWidth=0.2;sketch=1;curveFitting=1;jiggle=2;" edge="1" parent="oGT1-rxk5gDqi7XwYrmR-399">
          <mxGeometry width="50" height="50" relative="1" as="geometry">
            <mxPoint x="106" y="36.230000000000004" as="sourcePoint" />
            <mxPoint x="106" y="8.229999999999997" as="targetPoint" />
          </mxGeometry>
        </mxCell>
        <mxCell id="oGT1-rxk5gDqi7XwYrmR-73" value="" style="endArrow=none;html=1;rounded=0;strokeColor=#111111;strokeWidth=0.2;sketch=1;curveFitting=1;jiggle=2;" edge="1" parent="oGT1-rxk5gDqi7XwYrmR-399">
          <mxGeometry width="50" height="50" relative="1" as="geometry">
            <mxPoint x="104" y="36.230000000000004" as="sourcePoint" />
            <mxPoint x="104" y="8.229999999999997" as="targetPoint" />
          </mxGeometry>
        </mxCell>
        <mxCell id="oGT1-rxk5gDqi7XwYrmR-74" value="" style="endArrow=none;html=1;rounded=0;strokeColor=#111111;strokeWidth=0.2;sketch=1;curveFitting=1;jiggle=2;" edge="1" parent="oGT1-rxk5gDqi7XwYrmR-399">
          <mxGeometry width="50" height="50" relative="1" as="geometry">
            <mxPoint x="103" y="36.230000000000004" as="sourcePoint" />
            <mxPoint x="103" y="8.229999999999997" as="targetPoint" />
          </mxGeometry>
        </mxCell>
        <mxCell id="oGT1-rxk5gDqi7XwYrmR-75" value="" style="endArrow=none;html=1;rounded=0;strokeColor=#111111;strokeWidth=0.2;sketch=1;curveFitting=1;jiggle=2;" edge="1" parent="oGT1-rxk5gDqi7XwYrmR-399">
          <mxGeometry width="50" height="50" relative="1" as="geometry">
            <mxPoint x="102" y="36.230000000000004" as="sourcePoint" />
            <mxPoint x="102" y="8.229999999999997" as="targetPoint" />
          </mxGeometry>
        </mxCell>
        <mxCell id="oGT1-rxk5gDqi7XwYrmR-76" value="" style="endArrow=none;html=1;rounded=0;strokeColor=#111111;strokeWidth=0.2;sketch=1;curveFitting=1;jiggle=2;" edge="1" parent="oGT1-rxk5gDqi7XwYrmR-399">
          <mxGeometry width="50" height="50" relative="1" as="geometry">
            <mxPoint x="101" y="36.230000000000004" as="sourcePoint" />
            <mxPoint x="101" y="8.229999999999997" as="targetPoint" />
          </mxGeometry>
        </mxCell>
        <mxCell id="oGT1-rxk5gDqi7XwYrmR-77" value="" style="endArrow=none;html=1;rounded=0;strokeColor=#111111;strokeWidth=0.2;sketch=1;curveFitting=1;jiggle=2;" edge="1" parent="oGT1-rxk5gDqi7XwYrmR-399">
          <mxGeometry width="50" height="50" relative="1" as="geometry">
            <mxPoint x="100" y="36.230000000000004" as="sourcePoint" />
            <mxPoint x="100" y="8.229999999999997" as="targetPoint" />
          </mxGeometry>
        </mxCell>
        <mxCell id="oGT1-rxk5gDqi7XwYrmR-78" value="" style="endArrow=none;html=1;rounded=0;strokeColor=#111111;strokeWidth=0.2;sketch=1;curveFitting=1;jiggle=2;" edge="1" parent="oGT1-rxk5gDqi7XwYrmR-399">
          <mxGeometry width="50" height="50" relative="1" as="geometry">
            <mxPoint x="136" y="36.230000000000004" as="sourcePoint" />
            <mxPoint x="136" y="8.229999999999997" as="targetPoint" />
          </mxGeometry>
        </mxCell>
        <mxCell id="oGT1-rxk5gDqi7XwYrmR-79" value="" style="endArrow=none;html=1;rounded=0;strokeColor=#111111;strokeWidth=0.2;sketch=1;curveFitting=1;jiggle=2;" edge="1" parent="oGT1-rxk5gDqi7XwYrmR-399">
          <mxGeometry width="50" height="50" relative="1" as="geometry">
            <mxPoint x="137" y="36.230000000000004" as="sourcePoint" />
            <mxPoint x="137" y="8.229999999999997" as="targetPoint" />
          </mxGeometry>
        </mxCell>
        <mxCell id="oGT1-rxk5gDqi7XwYrmR-80" value="" style="endArrow=none;html=1;rounded=0;strokeColor=#111111;strokeWidth=0.2;sketch=1;curveFitting=1;jiggle=2;" edge="1" parent="oGT1-rxk5gDqi7XwYrmR-399">
          <mxGeometry width="50" height="50" relative="1" as="geometry">
            <mxPoint x="135" y="36.230000000000004" as="sourcePoint" />
            <mxPoint x="135" y="8.229999999999997" as="targetPoint" />
          </mxGeometry>
        </mxCell>
        <mxCell id="oGT1-rxk5gDqi7XwYrmR-81" value="" style="endArrow=none;html=1;rounded=0;strokeColor=#111111;strokeWidth=0.2;sketch=1;curveFitting=1;jiggle=2;" edge="1" parent="oGT1-rxk5gDqi7XwYrmR-399">
          <mxGeometry width="50" height="50" relative="1" as="geometry">
            <mxPoint x="134" y="36.230000000000004" as="sourcePoint" />
            <mxPoint x="134" y="8.229999999999997" as="targetPoint" />
          </mxGeometry>
        </mxCell>
        <mxCell id="oGT1-rxk5gDqi7XwYrmR-82" value="" style="endArrow=none;html=1;rounded=0;strokeColor=#111111;strokeWidth=0.2;sketch=1;curveFitting=1;jiggle=2;" edge="1" parent="oGT1-rxk5gDqi7XwYrmR-399">
          <mxGeometry width="50" height="50" relative="1" as="geometry">
            <mxPoint x="132" y="36.230000000000004" as="sourcePoint" />
            <mxPoint x="132" y="8.229999999999997" as="targetPoint" />
          </mxGeometry>
        </mxCell>
        <mxCell id="oGT1-rxk5gDqi7XwYrmR-83" value="" style="endArrow=none;html=1;rounded=0;strokeColor=#111111;strokeWidth=0.2;sketch=1;curveFitting=1;jiggle=2;" edge="1" parent="oGT1-rxk5gDqi7XwYrmR-399">
          <mxGeometry width="50" height="50" relative="1" as="geometry">
            <mxPoint x="133" y="36.230000000000004" as="sourcePoint" />
            <mxPoint x="133" y="8.229999999999997" as="targetPoint" />
          </mxGeometry>
        </mxCell>
        <mxCell id="oGT1-rxk5gDqi7XwYrmR-84" value="" style="endArrow=none;html=1;rounded=0;strokeColor=#111111;strokeWidth=0.2;sketch=1;curveFitting=1;jiggle=2;" edge="1" parent="oGT1-rxk5gDqi7XwYrmR-399">
          <mxGeometry width="50" height="50" relative="1" as="geometry">
            <mxPoint x="131" y="36.230000000000004" as="sourcePoint" />
            <mxPoint x="131" y="8.229999999999997" as="targetPoint" />
          </mxGeometry>
        </mxCell>
        <mxCell id="oGT1-rxk5gDqi7XwYrmR-85" value="" style="endArrow=none;html=1;rounded=0;strokeColor=#111111;strokeWidth=0.2;sketch=1;curveFitting=1;jiggle=2;" edge="1" parent="oGT1-rxk5gDqi7XwYrmR-399">
          <mxGeometry width="50" height="50" relative="1" as="geometry">
            <mxPoint x="130" y="36.230000000000004" as="sourcePoint" />
            <mxPoint x="130" y="8.229999999999997" as="targetPoint" />
          </mxGeometry>
        </mxCell>
        <mxCell id="oGT1-rxk5gDqi7XwYrmR-86" value="" style="endArrow=none;html=1;rounded=0;strokeColor=#111111;strokeWidth=0.2;sketch=1;curveFitting=1;jiggle=2;" edge="1" parent="oGT1-rxk5gDqi7XwYrmR-399">
          <mxGeometry width="50" height="50" relative="1" as="geometry">
            <mxPoint x="128" y="36.230000000000004" as="sourcePoint" />
            <mxPoint x="128" y="8.229999999999997" as="targetPoint" />
          </mxGeometry>
        </mxCell>
        <mxCell id="oGT1-rxk5gDqi7XwYrmR-87" value="" style="endArrow=none;html=1;rounded=0;strokeColor=#111111;strokeWidth=0.2;sketch=1;curveFitting=1;jiggle=2;" edge="1" parent="oGT1-rxk5gDqi7XwYrmR-399">
          <mxGeometry width="50" height="50" relative="1" as="geometry">
            <mxPoint x="129" y="36.230000000000004" as="sourcePoint" />
            <mxPoint x="129" y="8.229999999999997" as="targetPoint" />
          </mxGeometry>
        </mxCell>
        <mxCell id="oGT1-rxk5gDqi7XwYrmR-88" value="" style="endArrow=none;html=1;rounded=0;strokeColor=#111111;strokeWidth=0.2;sketch=1;curveFitting=1;jiggle=2;" edge="1" parent="oGT1-rxk5gDqi7XwYrmR-399">
          <mxGeometry width="50" height="50" relative="1" as="geometry">
            <mxPoint x="127" y="36.230000000000004" as="sourcePoint" />
            <mxPoint x="127" y="8.229999999999997" as="targetPoint" />
          </mxGeometry>
        </mxCell>
        <mxCell id="oGT1-rxk5gDqi7XwYrmR-89" value="" style="endArrow=none;html=1;rounded=0;strokeColor=#111111;strokeWidth=0.2;sketch=1;curveFitting=1;jiggle=2;" edge="1" parent="oGT1-rxk5gDqi7XwYrmR-399">
          <mxGeometry width="50" height="50" relative="1" as="geometry">
            <mxPoint x="126" y="36.230000000000004" as="sourcePoint" />
            <mxPoint x="126" y="8.229999999999997" as="targetPoint" />
          </mxGeometry>
        </mxCell>
        <mxCell id="oGT1-rxk5gDqi7XwYrmR-90" value="" style="endArrow=none;html=1;rounded=0;strokeColor=#111111;strokeWidth=0.2;sketch=1;curveFitting=1;jiggle=2;" edge="1" parent="oGT1-rxk5gDqi7XwYrmR-399">
          <mxGeometry width="50" height="50" relative="1" as="geometry">
            <mxPoint x="124" y="36.230000000000004" as="sourcePoint" />
            <mxPoint x="124" y="8.229999999999997" as="targetPoint" />
          </mxGeometry>
        </mxCell>
        <mxCell id="oGT1-rxk5gDqi7XwYrmR-91" value="" style="endArrow=none;html=1;rounded=0;strokeColor=#111111;strokeWidth=0.2;sketch=1;curveFitting=1;jiggle=2;" edge="1" parent="oGT1-rxk5gDqi7XwYrmR-399">
          <mxGeometry width="50" height="50" relative="1" as="geometry">
            <mxPoint x="125" y="36.230000000000004" as="sourcePoint" />
            <mxPoint x="125" y="8.229999999999997" as="targetPoint" />
          </mxGeometry>
        </mxCell>
        <mxCell id="oGT1-rxk5gDqi7XwYrmR-92" value="" style="endArrow=none;html=1;rounded=0;strokeColor=#111111;strokeWidth=0.2;sketch=1;curveFitting=1;jiggle=2;" edge="1" parent="oGT1-rxk5gDqi7XwYrmR-399">
          <mxGeometry width="50" height="50" relative="1" as="geometry">
            <mxPoint x="123" y="36.230000000000004" as="sourcePoint" />
            <mxPoint x="123" y="8.229999999999997" as="targetPoint" />
          </mxGeometry>
        </mxCell>
        <mxCell id="oGT1-rxk5gDqi7XwYrmR-93" value="" style="endArrow=none;html=1;rounded=0;strokeColor=#111111;strokeWidth=0.2;sketch=1;curveFitting=1;jiggle=2;" edge="1" parent="oGT1-rxk5gDqi7XwYrmR-399">
          <mxGeometry width="50" height="50" relative="1" as="geometry">
            <mxPoint x="122" y="36.230000000000004" as="sourcePoint" />
            <mxPoint x="122" y="8.229999999999997" as="targetPoint" />
          </mxGeometry>
        </mxCell>
        <mxCell id="oGT1-rxk5gDqi7XwYrmR-94" value="" style="endArrow=none;html=1;rounded=0;strokeColor=#111111;strokeWidth=0.2;sketch=1;curveFitting=1;jiggle=2;" edge="1" parent="oGT1-rxk5gDqi7XwYrmR-399">
          <mxGeometry width="50" height="50" relative="1" as="geometry">
            <mxPoint x="121" y="36.230000000000004" as="sourcePoint" />
            <mxPoint x="121" y="8.229999999999997" as="targetPoint" />
          </mxGeometry>
        </mxCell>
        <mxCell id="oGT1-rxk5gDqi7XwYrmR-95" value="" style="endArrow=none;html=1;rounded=0;strokeColor=#111111;strokeWidth=0.2;sketch=1;curveFitting=1;jiggle=2;" edge="1" parent="oGT1-rxk5gDqi7XwYrmR-399">
          <mxGeometry width="50" height="50" relative="1" as="geometry">
            <mxPoint x="120" y="36.230000000000004" as="sourcePoint" />
            <mxPoint x="120" y="8.229999999999997" as="targetPoint" />
          </mxGeometry>
        </mxCell>
        <mxCell id="oGT1-rxk5gDqi7XwYrmR-96" value="" style="endArrow=none;html=1;rounded=0;strokeColor=#111111;strokeWidth=0.2;sketch=1;curveFitting=1;jiggle=2;" edge="1" parent="oGT1-rxk5gDqi7XwYrmR-399">
          <mxGeometry width="50" height="50" relative="1" as="geometry">
            <mxPoint x="119" y="36.230000000000004" as="sourcePoint" />
            <mxPoint x="119" y="8.229999999999997" as="targetPoint" />
          </mxGeometry>
        </mxCell>
        <mxCell id="oGT1-rxk5gDqi7XwYrmR-97" value="" style="endArrow=none;html=1;rounded=0;strokeColor=#111111;strokeWidth=0.2;sketch=1;curveFitting=1;jiggle=2;" edge="1" parent="oGT1-rxk5gDqi7XwYrmR-399">
          <mxGeometry width="50" height="50" relative="1" as="geometry">
            <mxPoint x="155" y="36.230000000000004" as="sourcePoint" />
            <mxPoint x="155" y="8.229999999999997" as="targetPoint" />
          </mxGeometry>
        </mxCell>
        <mxCell id="oGT1-rxk5gDqi7XwYrmR-98" value="" style="endArrow=none;html=1;rounded=0;strokeColor=#111111;strokeWidth=0.2;sketch=1;curveFitting=1;jiggle=2;" edge="1" parent="oGT1-rxk5gDqi7XwYrmR-399">
          <mxGeometry width="50" height="50" relative="1" as="geometry">
            <mxPoint x="156" y="36.230000000000004" as="sourcePoint" />
            <mxPoint x="156" y="8.229999999999997" as="targetPoint" />
          </mxGeometry>
        </mxCell>
        <mxCell id="oGT1-rxk5gDqi7XwYrmR-99" value="" style="endArrow=none;html=1;rounded=0;strokeColor=#111111;strokeWidth=0.2;sketch=1;curveFitting=1;jiggle=2;" edge="1" parent="oGT1-rxk5gDqi7XwYrmR-399">
          <mxGeometry width="50" height="50" relative="1" as="geometry">
            <mxPoint x="154" y="36.230000000000004" as="sourcePoint" />
            <mxPoint x="154" y="8.229999999999997" as="targetPoint" />
          </mxGeometry>
        </mxCell>
        <mxCell id="oGT1-rxk5gDqi7XwYrmR-100" value="" style="endArrow=none;html=1;rounded=0;strokeColor=#111111;strokeWidth=0.2;sketch=1;curveFitting=1;jiggle=2;" edge="1" parent="oGT1-rxk5gDqi7XwYrmR-399">
          <mxGeometry width="50" height="50" relative="1" as="geometry">
            <mxPoint x="153" y="36.230000000000004" as="sourcePoint" />
            <mxPoint x="153" y="8.229999999999997" as="targetPoint" />
          </mxGeometry>
        </mxCell>
        <mxCell id="oGT1-rxk5gDqi7XwYrmR-101" value="" style="endArrow=none;html=1;rounded=0;strokeColor=#111111;strokeWidth=0.2;sketch=1;curveFitting=1;jiggle=2;" edge="1" parent="oGT1-rxk5gDqi7XwYrmR-399">
          <mxGeometry width="50" height="50" relative="1" as="geometry">
            <mxPoint x="151" y="36.230000000000004" as="sourcePoint" />
            <mxPoint x="151" y="8.229999999999997" as="targetPoint" />
          </mxGeometry>
        </mxCell>
        <mxCell id="oGT1-rxk5gDqi7XwYrmR-102" value="" style="endArrow=none;html=1;rounded=0;strokeColor=#111111;strokeWidth=0.2;sketch=1;curveFitting=1;jiggle=2;" edge="1" parent="oGT1-rxk5gDqi7XwYrmR-399">
          <mxGeometry width="50" height="50" relative="1" as="geometry">
            <mxPoint x="152" y="36.230000000000004" as="sourcePoint" />
            <mxPoint x="152" y="8.229999999999997" as="targetPoint" />
          </mxGeometry>
        </mxCell>
        <mxCell id="oGT1-rxk5gDqi7XwYrmR-103" value="" style="endArrow=none;html=1;rounded=0;strokeColor=#111111;strokeWidth=0.2;sketch=1;curveFitting=1;jiggle=2;" edge="1" parent="oGT1-rxk5gDqi7XwYrmR-399">
          <mxGeometry width="50" height="50" relative="1" as="geometry">
            <mxPoint x="150" y="36.230000000000004" as="sourcePoint" />
            <mxPoint x="150" y="8.229999999999997" as="targetPoint" />
          </mxGeometry>
        </mxCell>
        <mxCell id="oGT1-rxk5gDqi7XwYrmR-104" value="" style="endArrow=none;html=1;rounded=0;strokeColor=#111111;strokeWidth=0.2;sketch=1;curveFitting=1;jiggle=2;" edge="1" parent="oGT1-rxk5gDqi7XwYrmR-399">
          <mxGeometry width="50" height="50" relative="1" as="geometry">
            <mxPoint x="149" y="36.230000000000004" as="sourcePoint" />
            <mxPoint x="149" y="8.229999999999997" as="targetPoint" />
          </mxGeometry>
        </mxCell>
        <mxCell id="oGT1-rxk5gDqi7XwYrmR-105" value="" style="endArrow=none;html=1;rounded=0;strokeColor=#111111;strokeWidth=0.2;sketch=1;curveFitting=1;jiggle=2;" edge="1" parent="oGT1-rxk5gDqi7XwYrmR-399">
          <mxGeometry width="50" height="50" relative="1" as="geometry">
            <mxPoint x="147" y="36.230000000000004" as="sourcePoint" />
            <mxPoint x="147" y="8.229999999999997" as="targetPoint" />
          </mxGeometry>
        </mxCell>
        <mxCell id="oGT1-rxk5gDqi7XwYrmR-106" value="" style="endArrow=none;html=1;rounded=0;strokeColor=#111111;strokeWidth=0.2;sketch=1;curveFitting=1;jiggle=2;" edge="1" parent="oGT1-rxk5gDqi7XwYrmR-399">
          <mxGeometry width="50" height="50" relative="1" as="geometry">
            <mxPoint x="148" y="36.230000000000004" as="sourcePoint" />
            <mxPoint x="148" y="8.229999999999997" as="targetPoint" />
          </mxGeometry>
        </mxCell>
        <mxCell id="oGT1-rxk5gDqi7XwYrmR-107" value="" style="endArrow=none;html=1;rounded=0;strokeColor=#111111;strokeWidth=0.2;sketch=1;curveFitting=1;jiggle=2;" edge="1" parent="oGT1-rxk5gDqi7XwYrmR-399">
          <mxGeometry width="50" height="50" relative="1" as="geometry">
            <mxPoint x="146" y="36.230000000000004" as="sourcePoint" />
            <mxPoint x="146" y="8.229999999999997" as="targetPoint" />
          </mxGeometry>
        </mxCell>
        <mxCell id="oGT1-rxk5gDqi7XwYrmR-108" value="" style="endArrow=none;html=1;rounded=0;strokeColor=#111111;strokeWidth=0.2;sketch=1;curveFitting=1;jiggle=2;" edge="1" parent="oGT1-rxk5gDqi7XwYrmR-399">
          <mxGeometry width="50" height="50" relative="1" as="geometry">
            <mxPoint x="145" y="36.230000000000004" as="sourcePoint" />
            <mxPoint x="145" y="8.229999999999997" as="targetPoint" />
          </mxGeometry>
        </mxCell>
        <mxCell id="oGT1-rxk5gDqi7XwYrmR-109" value="" style="endArrow=none;html=1;rounded=0;strokeColor=#111111;strokeWidth=0.2;sketch=1;curveFitting=1;jiggle=2;" edge="1" parent="oGT1-rxk5gDqi7XwYrmR-399">
          <mxGeometry width="50" height="50" relative="1" as="geometry">
            <mxPoint x="143" y="36.230000000000004" as="sourcePoint" />
            <mxPoint x="143" y="8.229999999999997" as="targetPoint" />
          </mxGeometry>
        </mxCell>
        <mxCell id="oGT1-rxk5gDqi7XwYrmR-110" value="" style="endArrow=none;html=1;rounded=0;strokeColor=#111111;strokeWidth=0.2;sketch=1;curveFitting=1;jiggle=2;" edge="1" parent="oGT1-rxk5gDqi7XwYrmR-399">
          <mxGeometry width="50" height="50" relative="1" as="geometry">
            <mxPoint x="144" y="36.230000000000004" as="sourcePoint" />
            <mxPoint x="144" y="8.229999999999997" as="targetPoint" />
          </mxGeometry>
        </mxCell>
        <mxCell id="oGT1-rxk5gDqi7XwYrmR-111" value="" style="endArrow=none;html=1;rounded=0;strokeColor=#111111;strokeWidth=0.2;sketch=1;curveFitting=1;jiggle=2;" edge="1" parent="oGT1-rxk5gDqi7XwYrmR-399">
          <mxGeometry width="50" height="50" relative="1" as="geometry">
            <mxPoint x="142" y="36.230000000000004" as="sourcePoint" />
            <mxPoint x="142" y="8.229999999999997" as="targetPoint" />
          </mxGeometry>
        </mxCell>
        <mxCell id="oGT1-rxk5gDqi7XwYrmR-112" value="" style="endArrow=none;html=1;rounded=0;strokeColor=#111111;strokeWidth=0.2;sketch=1;curveFitting=1;jiggle=2;" edge="1" parent="oGT1-rxk5gDqi7XwYrmR-399">
          <mxGeometry width="50" height="50" relative="1" as="geometry">
            <mxPoint x="141" y="36.230000000000004" as="sourcePoint" />
            <mxPoint x="141" y="8.229999999999997" as="targetPoint" />
          </mxGeometry>
        </mxCell>
        <mxCell id="oGT1-rxk5gDqi7XwYrmR-113" value="" style="endArrow=none;html=1;rounded=0;strokeColor=#111111;strokeWidth=0.2;sketch=1;curveFitting=1;jiggle=2;" edge="1" parent="oGT1-rxk5gDqi7XwYrmR-399">
          <mxGeometry width="50" height="50" relative="1" as="geometry">
            <mxPoint x="140" y="36.230000000000004" as="sourcePoint" />
            <mxPoint x="140" y="8.229999999999997" as="targetPoint" />
          </mxGeometry>
        </mxCell>
        <mxCell id="oGT1-rxk5gDqi7XwYrmR-114" value="" style="endArrow=none;html=1;rounded=0;strokeColor=#111111;strokeWidth=0.2;sketch=1;curveFitting=1;jiggle=2;" edge="1" parent="oGT1-rxk5gDqi7XwYrmR-399">
          <mxGeometry width="50" height="50" relative="1" as="geometry">
            <mxPoint x="139" y="36.230000000000004" as="sourcePoint" />
            <mxPoint x="139" y="8.229999999999997" as="targetPoint" />
          </mxGeometry>
        </mxCell>
        <mxCell id="oGT1-rxk5gDqi7XwYrmR-115" value="" style="endArrow=none;html=1;rounded=0;strokeColor=#111111;strokeWidth=0.2;sketch=1;curveFitting=1;jiggle=2;" edge="1" parent="oGT1-rxk5gDqi7XwYrmR-399">
          <mxGeometry width="50" height="50" relative="1" as="geometry">
            <mxPoint x="138" y="36.230000000000004" as="sourcePoint" />
            <mxPoint x="138" y="8.229999999999997" as="targetPoint" />
          </mxGeometry>
        </mxCell>
        <mxCell id="oGT1-rxk5gDqi7XwYrmR-116" value="" style="endArrow=none;html=1;rounded=0;strokeColor=#111111;strokeWidth=0.2;sketch=1;curveFitting=1;jiggle=2;" edge="1" parent="oGT1-rxk5gDqi7XwYrmR-399">
          <mxGeometry width="50" height="50" relative="1" as="geometry">
            <mxPoint x="174" y="36.230000000000004" as="sourcePoint" />
            <mxPoint x="174" y="8.229999999999997" as="targetPoint" />
          </mxGeometry>
        </mxCell>
        <mxCell id="oGT1-rxk5gDqi7XwYrmR-117" value="" style="endArrow=none;html=1;rounded=0;strokeColor=#111111;strokeWidth=0.2;sketch=1;curveFitting=1;jiggle=2;" edge="1" parent="oGT1-rxk5gDqi7XwYrmR-399">
          <mxGeometry width="50" height="50" relative="1" as="geometry">
            <mxPoint x="175" y="36.230000000000004" as="sourcePoint" />
            <mxPoint x="175" y="8.229999999999997" as="targetPoint" />
          </mxGeometry>
        </mxCell>
        <mxCell id="oGT1-rxk5gDqi7XwYrmR-118" value="" style="endArrow=none;html=1;rounded=0;strokeColor=#111111;strokeWidth=0.2;sketch=1;curveFitting=1;jiggle=2;" edge="1" parent="oGT1-rxk5gDqi7XwYrmR-399">
          <mxGeometry width="50" height="50" relative="1" as="geometry">
            <mxPoint x="173" y="36.230000000000004" as="sourcePoint" />
            <mxPoint x="173" y="8.229999999999997" as="targetPoint" />
          </mxGeometry>
        </mxCell>
        <mxCell id="oGT1-rxk5gDqi7XwYrmR-119" value="" style="endArrow=none;html=1;rounded=0;strokeColor=#111111;strokeWidth=0.2;sketch=1;curveFitting=1;jiggle=2;" edge="1" parent="oGT1-rxk5gDqi7XwYrmR-399">
          <mxGeometry width="50" height="50" relative="1" as="geometry">
            <mxPoint x="172" y="36.230000000000004" as="sourcePoint" />
            <mxPoint x="172" y="8.229999999999997" as="targetPoint" />
          </mxGeometry>
        </mxCell>
        <mxCell id="oGT1-rxk5gDqi7XwYrmR-120" value="" style="endArrow=none;html=1;rounded=0;strokeColor=#111111;strokeWidth=0.2;sketch=1;curveFitting=1;jiggle=2;" edge="1" parent="oGT1-rxk5gDqi7XwYrmR-399">
          <mxGeometry width="50" height="50" relative="1" as="geometry">
            <mxPoint x="170" y="36.230000000000004" as="sourcePoint" />
            <mxPoint x="170" y="8.229999999999997" as="targetPoint" />
          </mxGeometry>
        </mxCell>
        <mxCell id="oGT1-rxk5gDqi7XwYrmR-121" value="" style="endArrow=none;html=1;rounded=0;strokeColor=#111111;strokeWidth=0.2;sketch=1;curveFitting=1;jiggle=2;" edge="1" parent="oGT1-rxk5gDqi7XwYrmR-399">
          <mxGeometry width="50" height="50" relative="1" as="geometry">
            <mxPoint x="171" y="36.230000000000004" as="sourcePoint" />
            <mxPoint x="171" y="8.229999999999997" as="targetPoint" />
          </mxGeometry>
        </mxCell>
        <mxCell id="oGT1-rxk5gDqi7XwYrmR-122" value="" style="endArrow=none;html=1;rounded=0;strokeColor=#111111;strokeWidth=0.2;sketch=1;curveFitting=1;jiggle=2;" edge="1" parent="oGT1-rxk5gDqi7XwYrmR-399">
          <mxGeometry width="50" height="50" relative="1" as="geometry">
            <mxPoint x="169" y="36.230000000000004" as="sourcePoint" />
            <mxPoint x="169" y="8.229999999999997" as="targetPoint" />
          </mxGeometry>
        </mxCell>
        <mxCell id="oGT1-rxk5gDqi7XwYrmR-123" value="" style="endArrow=none;html=1;rounded=0;strokeColor=#111111;strokeWidth=0.2;sketch=1;curveFitting=1;jiggle=2;" edge="1" parent="oGT1-rxk5gDqi7XwYrmR-399">
          <mxGeometry width="50" height="50" relative="1" as="geometry">
            <mxPoint x="168" y="36.230000000000004" as="sourcePoint" />
            <mxPoint x="168" y="8.229999999999997" as="targetPoint" />
          </mxGeometry>
        </mxCell>
        <mxCell id="oGT1-rxk5gDqi7XwYrmR-124" value="" style="endArrow=none;html=1;rounded=0;strokeColor=#111111;strokeWidth=0.2;sketch=1;curveFitting=1;jiggle=2;" edge="1" parent="oGT1-rxk5gDqi7XwYrmR-399">
          <mxGeometry width="50" height="50" relative="1" as="geometry">
            <mxPoint x="166" y="36.230000000000004" as="sourcePoint" />
            <mxPoint x="166" y="8.229999999999997" as="targetPoint" />
          </mxGeometry>
        </mxCell>
        <mxCell id="oGT1-rxk5gDqi7XwYrmR-125" value="" style="endArrow=none;html=1;rounded=0;strokeColor=#111111;strokeWidth=0.2;sketch=1;curveFitting=1;jiggle=2;" edge="1" parent="oGT1-rxk5gDqi7XwYrmR-399">
          <mxGeometry width="50" height="50" relative="1" as="geometry">
            <mxPoint x="167" y="36.230000000000004" as="sourcePoint" />
            <mxPoint x="167" y="8.229999999999997" as="targetPoint" />
          </mxGeometry>
        </mxCell>
        <mxCell id="oGT1-rxk5gDqi7XwYrmR-126" value="" style="endArrow=none;html=1;rounded=0;strokeColor=#111111;strokeWidth=0.2;sketch=1;curveFitting=1;jiggle=2;" edge="1" parent="oGT1-rxk5gDqi7XwYrmR-399">
          <mxGeometry width="50" height="50" relative="1" as="geometry">
            <mxPoint x="165" y="36.230000000000004" as="sourcePoint" />
            <mxPoint x="165" y="8.229999999999997" as="targetPoint" />
          </mxGeometry>
        </mxCell>
        <mxCell id="oGT1-rxk5gDqi7XwYrmR-127" value="" style="endArrow=none;html=1;rounded=0;strokeColor=#111111;strokeWidth=0.2;sketch=1;curveFitting=1;jiggle=2;" edge="1" parent="oGT1-rxk5gDqi7XwYrmR-399">
          <mxGeometry width="50" height="50" relative="1" as="geometry">
            <mxPoint x="164" y="36.230000000000004" as="sourcePoint" />
            <mxPoint x="164" y="8.229999999999997" as="targetPoint" />
          </mxGeometry>
        </mxCell>
        <mxCell id="oGT1-rxk5gDqi7XwYrmR-128" value="" style="endArrow=none;html=1;rounded=0;strokeColor=#111111;strokeWidth=0.2;sketch=1;curveFitting=1;jiggle=2;" edge="1" parent="oGT1-rxk5gDqi7XwYrmR-399">
          <mxGeometry width="50" height="50" relative="1" as="geometry">
            <mxPoint x="162" y="36.230000000000004" as="sourcePoint" />
            <mxPoint x="162" y="8.229999999999997" as="targetPoint" />
          </mxGeometry>
        </mxCell>
        <mxCell id="oGT1-rxk5gDqi7XwYrmR-129" value="" style="endArrow=none;html=1;rounded=0;strokeColor=#111111;strokeWidth=0.2;sketch=1;curveFitting=1;jiggle=2;" edge="1" parent="oGT1-rxk5gDqi7XwYrmR-399">
          <mxGeometry width="50" height="50" relative="1" as="geometry">
            <mxPoint x="163" y="36.230000000000004" as="sourcePoint" />
            <mxPoint x="163" y="8.229999999999997" as="targetPoint" />
          </mxGeometry>
        </mxCell>
        <mxCell id="oGT1-rxk5gDqi7XwYrmR-130" value="" style="endArrow=none;html=1;rounded=0;strokeColor=#111111;strokeWidth=0.2;sketch=1;curveFitting=1;jiggle=2;" edge="1" parent="oGT1-rxk5gDqi7XwYrmR-399">
          <mxGeometry width="50" height="50" relative="1" as="geometry">
            <mxPoint x="161" y="36.230000000000004" as="sourcePoint" />
            <mxPoint x="161" y="8.229999999999997" as="targetPoint" />
          </mxGeometry>
        </mxCell>
        <mxCell id="oGT1-rxk5gDqi7XwYrmR-131" value="" style="endArrow=none;html=1;rounded=0;strokeColor=#111111;strokeWidth=0.2;sketch=1;curveFitting=1;jiggle=2;" edge="1" parent="oGT1-rxk5gDqi7XwYrmR-399">
          <mxGeometry width="50" height="50" relative="1" as="geometry">
            <mxPoint x="160" y="36.230000000000004" as="sourcePoint" />
            <mxPoint x="160" y="8.229999999999997" as="targetPoint" />
          </mxGeometry>
        </mxCell>
        <mxCell id="oGT1-rxk5gDqi7XwYrmR-132" value="" style="endArrow=none;html=1;rounded=0;strokeColor=#111111;strokeWidth=0.2;sketch=1;curveFitting=1;jiggle=2;" edge="1" parent="oGT1-rxk5gDqi7XwYrmR-399">
          <mxGeometry width="50" height="50" relative="1" as="geometry">
            <mxPoint x="159" y="36.230000000000004" as="sourcePoint" />
            <mxPoint x="159" y="8.229999999999997" as="targetPoint" />
          </mxGeometry>
        </mxCell>
        <mxCell id="oGT1-rxk5gDqi7XwYrmR-133" value="" style="endArrow=none;html=1;rounded=0;strokeColor=#111111;strokeWidth=0.2;sketch=1;curveFitting=1;jiggle=2;" edge="1" parent="oGT1-rxk5gDqi7XwYrmR-399">
          <mxGeometry width="50" height="50" relative="1" as="geometry">
            <mxPoint x="158" y="36.230000000000004" as="sourcePoint" />
            <mxPoint x="158" y="8.229999999999997" as="targetPoint" />
          </mxGeometry>
        </mxCell>
        <mxCell id="oGT1-rxk5gDqi7XwYrmR-134" value="" style="endArrow=none;html=1;rounded=0;strokeColor=#111111;strokeWidth=0.2;sketch=1;curveFitting=1;jiggle=2;" edge="1" parent="oGT1-rxk5gDqi7XwYrmR-399">
          <mxGeometry width="50" height="50" relative="1" as="geometry">
            <mxPoint x="157" y="36.230000000000004" as="sourcePoint" />
            <mxPoint x="157" y="8.229999999999997" as="targetPoint" />
          </mxGeometry>
        </mxCell>
        <mxCell id="oGT1-rxk5gDqi7XwYrmR-135" value="" style="endArrow=none;html=1;rounded=0;strokeColor=#111111;strokeWidth=0.2;sketch=1;curveFitting=1;jiggle=2;" edge="1" parent="oGT1-rxk5gDqi7XwYrmR-399">
          <mxGeometry width="50" height="50" relative="1" as="geometry">
            <mxPoint x="193" y="36.230000000000004" as="sourcePoint" />
            <mxPoint x="193" y="8.229999999999997" as="targetPoint" />
          </mxGeometry>
        </mxCell>
        <mxCell id="oGT1-rxk5gDqi7XwYrmR-136" value="" style="endArrow=none;html=1;rounded=0;strokeColor=#111111;strokeWidth=0.2;sketch=1;curveFitting=1;jiggle=2;" edge="1" parent="oGT1-rxk5gDqi7XwYrmR-399">
          <mxGeometry width="50" height="50" relative="1" as="geometry">
            <mxPoint x="194" y="36.230000000000004" as="sourcePoint" />
            <mxPoint x="194" y="8.229999999999997" as="targetPoint" />
          </mxGeometry>
        </mxCell>
        <mxCell id="oGT1-rxk5gDqi7XwYrmR-137" value="" style="endArrow=none;html=1;rounded=0;strokeColor=#111111;strokeWidth=0.2;sketch=1;curveFitting=1;jiggle=2;" edge="1" parent="oGT1-rxk5gDqi7XwYrmR-399">
          <mxGeometry width="50" height="50" relative="1" as="geometry">
            <mxPoint x="192" y="36.230000000000004" as="sourcePoint" />
            <mxPoint x="192" y="8.229999999999997" as="targetPoint" />
          </mxGeometry>
        </mxCell>
        <mxCell id="oGT1-rxk5gDqi7XwYrmR-138" value="" style="endArrow=none;html=1;rounded=0;strokeColor=#111111;strokeWidth=0.2;sketch=1;curveFitting=1;jiggle=2;" edge="1" parent="oGT1-rxk5gDqi7XwYrmR-399">
          <mxGeometry width="50" height="50" relative="1" as="geometry">
            <mxPoint x="191" y="36.230000000000004" as="sourcePoint" />
            <mxPoint x="191" y="8.229999999999997" as="targetPoint" />
          </mxGeometry>
        </mxCell>
        <mxCell id="oGT1-rxk5gDqi7XwYrmR-139" value="" style="endArrow=none;html=1;rounded=0;strokeColor=#111111;strokeWidth=0.2;sketch=1;curveFitting=1;jiggle=2;" edge="1" parent="oGT1-rxk5gDqi7XwYrmR-399">
          <mxGeometry width="50" height="50" relative="1" as="geometry">
            <mxPoint x="189" y="36.230000000000004" as="sourcePoint" />
            <mxPoint x="189" y="8.229999999999997" as="targetPoint" />
          </mxGeometry>
        </mxCell>
        <mxCell id="oGT1-rxk5gDqi7XwYrmR-140" value="" style="endArrow=none;html=1;rounded=0;strokeColor=#111111;strokeWidth=0.2;sketch=1;curveFitting=1;jiggle=2;" edge="1" parent="oGT1-rxk5gDqi7XwYrmR-399">
          <mxGeometry width="50" height="50" relative="1" as="geometry">
            <mxPoint x="190" y="36.230000000000004" as="sourcePoint" />
            <mxPoint x="190" y="8.229999999999997" as="targetPoint" />
          </mxGeometry>
        </mxCell>
        <mxCell id="oGT1-rxk5gDqi7XwYrmR-141" value="" style="endArrow=none;html=1;rounded=0;strokeColor=#111111;strokeWidth=0.2;sketch=1;curveFitting=1;jiggle=2;" edge="1" parent="oGT1-rxk5gDqi7XwYrmR-399">
          <mxGeometry width="50" height="50" relative="1" as="geometry">
            <mxPoint x="188" y="36.230000000000004" as="sourcePoint" />
            <mxPoint x="188" y="8.229999999999997" as="targetPoint" />
          </mxGeometry>
        </mxCell>
        <mxCell id="oGT1-rxk5gDqi7XwYrmR-142" value="" style="endArrow=none;html=1;rounded=0;strokeColor=#111111;strokeWidth=0.2;sketch=1;curveFitting=1;jiggle=2;" edge="1" parent="oGT1-rxk5gDqi7XwYrmR-399">
          <mxGeometry width="50" height="50" relative="1" as="geometry">
            <mxPoint x="187" y="36.230000000000004" as="sourcePoint" />
            <mxPoint x="187" y="8.229999999999997" as="targetPoint" />
          </mxGeometry>
        </mxCell>
        <mxCell id="oGT1-rxk5gDqi7XwYrmR-143" value="" style="endArrow=none;html=1;rounded=0;strokeColor=#111111;strokeWidth=0.2;sketch=1;curveFitting=1;jiggle=2;" edge="1" parent="oGT1-rxk5gDqi7XwYrmR-399">
          <mxGeometry width="50" height="50" relative="1" as="geometry">
            <mxPoint x="185" y="36.230000000000004" as="sourcePoint" />
            <mxPoint x="185" y="8.229999999999997" as="targetPoint" />
          </mxGeometry>
        </mxCell>
        <mxCell id="oGT1-rxk5gDqi7XwYrmR-144" value="" style="endArrow=none;html=1;rounded=0;strokeColor=#111111;strokeWidth=0.2;sketch=1;curveFitting=1;jiggle=2;" edge="1" parent="oGT1-rxk5gDqi7XwYrmR-399">
          <mxGeometry width="50" height="50" relative="1" as="geometry">
            <mxPoint x="186" y="36.230000000000004" as="sourcePoint" />
            <mxPoint x="186" y="8.229999999999997" as="targetPoint" />
          </mxGeometry>
        </mxCell>
        <mxCell id="oGT1-rxk5gDqi7XwYrmR-145" value="" style="endArrow=none;html=1;rounded=0;strokeColor=#111111;strokeWidth=0.2;sketch=1;curveFitting=1;jiggle=2;" edge="1" parent="oGT1-rxk5gDqi7XwYrmR-399">
          <mxGeometry width="50" height="50" relative="1" as="geometry">
            <mxPoint x="184" y="36.230000000000004" as="sourcePoint" />
            <mxPoint x="184" y="8.229999999999997" as="targetPoint" />
          </mxGeometry>
        </mxCell>
        <mxCell id="oGT1-rxk5gDqi7XwYrmR-146" value="" style="endArrow=none;html=1;rounded=0;strokeColor=#111111;strokeWidth=0.2;sketch=1;curveFitting=1;jiggle=2;" edge="1" parent="oGT1-rxk5gDqi7XwYrmR-399">
          <mxGeometry width="50" height="50" relative="1" as="geometry">
            <mxPoint x="183" y="36.230000000000004" as="sourcePoint" />
            <mxPoint x="183" y="8.229999999999997" as="targetPoint" />
          </mxGeometry>
        </mxCell>
        <mxCell id="oGT1-rxk5gDqi7XwYrmR-147" value="" style="endArrow=none;html=1;rounded=0;strokeColor=#111111;strokeWidth=0.2;sketch=1;curveFitting=1;jiggle=2;" edge="1" parent="oGT1-rxk5gDqi7XwYrmR-399">
          <mxGeometry width="50" height="50" relative="1" as="geometry">
            <mxPoint x="181" y="36.230000000000004" as="sourcePoint" />
            <mxPoint x="181" y="8.229999999999997" as="targetPoint" />
          </mxGeometry>
        </mxCell>
        <mxCell id="oGT1-rxk5gDqi7XwYrmR-148" value="" style="endArrow=none;html=1;rounded=0;strokeColor=#111111;strokeWidth=0.2;sketch=1;curveFitting=1;jiggle=2;" edge="1" parent="oGT1-rxk5gDqi7XwYrmR-399">
          <mxGeometry width="50" height="50" relative="1" as="geometry">
            <mxPoint x="182" y="36.230000000000004" as="sourcePoint" />
            <mxPoint x="182" y="8.229999999999997" as="targetPoint" />
          </mxGeometry>
        </mxCell>
        <mxCell id="oGT1-rxk5gDqi7XwYrmR-149" value="" style="endArrow=none;html=1;rounded=0;strokeColor=#111111;strokeWidth=0.2;sketch=1;curveFitting=1;jiggle=2;" edge="1" parent="oGT1-rxk5gDqi7XwYrmR-399">
          <mxGeometry width="50" height="50" relative="1" as="geometry">
            <mxPoint x="180" y="36.230000000000004" as="sourcePoint" />
            <mxPoint x="180" y="8.229999999999997" as="targetPoint" />
          </mxGeometry>
        </mxCell>
        <mxCell id="oGT1-rxk5gDqi7XwYrmR-150" value="" style="endArrow=none;html=1;rounded=0;strokeColor=#111111;strokeWidth=0.2;sketch=1;curveFitting=1;jiggle=2;" edge="1" parent="oGT1-rxk5gDqi7XwYrmR-399">
          <mxGeometry width="50" height="50" relative="1" as="geometry">
            <mxPoint x="179" y="36.230000000000004" as="sourcePoint" />
            <mxPoint x="179" y="8.229999999999997" as="targetPoint" />
          </mxGeometry>
        </mxCell>
        <mxCell id="oGT1-rxk5gDqi7XwYrmR-151" value="" style="endArrow=none;html=1;rounded=0;strokeColor=#111111;strokeWidth=0.2;sketch=1;curveFitting=1;jiggle=2;" edge="1" parent="oGT1-rxk5gDqi7XwYrmR-399">
          <mxGeometry width="50" height="50" relative="1" as="geometry">
            <mxPoint x="178" y="36.230000000000004" as="sourcePoint" />
            <mxPoint x="178" y="8.229999999999997" as="targetPoint" />
          </mxGeometry>
        </mxCell>
        <mxCell id="oGT1-rxk5gDqi7XwYrmR-152" value="" style="endArrow=none;html=1;rounded=0;strokeColor=#111111;strokeWidth=0.2;sketch=1;curveFitting=1;jiggle=2;" edge="1" parent="oGT1-rxk5gDqi7XwYrmR-399">
          <mxGeometry width="50" height="50" relative="1" as="geometry">
            <mxPoint x="177" y="36.230000000000004" as="sourcePoint" />
            <mxPoint x="177" y="8.229999999999997" as="targetPoint" />
          </mxGeometry>
        </mxCell>
        <mxCell id="oGT1-rxk5gDqi7XwYrmR-153" value="" style="endArrow=none;html=1;rounded=0;strokeColor=#111111;strokeWidth=0.2;sketch=1;curveFitting=1;jiggle=2;" edge="1" parent="oGT1-rxk5gDqi7XwYrmR-399">
          <mxGeometry width="50" height="50" relative="1" as="geometry">
            <mxPoint x="176" y="36.230000000000004" as="sourcePoint" />
            <mxPoint x="176" y="8.229999999999997" as="targetPoint" />
          </mxGeometry>
        </mxCell>
        <mxCell id="oGT1-rxk5gDqi7XwYrmR-154" value="" style="endArrow=none;html=1;rounded=0;strokeColor=#111111;strokeWidth=0.2;sketch=1;curveFitting=1;jiggle=2;" edge="1" parent="oGT1-rxk5gDqi7XwYrmR-399">
          <mxGeometry width="50" height="50" relative="1" as="geometry">
            <mxPoint x="212" y="36.230000000000004" as="sourcePoint" />
            <mxPoint x="212" y="8.229999999999997" as="targetPoint" />
          </mxGeometry>
        </mxCell>
        <mxCell id="oGT1-rxk5gDqi7XwYrmR-155" value="" style="endArrow=none;html=1;rounded=0;strokeColor=#111111;strokeWidth=0.2;sketch=1;curveFitting=1;jiggle=2;" edge="1" parent="oGT1-rxk5gDqi7XwYrmR-399">
          <mxGeometry width="50" height="50" relative="1" as="geometry">
            <mxPoint x="213" y="36.230000000000004" as="sourcePoint" />
            <mxPoint x="213" y="8.229999999999997" as="targetPoint" />
          </mxGeometry>
        </mxCell>
        <mxCell id="oGT1-rxk5gDqi7XwYrmR-156" value="" style="endArrow=none;html=1;rounded=0;strokeColor=#111111;strokeWidth=0.2;sketch=1;curveFitting=1;jiggle=2;" edge="1" parent="oGT1-rxk5gDqi7XwYrmR-399">
          <mxGeometry width="50" height="50" relative="1" as="geometry">
            <mxPoint x="211" y="36.230000000000004" as="sourcePoint" />
            <mxPoint x="211" y="8.229999999999997" as="targetPoint" />
          </mxGeometry>
        </mxCell>
        <mxCell id="oGT1-rxk5gDqi7XwYrmR-157" value="" style="endArrow=none;html=1;rounded=0;strokeColor=#111111;strokeWidth=0.2;sketch=1;curveFitting=1;jiggle=2;" edge="1" parent="oGT1-rxk5gDqi7XwYrmR-399">
          <mxGeometry width="50" height="50" relative="1" as="geometry">
            <mxPoint x="210" y="36.230000000000004" as="sourcePoint" />
            <mxPoint x="210" y="8.229999999999997" as="targetPoint" />
          </mxGeometry>
        </mxCell>
        <mxCell id="oGT1-rxk5gDqi7XwYrmR-158" value="" style="endArrow=none;html=1;rounded=0;strokeColor=#111111;strokeWidth=0.2;sketch=1;curveFitting=1;jiggle=2;" edge="1" parent="oGT1-rxk5gDqi7XwYrmR-399">
          <mxGeometry width="50" height="50" relative="1" as="geometry">
            <mxPoint x="208" y="36.230000000000004" as="sourcePoint" />
            <mxPoint x="208" y="8.229999999999997" as="targetPoint" />
          </mxGeometry>
        </mxCell>
        <mxCell id="oGT1-rxk5gDqi7XwYrmR-159" value="" style="endArrow=none;html=1;rounded=0;strokeColor=#111111;strokeWidth=0.2;sketch=1;curveFitting=1;jiggle=2;" edge="1" parent="oGT1-rxk5gDqi7XwYrmR-399">
          <mxGeometry width="50" height="50" relative="1" as="geometry">
            <mxPoint x="209" y="36.230000000000004" as="sourcePoint" />
            <mxPoint x="209" y="8.229999999999997" as="targetPoint" />
          </mxGeometry>
        </mxCell>
        <mxCell id="oGT1-rxk5gDqi7XwYrmR-160" value="" style="endArrow=none;html=1;rounded=0;strokeColor=#111111;strokeWidth=0.2;sketch=1;curveFitting=1;jiggle=2;" edge="1" parent="oGT1-rxk5gDqi7XwYrmR-399">
          <mxGeometry width="50" height="50" relative="1" as="geometry">
            <mxPoint x="207" y="36.230000000000004" as="sourcePoint" />
            <mxPoint x="207" y="8.229999999999997" as="targetPoint" />
          </mxGeometry>
        </mxCell>
        <mxCell id="oGT1-rxk5gDqi7XwYrmR-161" value="" style="endArrow=none;html=1;rounded=0;strokeColor=#111111;strokeWidth=0.2;sketch=1;curveFitting=1;jiggle=2;" edge="1" parent="oGT1-rxk5gDqi7XwYrmR-399">
          <mxGeometry width="50" height="50" relative="1" as="geometry">
            <mxPoint x="206" y="36.230000000000004" as="sourcePoint" />
            <mxPoint x="206" y="8.229999999999997" as="targetPoint" />
          </mxGeometry>
        </mxCell>
        <mxCell id="oGT1-rxk5gDqi7XwYrmR-162" value="" style="endArrow=none;html=1;rounded=0;strokeColor=#111111;strokeWidth=0.2;sketch=1;curveFitting=1;jiggle=2;" edge="1" parent="oGT1-rxk5gDqi7XwYrmR-399">
          <mxGeometry width="50" height="50" relative="1" as="geometry">
            <mxPoint x="204" y="36.230000000000004" as="sourcePoint" />
            <mxPoint x="204" y="8.229999999999997" as="targetPoint" />
          </mxGeometry>
        </mxCell>
        <mxCell id="oGT1-rxk5gDqi7XwYrmR-163" value="" style="endArrow=none;html=1;rounded=0;strokeColor=#111111;strokeWidth=0.2;sketch=1;curveFitting=1;jiggle=2;" edge="1" parent="oGT1-rxk5gDqi7XwYrmR-399">
          <mxGeometry width="50" height="50" relative="1" as="geometry">
            <mxPoint x="205" y="36.230000000000004" as="sourcePoint" />
            <mxPoint x="205" y="8.229999999999997" as="targetPoint" />
          </mxGeometry>
        </mxCell>
        <mxCell id="oGT1-rxk5gDqi7XwYrmR-164" value="" style="endArrow=none;html=1;rounded=0;strokeColor=#111111;strokeWidth=0.2;sketch=1;curveFitting=1;jiggle=2;" edge="1" parent="oGT1-rxk5gDqi7XwYrmR-399">
          <mxGeometry width="50" height="50" relative="1" as="geometry">
            <mxPoint x="203" y="36.230000000000004" as="sourcePoint" />
            <mxPoint x="203" y="8.229999999999997" as="targetPoint" />
          </mxGeometry>
        </mxCell>
        <mxCell id="oGT1-rxk5gDqi7XwYrmR-165" value="" style="endArrow=none;html=1;rounded=0;strokeColor=#111111;strokeWidth=0.2;sketch=1;curveFitting=1;jiggle=2;" edge="1" parent="oGT1-rxk5gDqi7XwYrmR-399">
          <mxGeometry width="50" height="50" relative="1" as="geometry">
            <mxPoint x="202" y="36.230000000000004" as="sourcePoint" />
            <mxPoint x="202" y="8.229999999999997" as="targetPoint" />
          </mxGeometry>
        </mxCell>
        <mxCell id="oGT1-rxk5gDqi7XwYrmR-166" value="" style="endArrow=none;html=1;rounded=0;strokeColor=#111111;strokeWidth=0.2;sketch=1;curveFitting=1;jiggle=2;" edge="1" parent="oGT1-rxk5gDqi7XwYrmR-399">
          <mxGeometry width="50" height="50" relative="1" as="geometry">
            <mxPoint x="200" y="36.230000000000004" as="sourcePoint" />
            <mxPoint x="200" y="8.229999999999997" as="targetPoint" />
          </mxGeometry>
        </mxCell>
        <mxCell id="oGT1-rxk5gDqi7XwYrmR-167" value="" style="endArrow=none;html=1;rounded=0;strokeColor=#111111;strokeWidth=0.2;sketch=1;curveFitting=1;jiggle=2;" edge="1" parent="oGT1-rxk5gDqi7XwYrmR-399">
          <mxGeometry width="50" height="50" relative="1" as="geometry">
            <mxPoint x="201" y="36.230000000000004" as="sourcePoint" />
            <mxPoint x="201" y="8.229999999999997" as="targetPoint" />
          </mxGeometry>
        </mxCell>
        <mxCell id="oGT1-rxk5gDqi7XwYrmR-168" value="" style="endArrow=none;html=1;rounded=0;strokeColor=#111111;strokeWidth=0.2;sketch=1;curveFitting=1;jiggle=2;" edge="1" parent="oGT1-rxk5gDqi7XwYrmR-399">
          <mxGeometry width="50" height="50" relative="1" as="geometry">
            <mxPoint x="199" y="36.230000000000004" as="sourcePoint" />
            <mxPoint x="199" y="8.229999999999997" as="targetPoint" />
          </mxGeometry>
        </mxCell>
        <mxCell id="oGT1-rxk5gDqi7XwYrmR-169" value="" style="endArrow=none;html=1;rounded=0;strokeColor=#111111;strokeWidth=0.2;sketch=1;curveFitting=1;jiggle=2;" edge="1" parent="oGT1-rxk5gDqi7XwYrmR-399">
          <mxGeometry width="50" height="50" relative="1" as="geometry">
            <mxPoint x="198" y="36.230000000000004" as="sourcePoint" />
            <mxPoint x="198" y="8.229999999999997" as="targetPoint" />
          </mxGeometry>
        </mxCell>
        <mxCell id="oGT1-rxk5gDqi7XwYrmR-170" value="" style="endArrow=none;html=1;rounded=0;strokeColor=#111111;strokeWidth=0.2;sketch=1;curveFitting=1;jiggle=2;" edge="1" parent="oGT1-rxk5gDqi7XwYrmR-399">
          <mxGeometry width="50" height="50" relative="1" as="geometry">
            <mxPoint x="197" y="36.230000000000004" as="sourcePoint" />
            <mxPoint x="197" y="8.229999999999997" as="targetPoint" />
          </mxGeometry>
        </mxCell>
        <mxCell id="oGT1-rxk5gDqi7XwYrmR-171" value="" style="endArrow=none;html=1;rounded=0;strokeColor=#111111;strokeWidth=0.2;sketch=1;curveFitting=1;jiggle=2;" edge="1" parent="oGT1-rxk5gDqi7XwYrmR-399">
          <mxGeometry width="50" height="50" relative="1" as="geometry">
            <mxPoint x="196" y="36.230000000000004" as="sourcePoint" />
            <mxPoint x="196" y="8.229999999999997" as="targetPoint" />
          </mxGeometry>
        </mxCell>
        <mxCell id="oGT1-rxk5gDqi7XwYrmR-172" value="" style="endArrow=none;html=1;rounded=0;strokeColor=#111111;strokeWidth=0.2;sketch=1;curveFitting=1;jiggle=2;" edge="1" parent="oGT1-rxk5gDqi7XwYrmR-399">
          <mxGeometry width="50" height="50" relative="1" as="geometry">
            <mxPoint x="195" y="36.230000000000004" as="sourcePoint" />
            <mxPoint x="195" y="8.229999999999997" as="targetPoint" />
          </mxGeometry>
        </mxCell>
        <mxCell id="oGT1-rxk5gDqi7XwYrmR-173" value="" style="endArrow=none;html=1;rounded=0;strokeColor=#111111;strokeWidth=0.2;sketch=1;curveFitting=1;jiggle=2;" edge="1" parent="oGT1-rxk5gDqi7XwYrmR-399">
          <mxGeometry width="50" height="50" relative="1" as="geometry">
            <mxPoint x="231" y="36.230000000000004" as="sourcePoint" />
            <mxPoint x="231" y="8.229999999999997" as="targetPoint" />
          </mxGeometry>
        </mxCell>
        <mxCell id="oGT1-rxk5gDqi7XwYrmR-174" value="" style="endArrow=none;html=1;rounded=0;strokeColor=#111111;strokeWidth=0.2;sketch=1;curveFitting=1;jiggle=2;" edge="1" parent="oGT1-rxk5gDqi7XwYrmR-399">
          <mxGeometry width="50" height="50" relative="1" as="geometry">
            <mxPoint x="232" y="36.230000000000004" as="sourcePoint" />
            <mxPoint x="232" y="8.229999999999997" as="targetPoint" />
          </mxGeometry>
        </mxCell>
        <mxCell id="oGT1-rxk5gDqi7XwYrmR-175" value="" style="endArrow=none;html=1;rounded=0;strokeColor=#111111;strokeWidth=0.2;sketch=1;curveFitting=1;jiggle=2;" edge="1" parent="oGT1-rxk5gDqi7XwYrmR-399">
          <mxGeometry width="50" height="50" relative="1" as="geometry">
            <mxPoint x="230" y="36.230000000000004" as="sourcePoint" />
            <mxPoint x="230" y="8.229999999999997" as="targetPoint" />
          </mxGeometry>
        </mxCell>
        <mxCell id="oGT1-rxk5gDqi7XwYrmR-176" value="" style="endArrow=none;html=1;rounded=0;strokeColor=#111111;strokeWidth=0.2;sketch=1;curveFitting=1;jiggle=2;" edge="1" parent="oGT1-rxk5gDqi7XwYrmR-399">
          <mxGeometry width="50" height="50" relative="1" as="geometry">
            <mxPoint x="229" y="36.230000000000004" as="sourcePoint" />
            <mxPoint x="229" y="8.229999999999997" as="targetPoint" />
          </mxGeometry>
        </mxCell>
        <mxCell id="oGT1-rxk5gDqi7XwYrmR-177" value="" style="endArrow=none;html=1;rounded=0;strokeColor=#111111;strokeWidth=0.2;sketch=1;curveFitting=1;jiggle=2;" edge="1" parent="oGT1-rxk5gDqi7XwYrmR-399">
          <mxGeometry width="50" height="50" relative="1" as="geometry">
            <mxPoint x="227" y="36.230000000000004" as="sourcePoint" />
            <mxPoint x="227" y="8.229999999999997" as="targetPoint" />
          </mxGeometry>
        </mxCell>
        <mxCell id="oGT1-rxk5gDqi7XwYrmR-178" value="" style="endArrow=none;html=1;rounded=0;strokeColor=#111111;strokeWidth=0.2;sketch=1;curveFitting=1;jiggle=2;" edge="1" parent="oGT1-rxk5gDqi7XwYrmR-399">
          <mxGeometry width="50" height="50" relative="1" as="geometry">
            <mxPoint x="228" y="36.230000000000004" as="sourcePoint" />
            <mxPoint x="228" y="8.229999999999997" as="targetPoint" />
          </mxGeometry>
        </mxCell>
        <mxCell id="oGT1-rxk5gDqi7XwYrmR-179" value="" style="endArrow=none;html=1;rounded=0;strokeColor=#111111;strokeWidth=0.2;sketch=1;curveFitting=1;jiggle=2;" edge="1" parent="oGT1-rxk5gDqi7XwYrmR-399">
          <mxGeometry width="50" height="50" relative="1" as="geometry">
            <mxPoint x="226" y="36.230000000000004" as="sourcePoint" />
            <mxPoint x="226" y="8.229999999999997" as="targetPoint" />
          </mxGeometry>
        </mxCell>
        <mxCell id="oGT1-rxk5gDqi7XwYrmR-180" value="" style="endArrow=none;html=1;rounded=0;strokeColor=#111111;strokeWidth=0.2;sketch=1;curveFitting=1;jiggle=2;" edge="1" parent="oGT1-rxk5gDqi7XwYrmR-399">
          <mxGeometry width="50" height="50" relative="1" as="geometry">
            <mxPoint x="225" y="36.230000000000004" as="sourcePoint" />
            <mxPoint x="225" y="8.229999999999997" as="targetPoint" />
          </mxGeometry>
        </mxCell>
        <mxCell id="oGT1-rxk5gDqi7XwYrmR-181" value="" style="endArrow=none;html=1;rounded=0;strokeColor=#111111;strokeWidth=0.2;sketch=1;curveFitting=1;jiggle=2;" edge="1" parent="oGT1-rxk5gDqi7XwYrmR-399">
          <mxGeometry width="50" height="50" relative="1" as="geometry">
            <mxPoint x="223" y="36.230000000000004" as="sourcePoint" />
            <mxPoint x="223" y="8.229999999999997" as="targetPoint" />
          </mxGeometry>
        </mxCell>
        <mxCell id="oGT1-rxk5gDqi7XwYrmR-182" value="" style="endArrow=none;html=1;rounded=0;strokeColor=#111111;strokeWidth=0.2;sketch=1;curveFitting=1;jiggle=2;" edge="1" parent="oGT1-rxk5gDqi7XwYrmR-399">
          <mxGeometry width="50" height="50" relative="1" as="geometry">
            <mxPoint x="224" y="36.230000000000004" as="sourcePoint" />
            <mxPoint x="224" y="8.229999999999997" as="targetPoint" />
          </mxGeometry>
        </mxCell>
        <mxCell id="oGT1-rxk5gDqi7XwYrmR-183" value="" style="endArrow=none;html=1;rounded=0;strokeColor=#111111;strokeWidth=0.2;sketch=1;curveFitting=1;jiggle=2;" edge="1" parent="oGT1-rxk5gDqi7XwYrmR-399">
          <mxGeometry width="50" height="50" relative="1" as="geometry">
            <mxPoint x="222" y="36.230000000000004" as="sourcePoint" />
            <mxPoint x="222" y="8.229999999999997" as="targetPoint" />
          </mxGeometry>
        </mxCell>
        <mxCell id="oGT1-rxk5gDqi7XwYrmR-184" value="" style="endArrow=none;html=1;rounded=0;strokeColor=#111111;strokeWidth=0.2;sketch=1;curveFitting=1;jiggle=2;" edge="1" parent="oGT1-rxk5gDqi7XwYrmR-399">
          <mxGeometry width="50" height="50" relative="1" as="geometry">
            <mxPoint x="221" y="36.230000000000004" as="sourcePoint" />
            <mxPoint x="221" y="8.229999999999997" as="targetPoint" />
          </mxGeometry>
        </mxCell>
        <mxCell id="oGT1-rxk5gDqi7XwYrmR-185" value="" style="endArrow=none;html=1;rounded=0;strokeColor=#111111;strokeWidth=0.2;sketch=1;curveFitting=1;jiggle=2;" edge="1" parent="oGT1-rxk5gDqi7XwYrmR-399">
          <mxGeometry width="50" height="50" relative="1" as="geometry">
            <mxPoint x="219" y="36.230000000000004" as="sourcePoint" />
            <mxPoint x="219" y="8.229999999999997" as="targetPoint" />
          </mxGeometry>
        </mxCell>
        <mxCell id="oGT1-rxk5gDqi7XwYrmR-186" value="" style="endArrow=none;html=1;rounded=0;strokeColor=#111111;strokeWidth=0.2;sketch=1;curveFitting=1;jiggle=2;" edge="1" parent="oGT1-rxk5gDqi7XwYrmR-399">
          <mxGeometry width="50" height="50" relative="1" as="geometry">
            <mxPoint x="220" y="36.230000000000004" as="sourcePoint" />
            <mxPoint x="220" y="8.229999999999997" as="targetPoint" />
          </mxGeometry>
        </mxCell>
        <mxCell id="oGT1-rxk5gDqi7XwYrmR-187" value="" style="endArrow=none;html=1;rounded=0;strokeColor=#111111;strokeWidth=0.2;sketch=1;curveFitting=1;jiggle=2;" edge="1" parent="oGT1-rxk5gDqi7XwYrmR-399">
          <mxGeometry width="50" height="50" relative="1" as="geometry">
            <mxPoint x="218" y="36.230000000000004" as="sourcePoint" />
            <mxPoint x="218" y="8.229999999999997" as="targetPoint" />
          </mxGeometry>
        </mxCell>
        <mxCell id="oGT1-rxk5gDqi7XwYrmR-188" value="" style="endArrow=none;html=1;rounded=0;strokeColor=#111111;strokeWidth=0.2;sketch=1;curveFitting=1;jiggle=2;" edge="1" parent="oGT1-rxk5gDqi7XwYrmR-399">
          <mxGeometry width="50" height="50" relative="1" as="geometry">
            <mxPoint x="217" y="36.230000000000004" as="sourcePoint" />
            <mxPoint x="217" y="8.229999999999997" as="targetPoint" />
          </mxGeometry>
        </mxCell>
        <mxCell id="oGT1-rxk5gDqi7XwYrmR-189" value="" style="endArrow=none;html=1;rounded=0;strokeColor=#111111;strokeWidth=0.2;sketch=1;curveFitting=1;jiggle=2;" edge="1" parent="oGT1-rxk5gDqi7XwYrmR-399">
          <mxGeometry width="50" height="50" relative="1" as="geometry">
            <mxPoint x="216" y="36.230000000000004" as="sourcePoint" />
            <mxPoint x="216" y="8.229999999999997" as="targetPoint" />
          </mxGeometry>
        </mxCell>
        <mxCell id="oGT1-rxk5gDqi7XwYrmR-190" value="" style="endArrow=none;html=1;rounded=0;strokeColor=#111111;strokeWidth=0.2;sketch=1;curveFitting=1;jiggle=2;" edge="1" parent="oGT1-rxk5gDqi7XwYrmR-399">
          <mxGeometry width="50" height="50" relative="1" as="geometry">
            <mxPoint x="215" y="36.230000000000004" as="sourcePoint" />
            <mxPoint x="215" y="8.229999999999997" as="targetPoint" />
          </mxGeometry>
        </mxCell>
        <mxCell id="oGT1-rxk5gDqi7XwYrmR-191" value="" style="endArrow=none;html=1;rounded=0;strokeColor=#111111;strokeWidth=0.2;sketch=1;curveFitting=1;jiggle=2;" edge="1" parent="oGT1-rxk5gDqi7XwYrmR-399">
          <mxGeometry width="50" height="50" relative="1" as="geometry">
            <mxPoint x="214" y="36.230000000000004" as="sourcePoint" />
            <mxPoint x="214" y="8.229999999999997" as="targetPoint" />
          </mxGeometry>
        </mxCell>
        <mxCell id="oGT1-rxk5gDqi7XwYrmR-192" value="" style="endArrow=none;html=1;rounded=0;strokeColor=#111111;strokeWidth=0.2;sketch=1;curveFitting=1;jiggle=2;" edge="1" parent="oGT1-rxk5gDqi7XwYrmR-399">
          <mxGeometry width="50" height="50" relative="1" as="geometry">
            <mxPoint x="250" y="36.230000000000004" as="sourcePoint" />
            <mxPoint x="250" y="8.229999999999997" as="targetPoint" />
          </mxGeometry>
        </mxCell>
        <mxCell id="oGT1-rxk5gDqi7XwYrmR-193" value="" style="endArrow=none;html=1;rounded=0;strokeColor=#111111;strokeWidth=0.2;sketch=1;curveFitting=1;jiggle=2;" edge="1" parent="oGT1-rxk5gDqi7XwYrmR-399">
          <mxGeometry width="50" height="50" relative="1" as="geometry">
            <mxPoint x="251" y="36.230000000000004" as="sourcePoint" />
            <mxPoint x="251" y="8.229999999999997" as="targetPoint" />
          </mxGeometry>
        </mxCell>
        <mxCell id="oGT1-rxk5gDqi7XwYrmR-194" value="" style="endArrow=none;html=1;rounded=0;strokeColor=#111111;strokeWidth=0.2;sketch=1;curveFitting=1;jiggle=2;" edge="1" parent="oGT1-rxk5gDqi7XwYrmR-399">
          <mxGeometry width="50" height="50" relative="1" as="geometry">
            <mxPoint x="249" y="36.230000000000004" as="sourcePoint" />
            <mxPoint x="249" y="8.229999999999997" as="targetPoint" />
          </mxGeometry>
        </mxCell>
        <mxCell id="oGT1-rxk5gDqi7XwYrmR-195" value="" style="endArrow=none;html=1;rounded=0;strokeColor=#111111;strokeWidth=0.2;sketch=1;curveFitting=1;jiggle=2;" edge="1" parent="oGT1-rxk5gDqi7XwYrmR-399">
          <mxGeometry width="50" height="50" relative="1" as="geometry">
            <mxPoint x="248" y="36.230000000000004" as="sourcePoint" />
            <mxPoint x="248" y="8.229999999999997" as="targetPoint" />
          </mxGeometry>
        </mxCell>
        <mxCell id="oGT1-rxk5gDqi7XwYrmR-196" value="" style="endArrow=none;html=1;rounded=0;strokeColor=#111111;strokeWidth=0.2;sketch=1;curveFitting=1;jiggle=2;" edge="1" parent="oGT1-rxk5gDqi7XwYrmR-399">
          <mxGeometry width="50" height="50" relative="1" as="geometry">
            <mxPoint x="246" y="36.230000000000004" as="sourcePoint" />
            <mxPoint x="246" y="8.229999999999997" as="targetPoint" />
          </mxGeometry>
        </mxCell>
        <mxCell id="oGT1-rxk5gDqi7XwYrmR-197" value="" style="endArrow=none;html=1;rounded=0;strokeColor=#111111;strokeWidth=0.2;sketch=1;curveFitting=1;jiggle=2;" edge="1" parent="oGT1-rxk5gDqi7XwYrmR-399">
          <mxGeometry width="50" height="50" relative="1" as="geometry">
            <mxPoint x="247" y="36.230000000000004" as="sourcePoint" />
            <mxPoint x="247" y="8.229999999999997" as="targetPoint" />
          </mxGeometry>
        </mxCell>
        <mxCell id="oGT1-rxk5gDqi7XwYrmR-198" value="" style="endArrow=none;html=1;rounded=0;strokeColor=#111111;strokeWidth=0.2;sketch=1;curveFitting=1;jiggle=2;" edge="1" parent="oGT1-rxk5gDqi7XwYrmR-399">
          <mxGeometry width="50" height="50" relative="1" as="geometry">
            <mxPoint x="245" y="36.230000000000004" as="sourcePoint" />
            <mxPoint x="245" y="8.229999999999997" as="targetPoint" />
          </mxGeometry>
        </mxCell>
        <mxCell id="oGT1-rxk5gDqi7XwYrmR-199" value="" style="endArrow=none;html=1;rounded=0;strokeColor=#111111;strokeWidth=0.2;sketch=1;curveFitting=1;jiggle=2;" edge="1" parent="oGT1-rxk5gDqi7XwYrmR-399">
          <mxGeometry width="50" height="50" relative="1" as="geometry">
            <mxPoint x="244" y="36.230000000000004" as="sourcePoint" />
            <mxPoint x="244" y="8.229999999999997" as="targetPoint" />
          </mxGeometry>
        </mxCell>
        <mxCell id="oGT1-rxk5gDqi7XwYrmR-200" value="" style="endArrow=none;html=1;rounded=0;strokeColor=#111111;strokeWidth=0.2;sketch=1;curveFitting=1;jiggle=2;" edge="1" parent="oGT1-rxk5gDqi7XwYrmR-399">
          <mxGeometry width="50" height="50" relative="1" as="geometry">
            <mxPoint x="242" y="36.230000000000004" as="sourcePoint" />
            <mxPoint x="242" y="8.229999999999997" as="targetPoint" />
          </mxGeometry>
        </mxCell>
        <mxCell id="oGT1-rxk5gDqi7XwYrmR-201" value="" style="endArrow=none;html=1;rounded=0;strokeColor=#111111;strokeWidth=0.2;sketch=1;curveFitting=1;jiggle=2;" edge="1" parent="oGT1-rxk5gDqi7XwYrmR-399">
          <mxGeometry width="50" height="50" relative="1" as="geometry">
            <mxPoint x="243" y="36.230000000000004" as="sourcePoint" />
            <mxPoint x="243" y="8.229999999999997" as="targetPoint" />
          </mxGeometry>
        </mxCell>
        <mxCell id="oGT1-rxk5gDqi7XwYrmR-202" value="" style="endArrow=none;html=1;rounded=0;strokeColor=#111111;strokeWidth=0.2;sketch=1;curveFitting=1;jiggle=2;" edge="1" parent="oGT1-rxk5gDqi7XwYrmR-399">
          <mxGeometry width="50" height="50" relative="1" as="geometry">
            <mxPoint x="241" y="36.230000000000004" as="sourcePoint" />
            <mxPoint x="241" y="8.229999999999997" as="targetPoint" />
          </mxGeometry>
        </mxCell>
        <mxCell id="oGT1-rxk5gDqi7XwYrmR-203" value="" style="endArrow=none;html=1;rounded=0;strokeColor=#111111;strokeWidth=0.2;sketch=1;curveFitting=1;jiggle=2;" edge="1" parent="oGT1-rxk5gDqi7XwYrmR-399">
          <mxGeometry width="50" height="50" relative="1" as="geometry">
            <mxPoint x="240" y="36.230000000000004" as="sourcePoint" />
            <mxPoint x="240" y="8.229999999999997" as="targetPoint" />
          </mxGeometry>
        </mxCell>
        <mxCell id="oGT1-rxk5gDqi7XwYrmR-204" value="" style="endArrow=none;html=1;rounded=0;strokeColor=#111111;strokeWidth=0.2;sketch=1;curveFitting=1;jiggle=2;" edge="1" parent="oGT1-rxk5gDqi7XwYrmR-399">
          <mxGeometry width="50" height="50" relative="1" as="geometry">
            <mxPoint x="238" y="36.230000000000004" as="sourcePoint" />
            <mxPoint x="238" y="8.229999999999997" as="targetPoint" />
          </mxGeometry>
        </mxCell>
        <mxCell id="oGT1-rxk5gDqi7XwYrmR-205" value="" style="endArrow=none;html=1;rounded=0;strokeColor=#111111;strokeWidth=0.2;sketch=1;curveFitting=1;jiggle=2;" edge="1" parent="oGT1-rxk5gDqi7XwYrmR-399">
          <mxGeometry width="50" height="50" relative="1" as="geometry">
            <mxPoint x="239" y="36.230000000000004" as="sourcePoint" />
            <mxPoint x="239" y="8.229999999999997" as="targetPoint" />
          </mxGeometry>
        </mxCell>
        <mxCell id="oGT1-rxk5gDqi7XwYrmR-206" value="" style="endArrow=none;html=1;rounded=0;strokeColor=#111111;strokeWidth=0.2;sketch=1;curveFitting=1;jiggle=2;" edge="1" parent="oGT1-rxk5gDqi7XwYrmR-399">
          <mxGeometry width="50" height="50" relative="1" as="geometry">
            <mxPoint x="237" y="36.230000000000004" as="sourcePoint" />
            <mxPoint x="237" y="8.229999999999997" as="targetPoint" />
          </mxGeometry>
        </mxCell>
        <mxCell id="oGT1-rxk5gDqi7XwYrmR-207" value="" style="endArrow=none;html=1;rounded=0;strokeColor=#111111;strokeWidth=0.2;sketch=1;curveFitting=1;jiggle=2;" edge="1" parent="oGT1-rxk5gDqi7XwYrmR-399">
          <mxGeometry width="50" height="50" relative="1" as="geometry">
            <mxPoint x="236" y="36.230000000000004" as="sourcePoint" />
            <mxPoint x="236" y="8.229999999999997" as="targetPoint" />
          </mxGeometry>
        </mxCell>
        <mxCell id="oGT1-rxk5gDqi7XwYrmR-208" value="" style="endArrow=none;html=1;rounded=0;strokeColor=#111111;strokeWidth=0.2;sketch=1;curveFitting=1;jiggle=2;" edge="1" parent="oGT1-rxk5gDqi7XwYrmR-399">
          <mxGeometry width="50" height="50" relative="1" as="geometry">
            <mxPoint x="235" y="36.230000000000004" as="sourcePoint" />
            <mxPoint x="235" y="8.229999999999997" as="targetPoint" />
          </mxGeometry>
        </mxCell>
        <mxCell id="oGT1-rxk5gDqi7XwYrmR-209" value="" style="endArrow=none;html=1;rounded=0;strokeColor=#111111;strokeWidth=0.2;sketch=1;curveFitting=1;jiggle=2;" edge="1" parent="oGT1-rxk5gDqi7XwYrmR-399">
          <mxGeometry width="50" height="50" relative="1" as="geometry">
            <mxPoint x="234" y="36.230000000000004" as="sourcePoint" />
            <mxPoint x="234" y="8.229999999999997" as="targetPoint" />
          </mxGeometry>
        </mxCell>
        <mxCell id="oGT1-rxk5gDqi7XwYrmR-210" value="" style="endArrow=none;html=1;rounded=0;strokeColor=#111111;strokeWidth=0.2;sketch=1;curveFitting=1;jiggle=2;" edge="1" parent="oGT1-rxk5gDqi7XwYrmR-399">
          <mxGeometry width="50" height="50" relative="1" as="geometry">
            <mxPoint x="233" y="36.230000000000004" as="sourcePoint" />
            <mxPoint x="233" y="8.229999999999997" as="targetPoint" />
          </mxGeometry>
        </mxCell>
        <mxCell id="oGT1-rxk5gDqi7XwYrmR-211" value="" style="endArrow=none;html=1;rounded=0;strokeColor=#111111;strokeWidth=0.2;sketch=1;curveFitting=1;jiggle=2;" edge="1" parent="oGT1-rxk5gDqi7XwYrmR-399">
          <mxGeometry width="50" height="50" relative="1" as="geometry">
            <mxPoint x="269" y="36.230000000000004" as="sourcePoint" />
            <mxPoint x="269" y="8.229999999999997" as="targetPoint" />
          </mxGeometry>
        </mxCell>
        <mxCell id="oGT1-rxk5gDqi7XwYrmR-212" value="" style="endArrow=none;html=1;rounded=0;strokeColor=#111111;strokeWidth=0.2;sketch=1;curveFitting=1;jiggle=2;" edge="1" parent="oGT1-rxk5gDqi7XwYrmR-399">
          <mxGeometry width="50" height="50" relative="1" as="geometry">
            <mxPoint x="270" y="36.230000000000004" as="sourcePoint" />
            <mxPoint x="270" y="8.229999999999997" as="targetPoint" />
          </mxGeometry>
        </mxCell>
        <mxCell id="oGT1-rxk5gDqi7XwYrmR-213" value="" style="endArrow=none;html=1;rounded=0;strokeColor=#111111;strokeWidth=0.2;sketch=1;curveFitting=1;jiggle=2;" edge="1" parent="oGT1-rxk5gDqi7XwYrmR-399">
          <mxGeometry width="50" height="50" relative="1" as="geometry">
            <mxPoint x="268" y="36.230000000000004" as="sourcePoint" />
            <mxPoint x="268" y="8.229999999999997" as="targetPoint" />
          </mxGeometry>
        </mxCell>
        <mxCell id="oGT1-rxk5gDqi7XwYrmR-214" value="" style="endArrow=none;html=1;rounded=0;strokeColor=#111111;strokeWidth=0.2;sketch=1;curveFitting=1;jiggle=2;" edge="1" parent="oGT1-rxk5gDqi7XwYrmR-399">
          <mxGeometry width="50" height="50" relative="1" as="geometry">
            <mxPoint x="267" y="36.230000000000004" as="sourcePoint" />
            <mxPoint x="267" y="8.229999999999997" as="targetPoint" />
          </mxGeometry>
        </mxCell>
        <mxCell id="oGT1-rxk5gDqi7XwYrmR-215" value="" style="endArrow=none;html=1;rounded=0;strokeColor=#111111;strokeWidth=0.2;sketch=1;curveFitting=1;jiggle=2;" edge="1" parent="oGT1-rxk5gDqi7XwYrmR-399">
          <mxGeometry width="50" height="50" relative="1" as="geometry">
            <mxPoint x="265" y="36.230000000000004" as="sourcePoint" />
            <mxPoint x="265" y="8.229999999999997" as="targetPoint" />
          </mxGeometry>
        </mxCell>
        <mxCell id="oGT1-rxk5gDqi7XwYrmR-216" value="" style="endArrow=none;html=1;rounded=0;strokeColor=#111111;strokeWidth=0.2;sketch=1;curveFitting=1;jiggle=2;" edge="1" parent="oGT1-rxk5gDqi7XwYrmR-399">
          <mxGeometry width="50" height="50" relative="1" as="geometry">
            <mxPoint x="266" y="36.230000000000004" as="sourcePoint" />
            <mxPoint x="266" y="8.229999999999997" as="targetPoint" />
          </mxGeometry>
        </mxCell>
        <mxCell id="oGT1-rxk5gDqi7XwYrmR-217" value="" style="endArrow=none;html=1;rounded=0;strokeColor=#111111;strokeWidth=0.2;sketch=1;curveFitting=1;jiggle=2;" edge="1" parent="oGT1-rxk5gDqi7XwYrmR-399">
          <mxGeometry width="50" height="50" relative="1" as="geometry">
            <mxPoint x="264" y="36.230000000000004" as="sourcePoint" />
            <mxPoint x="264" y="8.229999999999997" as="targetPoint" />
          </mxGeometry>
        </mxCell>
        <mxCell id="oGT1-rxk5gDqi7XwYrmR-218" value="" style="endArrow=none;html=1;rounded=0;strokeColor=#111111;strokeWidth=0.2;sketch=1;curveFitting=1;jiggle=2;" edge="1" parent="oGT1-rxk5gDqi7XwYrmR-399">
          <mxGeometry width="50" height="50" relative="1" as="geometry">
            <mxPoint x="263" y="36.230000000000004" as="sourcePoint" />
            <mxPoint x="263" y="8.229999999999997" as="targetPoint" />
          </mxGeometry>
        </mxCell>
        <mxCell id="oGT1-rxk5gDqi7XwYrmR-219" value="" style="endArrow=none;html=1;rounded=0;strokeColor=#111111;strokeWidth=0.2;sketch=1;curveFitting=1;jiggle=2;" edge="1" parent="oGT1-rxk5gDqi7XwYrmR-399">
          <mxGeometry width="50" height="50" relative="1" as="geometry">
            <mxPoint x="261" y="36.230000000000004" as="sourcePoint" />
            <mxPoint x="261" y="8.229999999999997" as="targetPoint" />
          </mxGeometry>
        </mxCell>
        <mxCell id="oGT1-rxk5gDqi7XwYrmR-220" value="" style="endArrow=none;html=1;rounded=0;strokeColor=#111111;strokeWidth=0.2;sketch=1;curveFitting=1;jiggle=2;" edge="1" parent="oGT1-rxk5gDqi7XwYrmR-399">
          <mxGeometry width="50" height="50" relative="1" as="geometry">
            <mxPoint x="262" y="36.230000000000004" as="sourcePoint" />
            <mxPoint x="262" y="8.229999999999997" as="targetPoint" />
          </mxGeometry>
        </mxCell>
        <mxCell id="oGT1-rxk5gDqi7XwYrmR-221" value="" style="endArrow=none;html=1;rounded=0;strokeColor=#111111;strokeWidth=0.2;sketch=1;curveFitting=1;jiggle=2;" edge="1" parent="oGT1-rxk5gDqi7XwYrmR-399">
          <mxGeometry width="50" height="50" relative="1" as="geometry">
            <mxPoint x="260" y="36.230000000000004" as="sourcePoint" />
            <mxPoint x="260" y="8.229999999999997" as="targetPoint" />
          </mxGeometry>
        </mxCell>
        <mxCell id="oGT1-rxk5gDqi7XwYrmR-222" value="" style="endArrow=none;html=1;rounded=0;strokeColor=#111111;strokeWidth=0.2;sketch=1;curveFitting=1;jiggle=2;" edge="1" parent="oGT1-rxk5gDqi7XwYrmR-399">
          <mxGeometry width="50" height="50" relative="1" as="geometry">
            <mxPoint x="259" y="36.230000000000004" as="sourcePoint" />
            <mxPoint x="259" y="8.229999999999997" as="targetPoint" />
          </mxGeometry>
        </mxCell>
        <mxCell id="oGT1-rxk5gDqi7XwYrmR-223" value="" style="endArrow=none;html=1;rounded=0;strokeColor=#111111;strokeWidth=0.2;sketch=1;curveFitting=1;jiggle=2;" edge="1" parent="oGT1-rxk5gDqi7XwYrmR-399">
          <mxGeometry width="50" height="50" relative="1" as="geometry">
            <mxPoint x="257" y="36.230000000000004" as="sourcePoint" />
            <mxPoint x="257" y="8.229999999999997" as="targetPoint" />
          </mxGeometry>
        </mxCell>
        <mxCell id="oGT1-rxk5gDqi7XwYrmR-224" value="" style="endArrow=none;html=1;rounded=0;strokeColor=#111111;strokeWidth=0.2;sketch=1;curveFitting=1;jiggle=2;" edge="1" parent="oGT1-rxk5gDqi7XwYrmR-399">
          <mxGeometry width="50" height="50" relative="1" as="geometry">
            <mxPoint x="258" y="36.230000000000004" as="sourcePoint" />
            <mxPoint x="258" y="8.229999999999997" as="targetPoint" />
          </mxGeometry>
        </mxCell>
        <mxCell id="oGT1-rxk5gDqi7XwYrmR-225" value="" style="endArrow=none;html=1;rounded=0;strokeColor=#111111;strokeWidth=0.2;sketch=1;curveFitting=1;jiggle=2;" edge="1" parent="oGT1-rxk5gDqi7XwYrmR-399">
          <mxGeometry width="50" height="50" relative="1" as="geometry">
            <mxPoint x="256" y="36.230000000000004" as="sourcePoint" />
            <mxPoint x="256" y="8.229999999999997" as="targetPoint" />
          </mxGeometry>
        </mxCell>
        <mxCell id="oGT1-rxk5gDqi7XwYrmR-226" value="" style="endArrow=none;html=1;rounded=0;strokeColor=#111111;strokeWidth=0.2;sketch=1;curveFitting=1;jiggle=2;" edge="1" parent="oGT1-rxk5gDqi7XwYrmR-399">
          <mxGeometry width="50" height="50" relative="1" as="geometry">
            <mxPoint x="255" y="36.230000000000004" as="sourcePoint" />
            <mxPoint x="255" y="8.229999999999997" as="targetPoint" />
          </mxGeometry>
        </mxCell>
        <mxCell id="oGT1-rxk5gDqi7XwYrmR-227" value="" style="endArrow=none;html=1;rounded=0;strokeColor=#111111;strokeWidth=0.2;sketch=1;curveFitting=1;jiggle=2;" edge="1" parent="oGT1-rxk5gDqi7XwYrmR-399">
          <mxGeometry width="50" height="50" relative="1" as="geometry">
            <mxPoint x="254" y="36.230000000000004" as="sourcePoint" />
            <mxPoint x="254" y="8.229999999999997" as="targetPoint" />
          </mxGeometry>
        </mxCell>
        <mxCell id="oGT1-rxk5gDqi7XwYrmR-228" value="" style="endArrow=none;html=1;rounded=0;strokeColor=#111111;strokeWidth=0.2;sketch=1;curveFitting=1;jiggle=2;" edge="1" parent="oGT1-rxk5gDqi7XwYrmR-399">
          <mxGeometry width="50" height="50" relative="1" as="geometry">
            <mxPoint x="253" y="36.230000000000004" as="sourcePoint" />
            <mxPoint x="253" y="8.229999999999997" as="targetPoint" />
          </mxGeometry>
        </mxCell>
        <mxCell id="oGT1-rxk5gDqi7XwYrmR-229" value="" style="endArrow=none;html=1;rounded=0;strokeColor=#111111;strokeWidth=0.2;sketch=1;curveFitting=1;jiggle=2;" edge="1" parent="oGT1-rxk5gDqi7XwYrmR-399">
          <mxGeometry width="50" height="50" relative="1" as="geometry">
            <mxPoint x="252" y="36.230000000000004" as="sourcePoint" />
            <mxPoint x="252" y="8.229999999999997" as="targetPoint" />
          </mxGeometry>
        </mxCell>
        <mxCell id="oGT1-rxk5gDqi7XwYrmR-230" value="" style="endArrow=none;html=1;rounded=0;strokeColor=#111111;strokeWidth=0.2;sketch=1;curveFitting=1;jiggle=2;" edge="1" parent="oGT1-rxk5gDqi7XwYrmR-399">
          <mxGeometry width="50" height="50" relative="1" as="geometry">
            <mxPoint x="288" y="36.230000000000004" as="sourcePoint" />
            <mxPoint x="288" y="8.229999999999997" as="targetPoint" />
          </mxGeometry>
        </mxCell>
        <mxCell id="oGT1-rxk5gDqi7XwYrmR-231" value="" style="endArrow=none;html=1;rounded=0;strokeColor=#111111;strokeWidth=0.2;sketch=1;curveFitting=1;jiggle=2;" edge="1" parent="oGT1-rxk5gDqi7XwYrmR-399">
          <mxGeometry width="50" height="50" relative="1" as="geometry">
            <mxPoint x="289" y="36.230000000000004" as="sourcePoint" />
            <mxPoint x="289" y="8.229999999999997" as="targetPoint" />
          </mxGeometry>
        </mxCell>
        <mxCell id="oGT1-rxk5gDqi7XwYrmR-232" value="" style="endArrow=none;html=1;rounded=0;strokeColor=#111111;strokeWidth=0.2;sketch=1;curveFitting=1;jiggle=2;" edge="1" parent="oGT1-rxk5gDqi7XwYrmR-399">
          <mxGeometry width="50" height="50" relative="1" as="geometry">
            <mxPoint x="287" y="36.230000000000004" as="sourcePoint" />
            <mxPoint x="287" y="8.229999999999997" as="targetPoint" />
          </mxGeometry>
        </mxCell>
        <mxCell id="oGT1-rxk5gDqi7XwYrmR-233" value="" style="endArrow=none;html=1;rounded=0;strokeColor=#111111;strokeWidth=0.2;sketch=1;curveFitting=1;jiggle=2;" edge="1" parent="oGT1-rxk5gDqi7XwYrmR-399">
          <mxGeometry width="50" height="50" relative="1" as="geometry">
            <mxPoint x="286" y="36.230000000000004" as="sourcePoint" />
            <mxPoint x="286" y="8.229999999999997" as="targetPoint" />
          </mxGeometry>
        </mxCell>
        <mxCell id="oGT1-rxk5gDqi7XwYrmR-234" value="" style="endArrow=none;html=1;rounded=0;strokeColor=#111111;strokeWidth=0.2;sketch=1;curveFitting=1;jiggle=2;" edge="1" parent="oGT1-rxk5gDqi7XwYrmR-399">
          <mxGeometry width="50" height="50" relative="1" as="geometry">
            <mxPoint x="284" y="36.230000000000004" as="sourcePoint" />
            <mxPoint x="284" y="8.229999999999997" as="targetPoint" />
          </mxGeometry>
        </mxCell>
        <mxCell id="oGT1-rxk5gDqi7XwYrmR-235" value="" style="endArrow=none;html=1;rounded=0;strokeColor=#111111;strokeWidth=0.2;sketch=1;curveFitting=1;jiggle=2;" edge="1" parent="oGT1-rxk5gDqi7XwYrmR-399">
          <mxGeometry width="50" height="50" relative="1" as="geometry">
            <mxPoint x="285" y="36.230000000000004" as="sourcePoint" />
            <mxPoint x="285" y="8.229999999999997" as="targetPoint" />
          </mxGeometry>
        </mxCell>
        <mxCell id="oGT1-rxk5gDqi7XwYrmR-236" value="" style="endArrow=none;html=1;rounded=0;strokeColor=#111111;strokeWidth=0.2;sketch=1;curveFitting=1;jiggle=2;" edge="1" parent="oGT1-rxk5gDqi7XwYrmR-399">
          <mxGeometry width="50" height="50" relative="1" as="geometry">
            <mxPoint x="283" y="36.230000000000004" as="sourcePoint" />
            <mxPoint x="283" y="8.229999999999997" as="targetPoint" />
          </mxGeometry>
        </mxCell>
        <mxCell id="oGT1-rxk5gDqi7XwYrmR-237" value="" style="endArrow=none;html=1;rounded=0;strokeColor=#111111;strokeWidth=0.2;sketch=1;curveFitting=1;jiggle=2;" edge="1" parent="oGT1-rxk5gDqi7XwYrmR-399">
          <mxGeometry width="50" height="50" relative="1" as="geometry">
            <mxPoint x="282" y="36.230000000000004" as="sourcePoint" />
            <mxPoint x="282" y="8.229999999999997" as="targetPoint" />
          </mxGeometry>
        </mxCell>
        <mxCell id="oGT1-rxk5gDqi7XwYrmR-238" value="" style="endArrow=none;html=1;rounded=0;strokeColor=#111111;strokeWidth=0.2;sketch=1;curveFitting=1;jiggle=2;" edge="1" parent="oGT1-rxk5gDqi7XwYrmR-399">
          <mxGeometry width="50" height="50" relative="1" as="geometry">
            <mxPoint x="280" y="36.230000000000004" as="sourcePoint" />
            <mxPoint x="280" y="8.229999999999997" as="targetPoint" />
          </mxGeometry>
        </mxCell>
        <mxCell id="oGT1-rxk5gDqi7XwYrmR-239" value="" style="endArrow=none;html=1;rounded=0;strokeColor=#111111;strokeWidth=0.2;sketch=1;curveFitting=1;jiggle=2;" edge="1" parent="oGT1-rxk5gDqi7XwYrmR-399">
          <mxGeometry width="50" height="50" relative="1" as="geometry">
            <mxPoint x="281" y="36.230000000000004" as="sourcePoint" />
            <mxPoint x="281" y="8.229999999999997" as="targetPoint" />
          </mxGeometry>
        </mxCell>
        <mxCell id="oGT1-rxk5gDqi7XwYrmR-240" value="" style="endArrow=none;html=1;rounded=0;strokeColor=#111111;strokeWidth=0.2;sketch=1;curveFitting=1;jiggle=2;" edge="1" parent="oGT1-rxk5gDqi7XwYrmR-399">
          <mxGeometry width="50" height="50" relative="1" as="geometry">
            <mxPoint x="279" y="36.230000000000004" as="sourcePoint" />
            <mxPoint x="279" y="8.229999999999997" as="targetPoint" />
          </mxGeometry>
        </mxCell>
        <mxCell id="oGT1-rxk5gDqi7XwYrmR-241" value="" style="endArrow=none;html=1;rounded=0;strokeColor=#111111;strokeWidth=0.2;sketch=1;curveFitting=1;jiggle=2;" edge="1" parent="oGT1-rxk5gDqi7XwYrmR-399">
          <mxGeometry width="50" height="50" relative="1" as="geometry">
            <mxPoint x="278" y="36.230000000000004" as="sourcePoint" />
            <mxPoint x="278" y="8.229999999999997" as="targetPoint" />
          </mxGeometry>
        </mxCell>
        <mxCell id="oGT1-rxk5gDqi7XwYrmR-242" value="" style="endArrow=none;html=1;rounded=0;strokeColor=#111111;strokeWidth=0.2;sketch=1;curveFitting=1;jiggle=2;" edge="1" parent="oGT1-rxk5gDqi7XwYrmR-399">
          <mxGeometry width="50" height="50" relative="1" as="geometry">
            <mxPoint x="276" y="36.230000000000004" as="sourcePoint" />
            <mxPoint x="276" y="8.229999999999997" as="targetPoint" />
          </mxGeometry>
        </mxCell>
        <mxCell id="oGT1-rxk5gDqi7XwYrmR-243" value="" style="endArrow=none;html=1;rounded=0;strokeColor=#111111;strokeWidth=0.2;sketch=1;curveFitting=1;jiggle=2;" edge="1" parent="oGT1-rxk5gDqi7XwYrmR-399">
          <mxGeometry width="50" height="50" relative="1" as="geometry">
            <mxPoint x="277" y="36.230000000000004" as="sourcePoint" />
            <mxPoint x="277" y="8.229999999999997" as="targetPoint" />
          </mxGeometry>
        </mxCell>
        <mxCell id="oGT1-rxk5gDqi7XwYrmR-244" value="" style="endArrow=none;html=1;rounded=0;strokeColor=#111111;strokeWidth=0.2;sketch=1;curveFitting=1;jiggle=2;" edge="1" parent="oGT1-rxk5gDqi7XwYrmR-399">
          <mxGeometry width="50" height="50" relative="1" as="geometry">
            <mxPoint x="275" y="36.230000000000004" as="sourcePoint" />
            <mxPoint x="275" y="8.229999999999997" as="targetPoint" />
          </mxGeometry>
        </mxCell>
        <mxCell id="oGT1-rxk5gDqi7XwYrmR-245" value="" style="endArrow=none;html=1;rounded=0;strokeColor=#111111;strokeWidth=0.2;sketch=1;curveFitting=1;jiggle=2;" edge="1" parent="oGT1-rxk5gDqi7XwYrmR-399">
          <mxGeometry width="50" height="50" relative="1" as="geometry">
            <mxPoint x="274" y="36.230000000000004" as="sourcePoint" />
            <mxPoint x="274" y="8.229999999999997" as="targetPoint" />
          </mxGeometry>
        </mxCell>
        <mxCell id="oGT1-rxk5gDqi7XwYrmR-246" value="" style="endArrow=none;html=1;rounded=0;strokeColor=#111111;strokeWidth=0.2;sketch=1;curveFitting=1;jiggle=2;" edge="1" parent="oGT1-rxk5gDqi7XwYrmR-399">
          <mxGeometry width="50" height="50" relative="1" as="geometry">
            <mxPoint x="273" y="36.230000000000004" as="sourcePoint" />
            <mxPoint x="273" y="8.229999999999997" as="targetPoint" />
          </mxGeometry>
        </mxCell>
        <mxCell id="oGT1-rxk5gDqi7XwYrmR-247" value="" style="endArrow=none;html=1;rounded=0;strokeColor=#111111;strokeWidth=0.2;sketch=1;curveFitting=1;jiggle=2;" edge="1" parent="oGT1-rxk5gDqi7XwYrmR-399">
          <mxGeometry width="50" height="50" relative="1" as="geometry">
            <mxPoint x="272" y="36.230000000000004" as="sourcePoint" />
            <mxPoint x="272" y="8.229999999999997" as="targetPoint" />
          </mxGeometry>
        </mxCell>
        <mxCell id="oGT1-rxk5gDqi7XwYrmR-248" value="" style="endArrow=none;html=1;rounded=0;strokeColor=#111111;strokeWidth=0.2;sketch=1;curveFitting=1;jiggle=2;" edge="1" parent="oGT1-rxk5gDqi7XwYrmR-399">
          <mxGeometry width="50" height="50" relative="1" as="geometry">
            <mxPoint x="271" y="36.230000000000004" as="sourcePoint" />
            <mxPoint x="271" y="8.229999999999997" as="targetPoint" />
          </mxGeometry>
        </mxCell>
        <mxCell id="oGT1-rxk5gDqi7XwYrmR-249" value="" style="endArrow=none;html=1;rounded=0;strokeColor=#111111;strokeWidth=0.2;sketch=1;curveFitting=1;jiggle=2;" edge="1" parent="oGT1-rxk5gDqi7XwYrmR-399">
          <mxGeometry width="50" height="50" relative="1" as="geometry">
            <mxPoint x="307" y="36.230000000000004" as="sourcePoint" />
            <mxPoint x="307" y="8.229999999999997" as="targetPoint" />
          </mxGeometry>
        </mxCell>
        <mxCell id="oGT1-rxk5gDqi7XwYrmR-250" value="" style="endArrow=none;html=1;rounded=0;strokeColor=#111111;strokeWidth=0.2;sketch=1;curveFitting=1;jiggle=2;" edge="1" parent="oGT1-rxk5gDqi7XwYrmR-399">
          <mxGeometry width="50" height="50" relative="1" as="geometry">
            <mxPoint x="308" y="36.230000000000004" as="sourcePoint" />
            <mxPoint x="308" y="8.229999999999997" as="targetPoint" />
          </mxGeometry>
        </mxCell>
        <mxCell id="oGT1-rxk5gDqi7XwYrmR-251" value="" style="endArrow=none;html=1;rounded=0;strokeColor=#111111;strokeWidth=0.2;sketch=1;curveFitting=1;jiggle=2;" edge="1" parent="oGT1-rxk5gDqi7XwYrmR-399">
          <mxGeometry width="50" height="50" relative="1" as="geometry">
            <mxPoint x="306" y="36.230000000000004" as="sourcePoint" />
            <mxPoint x="306" y="8.229999999999997" as="targetPoint" />
          </mxGeometry>
        </mxCell>
        <mxCell id="oGT1-rxk5gDqi7XwYrmR-252" value="" style="endArrow=none;html=1;rounded=0;strokeColor=#111111;strokeWidth=0.2;sketch=1;curveFitting=1;jiggle=2;" edge="1" parent="oGT1-rxk5gDqi7XwYrmR-399">
          <mxGeometry width="50" height="50" relative="1" as="geometry">
            <mxPoint x="305" y="36.230000000000004" as="sourcePoint" />
            <mxPoint x="305" y="8.229999999999997" as="targetPoint" />
          </mxGeometry>
        </mxCell>
        <mxCell id="oGT1-rxk5gDqi7XwYrmR-253" value="" style="endArrow=none;html=1;rounded=0;strokeColor=#111111;strokeWidth=0.2;sketch=1;curveFitting=1;jiggle=2;" edge="1" parent="oGT1-rxk5gDqi7XwYrmR-399">
          <mxGeometry width="50" height="50" relative="1" as="geometry">
            <mxPoint x="303" y="36.230000000000004" as="sourcePoint" />
            <mxPoint x="303" y="8.229999999999997" as="targetPoint" />
          </mxGeometry>
        </mxCell>
        <mxCell id="oGT1-rxk5gDqi7XwYrmR-254" value="" style="endArrow=none;html=1;rounded=0;strokeColor=#111111;strokeWidth=0.2;sketch=1;curveFitting=1;jiggle=2;" edge="1" parent="oGT1-rxk5gDqi7XwYrmR-399">
          <mxGeometry width="50" height="50" relative="1" as="geometry">
            <mxPoint x="304" y="36.230000000000004" as="sourcePoint" />
            <mxPoint x="304" y="8.229999999999997" as="targetPoint" />
          </mxGeometry>
        </mxCell>
        <mxCell id="oGT1-rxk5gDqi7XwYrmR-255" value="" style="endArrow=none;html=1;rounded=0;strokeColor=#111111;strokeWidth=0.2;sketch=1;curveFitting=1;jiggle=2;" edge="1" parent="oGT1-rxk5gDqi7XwYrmR-399">
          <mxGeometry width="50" height="50" relative="1" as="geometry">
            <mxPoint x="302" y="36.230000000000004" as="sourcePoint" />
            <mxPoint x="302" y="8.229999999999997" as="targetPoint" />
          </mxGeometry>
        </mxCell>
        <mxCell id="oGT1-rxk5gDqi7XwYrmR-256" value="" style="endArrow=none;html=1;rounded=0;strokeColor=#111111;strokeWidth=0.2;sketch=1;curveFitting=1;jiggle=2;" edge="1" parent="oGT1-rxk5gDqi7XwYrmR-399">
          <mxGeometry width="50" height="50" relative="1" as="geometry">
            <mxPoint x="301" y="36.230000000000004" as="sourcePoint" />
            <mxPoint x="301" y="8.229999999999997" as="targetPoint" />
          </mxGeometry>
        </mxCell>
        <mxCell id="oGT1-rxk5gDqi7XwYrmR-257" value="" style="endArrow=none;html=1;rounded=0;strokeColor=#111111;strokeWidth=0.2;sketch=1;curveFitting=1;jiggle=2;" edge="1" parent="oGT1-rxk5gDqi7XwYrmR-399">
          <mxGeometry width="50" height="50" relative="1" as="geometry">
            <mxPoint x="299" y="36.230000000000004" as="sourcePoint" />
            <mxPoint x="299" y="8.229999999999997" as="targetPoint" />
          </mxGeometry>
        </mxCell>
        <mxCell id="oGT1-rxk5gDqi7XwYrmR-258" value="" style="endArrow=none;html=1;rounded=0;strokeColor=#111111;strokeWidth=0.2;sketch=1;curveFitting=1;jiggle=2;" edge="1" parent="oGT1-rxk5gDqi7XwYrmR-399">
          <mxGeometry width="50" height="50" relative="1" as="geometry">
            <mxPoint x="300" y="36.230000000000004" as="sourcePoint" />
            <mxPoint x="300" y="8.229999999999997" as="targetPoint" />
          </mxGeometry>
        </mxCell>
        <mxCell id="oGT1-rxk5gDqi7XwYrmR-259" value="" style="endArrow=none;html=1;rounded=0;strokeColor=#111111;strokeWidth=0.2;sketch=1;curveFitting=1;jiggle=2;" edge="1" parent="oGT1-rxk5gDqi7XwYrmR-399">
          <mxGeometry width="50" height="50" relative="1" as="geometry">
            <mxPoint x="298" y="36.230000000000004" as="sourcePoint" />
            <mxPoint x="298" y="8.229999999999997" as="targetPoint" />
          </mxGeometry>
        </mxCell>
        <mxCell id="oGT1-rxk5gDqi7XwYrmR-260" value="" style="endArrow=none;html=1;rounded=0;strokeColor=#111111;strokeWidth=0.2;sketch=1;curveFitting=1;jiggle=2;" edge="1" parent="oGT1-rxk5gDqi7XwYrmR-399">
          <mxGeometry width="50" height="50" relative="1" as="geometry">
            <mxPoint x="297" y="36.230000000000004" as="sourcePoint" />
            <mxPoint x="297" y="8.229999999999997" as="targetPoint" />
          </mxGeometry>
        </mxCell>
        <mxCell id="oGT1-rxk5gDqi7XwYrmR-261" value="" style="endArrow=none;html=1;rounded=0;strokeColor=#111111;strokeWidth=0.2;sketch=1;curveFitting=1;jiggle=2;" edge="1" parent="oGT1-rxk5gDqi7XwYrmR-399">
          <mxGeometry width="50" height="50" relative="1" as="geometry">
            <mxPoint x="295" y="36.230000000000004" as="sourcePoint" />
            <mxPoint x="295" y="8.229999999999997" as="targetPoint" />
          </mxGeometry>
        </mxCell>
        <mxCell id="oGT1-rxk5gDqi7XwYrmR-262" value="" style="endArrow=none;html=1;rounded=0;strokeColor=#111111;strokeWidth=0.2;sketch=1;curveFitting=1;jiggle=2;" edge="1" parent="oGT1-rxk5gDqi7XwYrmR-399">
          <mxGeometry width="50" height="50" relative="1" as="geometry">
            <mxPoint x="296" y="36.230000000000004" as="sourcePoint" />
            <mxPoint x="296" y="8.229999999999997" as="targetPoint" />
          </mxGeometry>
        </mxCell>
        <mxCell id="oGT1-rxk5gDqi7XwYrmR-263" value="" style="endArrow=none;html=1;rounded=0;strokeColor=#111111;strokeWidth=0.2;sketch=1;curveFitting=1;jiggle=2;" edge="1" parent="oGT1-rxk5gDqi7XwYrmR-399">
          <mxGeometry width="50" height="50" relative="1" as="geometry">
            <mxPoint x="294" y="36.230000000000004" as="sourcePoint" />
            <mxPoint x="294" y="8.229999999999997" as="targetPoint" />
          </mxGeometry>
        </mxCell>
        <mxCell id="oGT1-rxk5gDqi7XwYrmR-264" value="" style="endArrow=none;html=1;rounded=0;strokeColor=#111111;strokeWidth=0.2;sketch=1;curveFitting=1;jiggle=2;" edge="1" parent="oGT1-rxk5gDqi7XwYrmR-399">
          <mxGeometry width="50" height="50" relative="1" as="geometry">
            <mxPoint x="293" y="36.230000000000004" as="sourcePoint" />
            <mxPoint x="293" y="8.229999999999997" as="targetPoint" />
          </mxGeometry>
        </mxCell>
        <mxCell id="oGT1-rxk5gDqi7XwYrmR-265" value="" style="endArrow=none;html=1;rounded=0;strokeColor=#111111;strokeWidth=0.2;sketch=1;curveFitting=1;jiggle=2;" edge="1" parent="oGT1-rxk5gDqi7XwYrmR-399">
          <mxGeometry width="50" height="50" relative="1" as="geometry">
            <mxPoint x="292" y="36.230000000000004" as="sourcePoint" />
            <mxPoint x="292" y="8.229999999999997" as="targetPoint" />
          </mxGeometry>
        </mxCell>
        <mxCell id="oGT1-rxk5gDqi7XwYrmR-266" value="" style="endArrow=none;html=1;rounded=0;strokeColor=#111111;strokeWidth=0.2;sketch=1;curveFitting=1;jiggle=2;" edge="1" parent="oGT1-rxk5gDqi7XwYrmR-399">
          <mxGeometry width="50" height="50" relative="1" as="geometry">
            <mxPoint x="291" y="36.230000000000004" as="sourcePoint" />
            <mxPoint x="291" y="8.229999999999997" as="targetPoint" />
          </mxGeometry>
        </mxCell>
        <mxCell id="oGT1-rxk5gDqi7XwYrmR-267" value="" style="endArrow=none;html=1;rounded=0;strokeColor=#111111;strokeWidth=0.2;sketch=1;curveFitting=1;jiggle=2;" edge="1" parent="oGT1-rxk5gDqi7XwYrmR-399">
          <mxGeometry width="50" height="50" relative="1" as="geometry">
            <mxPoint x="290" y="36.230000000000004" as="sourcePoint" />
            <mxPoint x="290" y="8.229999999999997" as="targetPoint" />
          </mxGeometry>
        </mxCell>
        <mxCell id="oGT1-rxk5gDqi7XwYrmR-268" value="" style="endArrow=none;html=1;rounded=0;strokeColor=#111111;strokeWidth=0.2;sketch=1;curveFitting=1;jiggle=2;" edge="1" parent="oGT1-rxk5gDqi7XwYrmR-399">
          <mxGeometry width="50" height="50" relative="1" as="geometry">
            <mxPoint x="326" y="36.230000000000004" as="sourcePoint" />
            <mxPoint x="326" y="8.229999999999997" as="targetPoint" />
          </mxGeometry>
        </mxCell>
        <mxCell id="oGT1-rxk5gDqi7XwYrmR-269" value="" style="endArrow=none;html=1;rounded=0;strokeColor=#111111;strokeWidth=0.2;sketch=1;curveFitting=1;jiggle=2;" edge="1" parent="oGT1-rxk5gDqi7XwYrmR-399">
          <mxGeometry width="50" height="50" relative="1" as="geometry">
            <mxPoint x="327" y="36.230000000000004" as="sourcePoint" />
            <mxPoint x="327" y="8.229999999999997" as="targetPoint" />
          </mxGeometry>
        </mxCell>
        <mxCell id="oGT1-rxk5gDqi7XwYrmR-270" value="" style="endArrow=none;html=1;rounded=0;strokeColor=#111111;strokeWidth=0.2;sketch=1;curveFitting=1;jiggle=2;" edge="1" parent="oGT1-rxk5gDqi7XwYrmR-399">
          <mxGeometry width="50" height="50" relative="1" as="geometry">
            <mxPoint x="325" y="36.230000000000004" as="sourcePoint" />
            <mxPoint x="325" y="8.229999999999997" as="targetPoint" />
          </mxGeometry>
        </mxCell>
        <mxCell id="oGT1-rxk5gDqi7XwYrmR-271" value="" style="endArrow=none;html=1;rounded=0;strokeColor=#111111;strokeWidth=0.2;sketch=1;curveFitting=1;jiggle=2;" edge="1" parent="oGT1-rxk5gDqi7XwYrmR-399">
          <mxGeometry width="50" height="50" relative="1" as="geometry">
            <mxPoint x="324" y="36.230000000000004" as="sourcePoint" />
            <mxPoint x="324" y="8.229999999999997" as="targetPoint" />
          </mxGeometry>
        </mxCell>
        <mxCell id="oGT1-rxk5gDqi7XwYrmR-272" value="" style="endArrow=none;html=1;rounded=0;strokeColor=#111111;strokeWidth=0.2;sketch=1;curveFitting=1;jiggle=2;" edge="1" parent="oGT1-rxk5gDqi7XwYrmR-399">
          <mxGeometry width="50" height="50" relative="1" as="geometry">
            <mxPoint x="322" y="36.230000000000004" as="sourcePoint" />
            <mxPoint x="322" y="8.229999999999997" as="targetPoint" />
          </mxGeometry>
        </mxCell>
        <mxCell id="oGT1-rxk5gDqi7XwYrmR-273" value="" style="endArrow=none;html=1;rounded=0;strokeColor=#111111;strokeWidth=0.2;sketch=1;curveFitting=1;jiggle=2;" edge="1" parent="oGT1-rxk5gDqi7XwYrmR-399">
          <mxGeometry width="50" height="50" relative="1" as="geometry">
            <mxPoint x="323" y="36.230000000000004" as="sourcePoint" />
            <mxPoint x="323" y="8.229999999999997" as="targetPoint" />
          </mxGeometry>
        </mxCell>
        <mxCell id="oGT1-rxk5gDqi7XwYrmR-274" value="" style="endArrow=none;html=1;rounded=0;strokeColor=#111111;strokeWidth=0.2;sketch=1;curveFitting=1;jiggle=2;" edge="1" parent="oGT1-rxk5gDqi7XwYrmR-399">
          <mxGeometry width="50" height="50" relative="1" as="geometry">
            <mxPoint x="321" y="36.230000000000004" as="sourcePoint" />
            <mxPoint x="321" y="8.229999999999997" as="targetPoint" />
          </mxGeometry>
        </mxCell>
        <mxCell id="oGT1-rxk5gDqi7XwYrmR-275" value="" style="endArrow=none;html=1;rounded=0;strokeColor=#111111;strokeWidth=0.2;sketch=1;curveFitting=1;jiggle=2;" edge="1" parent="oGT1-rxk5gDqi7XwYrmR-399">
          <mxGeometry width="50" height="50" relative="1" as="geometry">
            <mxPoint x="320" y="36.230000000000004" as="sourcePoint" />
            <mxPoint x="320" y="8.229999999999997" as="targetPoint" />
          </mxGeometry>
        </mxCell>
        <mxCell id="oGT1-rxk5gDqi7XwYrmR-276" value="" style="endArrow=none;html=1;rounded=0;strokeColor=#111111;strokeWidth=0.2;sketch=1;curveFitting=1;jiggle=2;" edge="1" parent="oGT1-rxk5gDqi7XwYrmR-399">
          <mxGeometry width="50" height="50" relative="1" as="geometry">
            <mxPoint x="318" y="36.230000000000004" as="sourcePoint" />
            <mxPoint x="318" y="8.229999999999997" as="targetPoint" />
          </mxGeometry>
        </mxCell>
        <mxCell id="oGT1-rxk5gDqi7XwYrmR-277" value="" style="endArrow=none;html=1;rounded=0;strokeColor=#111111;strokeWidth=0.2;sketch=1;curveFitting=1;jiggle=2;" edge="1" parent="oGT1-rxk5gDqi7XwYrmR-399">
          <mxGeometry width="50" height="50" relative="1" as="geometry">
            <mxPoint x="319" y="36.230000000000004" as="sourcePoint" />
            <mxPoint x="319" y="8.229999999999997" as="targetPoint" />
          </mxGeometry>
        </mxCell>
        <mxCell id="oGT1-rxk5gDqi7XwYrmR-278" value="" style="endArrow=none;html=1;rounded=0;strokeColor=#111111;strokeWidth=0.2;sketch=1;curveFitting=1;jiggle=2;" edge="1" parent="oGT1-rxk5gDqi7XwYrmR-399">
          <mxGeometry width="50" height="50" relative="1" as="geometry">
            <mxPoint x="317" y="36.230000000000004" as="sourcePoint" />
            <mxPoint x="317" y="8.229999999999997" as="targetPoint" />
          </mxGeometry>
        </mxCell>
        <mxCell id="oGT1-rxk5gDqi7XwYrmR-279" value="" style="endArrow=none;html=1;rounded=0;strokeColor=#111111;strokeWidth=0.2;sketch=1;curveFitting=1;jiggle=2;" edge="1" parent="oGT1-rxk5gDqi7XwYrmR-399">
          <mxGeometry width="50" height="50" relative="1" as="geometry">
            <mxPoint x="316" y="36.230000000000004" as="sourcePoint" />
            <mxPoint x="316" y="8.229999999999997" as="targetPoint" />
          </mxGeometry>
        </mxCell>
        <mxCell id="oGT1-rxk5gDqi7XwYrmR-280" value="" style="endArrow=none;html=1;rounded=0;strokeColor=#111111;strokeWidth=0.2;sketch=1;curveFitting=1;jiggle=2;" edge="1" parent="oGT1-rxk5gDqi7XwYrmR-399">
          <mxGeometry width="50" height="50" relative="1" as="geometry">
            <mxPoint x="314" y="36.230000000000004" as="sourcePoint" />
            <mxPoint x="314" y="8.229999999999997" as="targetPoint" />
          </mxGeometry>
        </mxCell>
        <mxCell id="oGT1-rxk5gDqi7XwYrmR-281" value="" style="endArrow=none;html=1;rounded=0;strokeColor=#111111;strokeWidth=0.2;sketch=1;curveFitting=1;jiggle=2;" edge="1" parent="oGT1-rxk5gDqi7XwYrmR-399">
          <mxGeometry width="50" height="50" relative="1" as="geometry">
            <mxPoint x="315" y="36.230000000000004" as="sourcePoint" />
            <mxPoint x="315" y="8.229999999999997" as="targetPoint" />
          </mxGeometry>
        </mxCell>
        <mxCell id="oGT1-rxk5gDqi7XwYrmR-282" value="" style="endArrow=none;html=1;rounded=0;strokeColor=#111111;strokeWidth=0.2;sketch=1;curveFitting=1;jiggle=2;" edge="1" parent="oGT1-rxk5gDqi7XwYrmR-399">
          <mxGeometry width="50" height="50" relative="1" as="geometry">
            <mxPoint x="313" y="36.230000000000004" as="sourcePoint" />
            <mxPoint x="313" y="8.229999999999997" as="targetPoint" />
          </mxGeometry>
        </mxCell>
        <mxCell id="oGT1-rxk5gDqi7XwYrmR-283" value="" style="endArrow=none;html=1;rounded=0;strokeColor=#111111;strokeWidth=0.2;sketch=1;curveFitting=1;jiggle=2;" edge="1" parent="oGT1-rxk5gDqi7XwYrmR-399">
          <mxGeometry width="50" height="50" relative="1" as="geometry">
            <mxPoint x="312" y="36.230000000000004" as="sourcePoint" />
            <mxPoint x="312" y="8.229999999999997" as="targetPoint" />
          </mxGeometry>
        </mxCell>
        <mxCell id="oGT1-rxk5gDqi7XwYrmR-284" value="" style="endArrow=none;html=1;rounded=0;strokeColor=#111111;strokeWidth=0.2;sketch=1;curveFitting=1;jiggle=2;" edge="1" parent="oGT1-rxk5gDqi7XwYrmR-399">
          <mxGeometry width="50" height="50" relative="1" as="geometry">
            <mxPoint x="311" y="36.230000000000004" as="sourcePoint" />
            <mxPoint x="311" y="8.229999999999997" as="targetPoint" />
          </mxGeometry>
        </mxCell>
        <mxCell id="oGT1-rxk5gDqi7XwYrmR-285" value="" style="endArrow=none;html=1;rounded=0;strokeColor=#111111;strokeWidth=0.2;sketch=1;curveFitting=1;jiggle=2;" edge="1" parent="oGT1-rxk5gDqi7XwYrmR-399">
          <mxGeometry width="50" height="50" relative="1" as="geometry">
            <mxPoint x="310" y="36.230000000000004" as="sourcePoint" />
            <mxPoint x="310" y="8.229999999999997" as="targetPoint" />
          </mxGeometry>
        </mxCell>
        <mxCell id="oGT1-rxk5gDqi7XwYrmR-286" value="" style="endArrow=none;html=1;rounded=0;strokeColor=#111111;strokeWidth=0.2;sketch=1;curveFitting=1;jiggle=2;" edge="1" parent="oGT1-rxk5gDqi7XwYrmR-399">
          <mxGeometry width="50" height="50" relative="1" as="geometry">
            <mxPoint x="309" y="36.230000000000004" as="sourcePoint" />
            <mxPoint x="309" y="8.229999999999997" as="targetPoint" />
          </mxGeometry>
        </mxCell>
        <mxCell id="oGT1-rxk5gDqi7XwYrmR-287" value="" style="endArrow=none;html=1;rounded=0;strokeColor=#111111;strokeWidth=0.2;sketch=1;curveFitting=1;jiggle=2;" edge="1" parent="oGT1-rxk5gDqi7XwYrmR-399">
          <mxGeometry width="50" height="50" relative="1" as="geometry">
            <mxPoint x="345" y="36.230000000000004" as="sourcePoint" />
            <mxPoint x="345" y="8.229999999999997" as="targetPoint" />
          </mxGeometry>
        </mxCell>
        <mxCell id="oGT1-rxk5gDqi7XwYrmR-288" value="" style="endArrow=none;html=1;rounded=0;strokeColor=#111111;strokeWidth=0.2;sketch=1;curveFitting=1;jiggle=2;" edge="1" parent="oGT1-rxk5gDqi7XwYrmR-399">
          <mxGeometry width="50" height="50" relative="1" as="geometry">
            <mxPoint x="346" y="36.230000000000004" as="sourcePoint" />
            <mxPoint x="346" y="8.229999999999997" as="targetPoint" />
          </mxGeometry>
        </mxCell>
        <mxCell id="oGT1-rxk5gDqi7XwYrmR-289" value="" style="endArrow=none;html=1;rounded=0;strokeColor=#111111;strokeWidth=0.2;sketch=1;curveFitting=1;jiggle=2;" edge="1" parent="oGT1-rxk5gDqi7XwYrmR-399">
          <mxGeometry width="50" height="50" relative="1" as="geometry">
            <mxPoint x="344" y="36.230000000000004" as="sourcePoint" />
            <mxPoint x="344" y="8.229999999999997" as="targetPoint" />
          </mxGeometry>
        </mxCell>
        <mxCell id="oGT1-rxk5gDqi7XwYrmR-290" value="" style="endArrow=none;html=1;rounded=0;strokeColor=#111111;strokeWidth=0.2;sketch=1;curveFitting=1;jiggle=2;" edge="1" parent="oGT1-rxk5gDqi7XwYrmR-399">
          <mxGeometry width="50" height="50" relative="1" as="geometry">
            <mxPoint x="343" y="36.230000000000004" as="sourcePoint" />
            <mxPoint x="343" y="8.229999999999997" as="targetPoint" />
          </mxGeometry>
        </mxCell>
        <mxCell id="oGT1-rxk5gDqi7XwYrmR-291" value="" style="endArrow=none;html=1;rounded=0;strokeColor=#111111;strokeWidth=0.2;sketch=1;curveFitting=1;jiggle=2;" edge="1" parent="oGT1-rxk5gDqi7XwYrmR-399">
          <mxGeometry width="50" height="50" relative="1" as="geometry">
            <mxPoint x="341" y="36.230000000000004" as="sourcePoint" />
            <mxPoint x="341" y="8.229999999999997" as="targetPoint" />
          </mxGeometry>
        </mxCell>
        <mxCell id="oGT1-rxk5gDqi7XwYrmR-292" value="" style="endArrow=none;html=1;rounded=0;strokeColor=#111111;strokeWidth=0.2;sketch=1;curveFitting=1;jiggle=2;" edge="1" parent="oGT1-rxk5gDqi7XwYrmR-399">
          <mxGeometry width="50" height="50" relative="1" as="geometry">
            <mxPoint x="342" y="36.230000000000004" as="sourcePoint" />
            <mxPoint x="342" y="8.229999999999997" as="targetPoint" />
          </mxGeometry>
        </mxCell>
        <mxCell id="oGT1-rxk5gDqi7XwYrmR-293" value="" style="endArrow=none;html=1;rounded=0;strokeColor=#111111;strokeWidth=0.2;sketch=1;curveFitting=1;jiggle=2;" edge="1" parent="oGT1-rxk5gDqi7XwYrmR-399">
          <mxGeometry width="50" height="50" relative="1" as="geometry">
            <mxPoint x="340" y="36.230000000000004" as="sourcePoint" />
            <mxPoint x="340" y="8.229999999999997" as="targetPoint" />
          </mxGeometry>
        </mxCell>
        <mxCell id="oGT1-rxk5gDqi7XwYrmR-294" value="" style="endArrow=none;html=1;rounded=0;strokeColor=#111111;strokeWidth=0.2;sketch=1;curveFitting=1;jiggle=2;" edge="1" parent="oGT1-rxk5gDqi7XwYrmR-399">
          <mxGeometry width="50" height="50" relative="1" as="geometry">
            <mxPoint x="339" y="36.230000000000004" as="sourcePoint" />
            <mxPoint x="339" y="8.229999999999997" as="targetPoint" />
          </mxGeometry>
        </mxCell>
        <mxCell id="oGT1-rxk5gDqi7XwYrmR-295" value="" style="endArrow=none;html=1;rounded=0;strokeColor=#111111;strokeWidth=0.2;sketch=1;curveFitting=1;jiggle=2;" edge="1" parent="oGT1-rxk5gDqi7XwYrmR-399">
          <mxGeometry width="50" height="50" relative="1" as="geometry">
            <mxPoint x="337" y="36.230000000000004" as="sourcePoint" />
            <mxPoint x="337" y="8.229999999999997" as="targetPoint" />
          </mxGeometry>
        </mxCell>
        <mxCell id="oGT1-rxk5gDqi7XwYrmR-296" value="" style="endArrow=none;html=1;rounded=0;strokeColor=#111111;strokeWidth=0.2;sketch=1;curveFitting=1;jiggle=2;" edge="1" parent="oGT1-rxk5gDqi7XwYrmR-399">
          <mxGeometry width="50" height="50" relative="1" as="geometry">
            <mxPoint x="338" y="36.230000000000004" as="sourcePoint" />
            <mxPoint x="338" y="8.229999999999997" as="targetPoint" />
          </mxGeometry>
        </mxCell>
        <mxCell id="oGT1-rxk5gDqi7XwYrmR-297" value="" style="endArrow=none;html=1;rounded=0;strokeColor=#111111;strokeWidth=0.2;sketch=1;curveFitting=1;jiggle=2;" edge="1" parent="oGT1-rxk5gDqi7XwYrmR-399">
          <mxGeometry width="50" height="50" relative="1" as="geometry">
            <mxPoint x="336" y="36.230000000000004" as="sourcePoint" />
            <mxPoint x="336" y="8.229999999999997" as="targetPoint" />
          </mxGeometry>
        </mxCell>
        <mxCell id="oGT1-rxk5gDqi7XwYrmR-298" value="" style="endArrow=none;html=1;rounded=0;strokeColor=#111111;strokeWidth=0.2;sketch=1;curveFitting=1;jiggle=2;" edge="1" parent="oGT1-rxk5gDqi7XwYrmR-399">
          <mxGeometry width="50" height="50" relative="1" as="geometry">
            <mxPoint x="335" y="36.230000000000004" as="sourcePoint" />
            <mxPoint x="335" y="8.229999999999997" as="targetPoint" />
          </mxGeometry>
        </mxCell>
        <mxCell id="oGT1-rxk5gDqi7XwYrmR-299" value="" style="endArrow=none;html=1;rounded=0;strokeColor=#111111;strokeWidth=0.2;sketch=1;curveFitting=1;jiggle=2;" edge="1" parent="oGT1-rxk5gDqi7XwYrmR-399">
          <mxGeometry width="50" height="50" relative="1" as="geometry">
            <mxPoint x="333" y="36.230000000000004" as="sourcePoint" />
            <mxPoint x="333" y="8.229999999999997" as="targetPoint" />
          </mxGeometry>
        </mxCell>
        <mxCell id="oGT1-rxk5gDqi7XwYrmR-300" value="" style="endArrow=none;html=1;rounded=0;strokeColor=#111111;strokeWidth=0.2;sketch=1;curveFitting=1;jiggle=2;" edge="1" parent="oGT1-rxk5gDqi7XwYrmR-399">
          <mxGeometry width="50" height="50" relative="1" as="geometry">
            <mxPoint x="334" y="36.230000000000004" as="sourcePoint" />
            <mxPoint x="334" y="8.229999999999997" as="targetPoint" />
          </mxGeometry>
        </mxCell>
        <mxCell id="oGT1-rxk5gDqi7XwYrmR-301" value="" style="endArrow=none;html=1;rounded=0;strokeColor=#111111;strokeWidth=0.2;sketch=1;curveFitting=1;jiggle=2;" edge="1" parent="oGT1-rxk5gDqi7XwYrmR-399">
          <mxGeometry width="50" height="50" relative="1" as="geometry">
            <mxPoint x="332" y="36.230000000000004" as="sourcePoint" />
            <mxPoint x="332" y="8.229999999999997" as="targetPoint" />
          </mxGeometry>
        </mxCell>
        <mxCell id="oGT1-rxk5gDqi7XwYrmR-302" value="" style="endArrow=none;html=1;rounded=0;strokeColor=#111111;strokeWidth=0.2;sketch=1;curveFitting=1;jiggle=2;" edge="1" parent="oGT1-rxk5gDqi7XwYrmR-399">
          <mxGeometry width="50" height="50" relative="1" as="geometry">
            <mxPoint x="331" y="36.230000000000004" as="sourcePoint" />
            <mxPoint x="331" y="8.229999999999997" as="targetPoint" />
          </mxGeometry>
        </mxCell>
        <mxCell id="oGT1-rxk5gDqi7XwYrmR-303" value="" style="endArrow=none;html=1;rounded=0;strokeColor=#111111;strokeWidth=0.2;sketch=1;curveFitting=1;jiggle=2;" edge="1" parent="oGT1-rxk5gDqi7XwYrmR-399">
          <mxGeometry width="50" height="50" relative="1" as="geometry">
            <mxPoint x="330" y="36.230000000000004" as="sourcePoint" />
            <mxPoint x="330" y="8.229999999999997" as="targetPoint" />
          </mxGeometry>
        </mxCell>
        <mxCell id="oGT1-rxk5gDqi7XwYrmR-304" value="" style="endArrow=none;html=1;rounded=0;strokeColor=#111111;strokeWidth=0.2;sketch=1;curveFitting=1;jiggle=2;" edge="1" parent="oGT1-rxk5gDqi7XwYrmR-399">
          <mxGeometry width="50" height="50" relative="1" as="geometry">
            <mxPoint x="329" y="36.230000000000004" as="sourcePoint" />
            <mxPoint x="329" y="8.229999999999997" as="targetPoint" />
          </mxGeometry>
        </mxCell>
        <mxCell id="oGT1-rxk5gDqi7XwYrmR-305" value="" style="endArrow=none;html=1;rounded=0;strokeColor=#111111;strokeWidth=0.2;sketch=1;curveFitting=1;jiggle=2;" edge="1" parent="oGT1-rxk5gDqi7XwYrmR-399">
          <mxGeometry width="50" height="50" relative="1" as="geometry">
            <mxPoint x="328" y="36.230000000000004" as="sourcePoint" />
            <mxPoint x="328" y="8.229999999999997" as="targetPoint" />
          </mxGeometry>
        </mxCell>
        <mxCell id="oGT1-rxk5gDqi7XwYrmR-306" value="" style="endArrow=none;html=1;rounded=0;strokeColor=#111111;strokeWidth=0.2;sketch=1;curveFitting=1;jiggle=2;" edge="1" parent="oGT1-rxk5gDqi7XwYrmR-399">
          <mxGeometry width="50" height="50" relative="1" as="geometry">
            <mxPoint x="362" y="36.230000000000004" as="sourcePoint" />
            <mxPoint x="362" y="8.229999999999997" as="targetPoint" />
          </mxGeometry>
        </mxCell>
        <mxCell id="oGT1-rxk5gDqi7XwYrmR-307" value="" style="endArrow=none;html=1;rounded=0;strokeColor=#111111;strokeWidth=0.2;sketch=1;curveFitting=1;jiggle=2;" edge="1" parent="oGT1-rxk5gDqi7XwYrmR-399">
          <mxGeometry width="50" height="50" relative="1" as="geometry">
            <mxPoint x="363" y="36.230000000000004" as="sourcePoint" />
            <mxPoint x="363" y="8.229999999999997" as="targetPoint" />
          </mxGeometry>
        </mxCell>
        <mxCell id="oGT1-rxk5gDqi7XwYrmR-308" value="" style="endArrow=none;html=1;rounded=0;strokeColor=#111111;strokeWidth=0.2;sketch=1;curveFitting=1;jiggle=2;" edge="1" parent="oGT1-rxk5gDqi7XwYrmR-399">
          <mxGeometry width="50" height="50" relative="1" as="geometry">
            <mxPoint x="361" y="36.230000000000004" as="sourcePoint" />
            <mxPoint x="361" y="8.229999999999997" as="targetPoint" />
          </mxGeometry>
        </mxCell>
        <mxCell id="oGT1-rxk5gDqi7XwYrmR-309" value="" style="endArrow=none;html=1;rounded=0;strokeColor=#111111;strokeWidth=0.2;sketch=1;curveFitting=1;jiggle=2;" edge="1" parent="oGT1-rxk5gDqi7XwYrmR-399">
          <mxGeometry width="50" height="50" relative="1" as="geometry">
            <mxPoint x="360" y="36.230000000000004" as="sourcePoint" />
            <mxPoint x="360" y="8.229999999999997" as="targetPoint" />
          </mxGeometry>
        </mxCell>
        <mxCell id="oGT1-rxk5gDqi7XwYrmR-310" value="" style="endArrow=none;html=1;rounded=0;strokeColor=#111111;strokeWidth=0.2;sketch=1;curveFitting=1;jiggle=2;" edge="1" parent="oGT1-rxk5gDqi7XwYrmR-399">
          <mxGeometry width="50" height="50" relative="1" as="geometry">
            <mxPoint x="358" y="36.230000000000004" as="sourcePoint" />
            <mxPoint x="358" y="8.229999999999997" as="targetPoint" />
          </mxGeometry>
        </mxCell>
        <mxCell id="oGT1-rxk5gDqi7XwYrmR-311" value="" style="endArrow=none;html=1;rounded=0;strokeColor=#111111;strokeWidth=0.2;sketch=1;curveFitting=1;jiggle=2;" edge="1" parent="oGT1-rxk5gDqi7XwYrmR-399">
          <mxGeometry width="50" height="50" relative="1" as="geometry">
            <mxPoint x="359" y="36.230000000000004" as="sourcePoint" />
            <mxPoint x="359" y="8.229999999999997" as="targetPoint" />
          </mxGeometry>
        </mxCell>
        <mxCell id="oGT1-rxk5gDqi7XwYrmR-312" value="" style="endArrow=none;html=1;rounded=0;strokeColor=#111111;strokeWidth=0.2;sketch=1;curveFitting=1;jiggle=2;" edge="1" parent="oGT1-rxk5gDqi7XwYrmR-399">
          <mxGeometry width="50" height="50" relative="1" as="geometry">
            <mxPoint x="357" y="36.230000000000004" as="sourcePoint" />
            <mxPoint x="357" y="8.229999999999997" as="targetPoint" />
          </mxGeometry>
        </mxCell>
        <mxCell id="oGT1-rxk5gDqi7XwYrmR-313" value="" style="endArrow=none;html=1;rounded=0;strokeColor=#111111;strokeWidth=0.2;sketch=1;curveFitting=1;jiggle=2;" edge="1" parent="oGT1-rxk5gDqi7XwYrmR-399">
          <mxGeometry width="50" height="50" relative="1" as="geometry">
            <mxPoint x="356" y="36.230000000000004" as="sourcePoint" />
            <mxPoint x="356" y="8.229999999999997" as="targetPoint" />
          </mxGeometry>
        </mxCell>
        <mxCell id="oGT1-rxk5gDqi7XwYrmR-314" value="" style="endArrow=none;html=1;rounded=0;strokeColor=#111111;strokeWidth=0.2;sketch=1;curveFitting=1;jiggle=2;" edge="1" parent="oGT1-rxk5gDqi7XwYrmR-399">
          <mxGeometry width="50" height="50" relative="1" as="geometry">
            <mxPoint x="354" y="36.230000000000004" as="sourcePoint" />
            <mxPoint x="354" y="8.229999999999997" as="targetPoint" />
          </mxGeometry>
        </mxCell>
        <mxCell id="oGT1-rxk5gDqi7XwYrmR-315" value="" style="endArrow=none;html=1;rounded=0;strokeColor=#111111;strokeWidth=0.2;sketch=1;curveFitting=1;jiggle=2;" edge="1" parent="oGT1-rxk5gDqi7XwYrmR-399">
          <mxGeometry width="50" height="50" relative="1" as="geometry">
            <mxPoint x="355" y="36.230000000000004" as="sourcePoint" />
            <mxPoint x="355" y="8.229999999999997" as="targetPoint" />
          </mxGeometry>
        </mxCell>
        <mxCell id="oGT1-rxk5gDqi7XwYrmR-316" value="" style="endArrow=none;html=1;rounded=0;strokeColor=#111111;strokeWidth=0.2;sketch=1;curveFitting=1;jiggle=2;" edge="1" parent="oGT1-rxk5gDqi7XwYrmR-399">
          <mxGeometry width="50" height="50" relative="1" as="geometry">
            <mxPoint x="353" y="36.230000000000004" as="sourcePoint" />
            <mxPoint x="353" y="8.229999999999997" as="targetPoint" />
          </mxGeometry>
        </mxCell>
        <mxCell id="oGT1-rxk5gDqi7XwYrmR-317" value="" style="endArrow=none;html=1;rounded=0;strokeColor=#111111;strokeWidth=0.2;sketch=1;curveFitting=1;jiggle=2;" edge="1" parent="oGT1-rxk5gDqi7XwYrmR-399">
          <mxGeometry width="50" height="50" relative="1" as="geometry">
            <mxPoint x="352" y="36.230000000000004" as="sourcePoint" />
            <mxPoint x="352" y="8.229999999999997" as="targetPoint" />
          </mxGeometry>
        </mxCell>
        <mxCell id="oGT1-rxk5gDqi7XwYrmR-318" value="" style="endArrow=none;html=1;rounded=0;strokeColor=#111111;strokeWidth=0.2;sketch=1;curveFitting=1;jiggle=2;" edge="1" parent="oGT1-rxk5gDqi7XwYrmR-399">
          <mxGeometry width="50" height="50" relative="1" as="geometry">
            <mxPoint x="350" y="36.230000000000004" as="sourcePoint" />
            <mxPoint x="350" y="8.229999999999997" as="targetPoint" />
          </mxGeometry>
        </mxCell>
        <mxCell id="oGT1-rxk5gDqi7XwYrmR-319" value="" style="endArrow=none;html=1;rounded=0;strokeColor=#111111;strokeWidth=0.2;sketch=1;curveFitting=1;jiggle=2;" edge="1" parent="oGT1-rxk5gDqi7XwYrmR-399">
          <mxGeometry width="50" height="50" relative="1" as="geometry">
            <mxPoint x="351" y="36.230000000000004" as="sourcePoint" />
            <mxPoint x="351" y="8.229999999999997" as="targetPoint" />
          </mxGeometry>
        </mxCell>
        <mxCell id="oGT1-rxk5gDqi7XwYrmR-320" value="" style="endArrow=none;html=1;rounded=0;strokeColor=#111111;strokeWidth=0.2;sketch=1;curveFitting=1;jiggle=2;" edge="1" parent="oGT1-rxk5gDqi7XwYrmR-399">
          <mxGeometry width="50" height="50" relative="1" as="geometry">
            <mxPoint x="349" y="36.230000000000004" as="sourcePoint" />
            <mxPoint x="349" y="8.229999999999997" as="targetPoint" />
          </mxGeometry>
        </mxCell>
        <mxCell id="oGT1-rxk5gDqi7XwYrmR-321" value="" style="endArrow=none;html=1;rounded=0;strokeColor=#111111;strokeWidth=0.2;sketch=1;curveFitting=1;jiggle=2;" edge="1" parent="oGT1-rxk5gDqi7XwYrmR-399">
          <mxGeometry width="50" height="50" relative="1" as="geometry">
            <mxPoint x="348" y="36.230000000000004" as="sourcePoint" />
            <mxPoint x="348" y="8.229999999999997" as="targetPoint" />
          </mxGeometry>
        </mxCell>
        <mxCell id="oGT1-rxk5gDqi7XwYrmR-322" value="" style="endArrow=none;html=1;rounded=0;strokeColor=#111111;strokeWidth=0.2;sketch=1;curveFitting=1;jiggle=2;" edge="1" parent="oGT1-rxk5gDqi7XwYrmR-399">
          <mxGeometry width="50" height="50" relative="1" as="geometry">
            <mxPoint x="347" y="36.230000000000004" as="sourcePoint" />
            <mxPoint x="347" y="8.229999999999997" as="targetPoint" />
          </mxGeometry>
        </mxCell>
        <mxCell id="oGT1-rxk5gDqi7XwYrmR-323" value="" style="endArrow=none;html=1;rounded=0;strokeColor=#111111;strokeWidth=0.2;sketch=1;curveFitting=1;jiggle=2;" edge="1" parent="oGT1-rxk5gDqi7XwYrmR-399">
          <mxGeometry width="50" height="50" relative="1" as="geometry">
            <mxPoint x="381" y="36.230000000000004" as="sourcePoint" />
            <mxPoint x="381" y="8.229999999999997" as="targetPoint" />
          </mxGeometry>
        </mxCell>
        <mxCell id="oGT1-rxk5gDqi7XwYrmR-324" value="" style="endArrow=none;html=1;rounded=0;strokeColor=#111111;strokeWidth=0.2;sketch=1;curveFitting=1;jiggle=2;" edge="1" parent="oGT1-rxk5gDqi7XwYrmR-399">
          <mxGeometry width="50" height="50" relative="1" as="geometry">
            <mxPoint x="382" y="36.230000000000004" as="sourcePoint" />
            <mxPoint x="382" y="8.229999999999997" as="targetPoint" />
          </mxGeometry>
        </mxCell>
        <mxCell id="oGT1-rxk5gDqi7XwYrmR-325" value="" style="endArrow=none;html=1;rounded=0;strokeColor=#111111;strokeWidth=0.2;sketch=1;curveFitting=1;jiggle=2;" edge="1" parent="oGT1-rxk5gDqi7XwYrmR-399">
          <mxGeometry width="50" height="50" relative="1" as="geometry">
            <mxPoint x="380" y="36.230000000000004" as="sourcePoint" />
            <mxPoint x="380" y="8.229999999999997" as="targetPoint" />
          </mxGeometry>
        </mxCell>
        <mxCell id="oGT1-rxk5gDqi7XwYrmR-326" value="" style="endArrow=none;html=1;rounded=0;strokeColor=#111111;strokeWidth=0.2;sketch=1;curveFitting=1;jiggle=2;" edge="1" parent="oGT1-rxk5gDqi7XwYrmR-399">
          <mxGeometry width="50" height="50" relative="1" as="geometry">
            <mxPoint x="379" y="36.230000000000004" as="sourcePoint" />
            <mxPoint x="379" y="8.229999999999997" as="targetPoint" />
          </mxGeometry>
        </mxCell>
        <mxCell id="oGT1-rxk5gDqi7XwYrmR-327" value="" style="endArrow=none;html=1;rounded=0;strokeColor=#111111;strokeWidth=0.2;sketch=1;curveFitting=1;jiggle=2;" edge="1" parent="oGT1-rxk5gDqi7XwYrmR-399">
          <mxGeometry width="50" height="50" relative="1" as="geometry">
            <mxPoint x="377" y="36.230000000000004" as="sourcePoint" />
            <mxPoint x="377" y="8.229999999999997" as="targetPoint" />
          </mxGeometry>
        </mxCell>
        <mxCell id="oGT1-rxk5gDqi7XwYrmR-328" value="" style="endArrow=none;html=1;rounded=0;strokeColor=#111111;strokeWidth=0.2;sketch=1;curveFitting=1;jiggle=2;" edge="1" parent="oGT1-rxk5gDqi7XwYrmR-399">
          <mxGeometry width="50" height="50" relative="1" as="geometry">
            <mxPoint x="378" y="36.230000000000004" as="sourcePoint" />
            <mxPoint x="378" y="8.229999999999997" as="targetPoint" />
          </mxGeometry>
        </mxCell>
        <mxCell id="oGT1-rxk5gDqi7XwYrmR-329" value="" style="endArrow=none;html=1;rounded=0;strokeColor=#111111;strokeWidth=0.2;sketch=1;curveFitting=1;jiggle=2;" edge="1" parent="oGT1-rxk5gDqi7XwYrmR-399">
          <mxGeometry width="50" height="50" relative="1" as="geometry">
            <mxPoint x="376" y="36.230000000000004" as="sourcePoint" />
            <mxPoint x="376" y="8.229999999999997" as="targetPoint" />
          </mxGeometry>
        </mxCell>
        <mxCell id="oGT1-rxk5gDqi7XwYrmR-330" value="" style="endArrow=none;html=1;rounded=0;strokeColor=#111111;strokeWidth=0.2;sketch=1;curveFitting=1;jiggle=2;" edge="1" parent="oGT1-rxk5gDqi7XwYrmR-399">
          <mxGeometry width="50" height="50" relative="1" as="geometry">
            <mxPoint x="375" y="36.230000000000004" as="sourcePoint" />
            <mxPoint x="375" y="8.229999999999997" as="targetPoint" />
          </mxGeometry>
        </mxCell>
        <mxCell id="oGT1-rxk5gDqi7XwYrmR-331" value="" style="endArrow=none;html=1;rounded=0;strokeColor=#111111;strokeWidth=0.2;sketch=1;curveFitting=1;jiggle=2;" edge="1" parent="oGT1-rxk5gDqi7XwYrmR-399">
          <mxGeometry width="50" height="50" relative="1" as="geometry">
            <mxPoint x="373" y="36.230000000000004" as="sourcePoint" />
            <mxPoint x="373" y="8.229999999999997" as="targetPoint" />
          </mxGeometry>
        </mxCell>
        <mxCell id="oGT1-rxk5gDqi7XwYrmR-332" value="" style="endArrow=none;html=1;rounded=0;strokeColor=#111111;strokeWidth=0.2;sketch=1;curveFitting=1;jiggle=2;" edge="1" parent="oGT1-rxk5gDqi7XwYrmR-399">
          <mxGeometry width="50" height="50" relative="1" as="geometry">
            <mxPoint x="374" y="36.230000000000004" as="sourcePoint" />
            <mxPoint x="374" y="8.229999999999997" as="targetPoint" />
          </mxGeometry>
        </mxCell>
        <mxCell id="oGT1-rxk5gDqi7XwYrmR-333" value="" style="endArrow=none;html=1;rounded=0;strokeColor=#111111;strokeWidth=0.2;sketch=1;curveFitting=1;jiggle=2;" edge="1" parent="oGT1-rxk5gDqi7XwYrmR-399">
          <mxGeometry width="50" height="50" relative="1" as="geometry">
            <mxPoint x="372" y="36.230000000000004" as="sourcePoint" />
            <mxPoint x="372" y="8.229999999999997" as="targetPoint" />
          </mxGeometry>
        </mxCell>
        <mxCell id="oGT1-rxk5gDqi7XwYrmR-334" value="" style="endArrow=none;html=1;rounded=0;strokeColor=#111111;strokeWidth=0.2;sketch=1;curveFitting=1;jiggle=2;" edge="1" parent="oGT1-rxk5gDqi7XwYrmR-399">
          <mxGeometry width="50" height="50" relative="1" as="geometry">
            <mxPoint x="371" y="36.230000000000004" as="sourcePoint" />
            <mxPoint x="371" y="8.229999999999997" as="targetPoint" />
          </mxGeometry>
        </mxCell>
        <mxCell id="oGT1-rxk5gDqi7XwYrmR-335" value="" style="endArrow=none;html=1;rounded=0;strokeColor=#111111;strokeWidth=0.2;sketch=1;curveFitting=1;jiggle=2;" edge="1" parent="oGT1-rxk5gDqi7XwYrmR-399">
          <mxGeometry width="50" height="50" relative="1" as="geometry">
            <mxPoint x="369" y="36.230000000000004" as="sourcePoint" />
            <mxPoint x="369" y="8.229999999999997" as="targetPoint" />
          </mxGeometry>
        </mxCell>
        <mxCell id="oGT1-rxk5gDqi7XwYrmR-336" value="" style="endArrow=none;html=1;rounded=0;strokeColor=#111111;strokeWidth=0.2;sketch=1;curveFitting=1;jiggle=2;" edge="1" parent="oGT1-rxk5gDqi7XwYrmR-399">
          <mxGeometry width="50" height="50" relative="1" as="geometry">
            <mxPoint x="370" y="36.230000000000004" as="sourcePoint" />
            <mxPoint x="370" y="8.229999999999997" as="targetPoint" />
          </mxGeometry>
        </mxCell>
        <mxCell id="oGT1-rxk5gDqi7XwYrmR-337" value="" style="endArrow=none;html=1;rounded=0;strokeColor=#111111;strokeWidth=0.2;sketch=1;curveFitting=1;jiggle=2;" edge="1" parent="oGT1-rxk5gDqi7XwYrmR-399">
          <mxGeometry width="50" height="50" relative="1" as="geometry">
            <mxPoint x="368" y="36.230000000000004" as="sourcePoint" />
            <mxPoint x="368" y="8.229999999999997" as="targetPoint" />
          </mxGeometry>
        </mxCell>
        <mxCell id="oGT1-rxk5gDqi7XwYrmR-338" value="" style="endArrow=none;html=1;rounded=0;strokeColor=#111111;strokeWidth=0.2;sketch=1;curveFitting=1;jiggle=2;" edge="1" parent="oGT1-rxk5gDqi7XwYrmR-399">
          <mxGeometry width="50" height="50" relative="1" as="geometry">
            <mxPoint x="367" y="36.230000000000004" as="sourcePoint" />
            <mxPoint x="367" y="8.229999999999997" as="targetPoint" />
          </mxGeometry>
        </mxCell>
        <mxCell id="oGT1-rxk5gDqi7XwYrmR-339" value="" style="endArrow=none;html=1;rounded=0;strokeColor=#111111;strokeWidth=0.2;sketch=1;curveFitting=1;jiggle=2;" edge="1" parent="oGT1-rxk5gDqi7XwYrmR-399">
          <mxGeometry width="50" height="50" relative="1" as="geometry">
            <mxPoint x="366" y="36.230000000000004" as="sourcePoint" />
            <mxPoint x="366" y="8.229999999999997" as="targetPoint" />
          </mxGeometry>
        </mxCell>
        <mxCell id="oGT1-rxk5gDqi7XwYrmR-340" value="" style="endArrow=none;html=1;rounded=0;strokeColor=#111111;strokeWidth=0.2;sketch=1;curveFitting=1;jiggle=2;" edge="1" parent="oGT1-rxk5gDqi7XwYrmR-399">
          <mxGeometry width="50" height="50" relative="1" as="geometry">
            <mxPoint x="365" y="36.230000000000004" as="sourcePoint" />
            <mxPoint x="365" y="8.229999999999997" as="targetPoint" />
          </mxGeometry>
        </mxCell>
        <mxCell id="oGT1-rxk5gDqi7XwYrmR-341" value="" style="endArrow=none;html=1;rounded=0;strokeColor=#111111;strokeWidth=0.2;sketch=1;curveFitting=1;jiggle=2;" edge="1" parent="oGT1-rxk5gDqi7XwYrmR-399">
          <mxGeometry width="50" height="50" relative="1" as="geometry">
            <mxPoint x="364" y="36.230000000000004" as="sourcePoint" />
            <mxPoint x="364" y="8.229999999999997" as="targetPoint" />
          </mxGeometry>
        </mxCell>
        <mxCell id="oGT1-rxk5gDqi7XwYrmR-342" value="" style="endArrow=none;html=1;rounded=0;strokeColor=#111111;strokeWidth=0.2;sketch=1;curveFitting=1;jiggle=2;" edge="1" parent="oGT1-rxk5gDqi7XwYrmR-399">
          <mxGeometry width="50" height="50" relative="1" as="geometry">
            <mxPoint x="400" y="36.230000000000004" as="sourcePoint" />
            <mxPoint x="400" y="8.229999999999997" as="targetPoint" />
          </mxGeometry>
        </mxCell>
        <mxCell id="oGT1-rxk5gDqi7XwYrmR-343" value="" style="endArrow=none;html=1;rounded=0;strokeColor=#111111;strokeWidth=0.2;sketch=1;curveFitting=1;jiggle=2;" edge="1" parent="oGT1-rxk5gDqi7XwYrmR-399">
          <mxGeometry width="50" height="50" relative="1" as="geometry">
            <mxPoint x="401" y="36.230000000000004" as="sourcePoint" />
            <mxPoint x="401" y="8.229999999999997" as="targetPoint" />
          </mxGeometry>
        </mxCell>
        <mxCell id="oGT1-rxk5gDqi7XwYrmR-344" value="" style="endArrow=none;html=1;rounded=0;strokeColor=#111111;strokeWidth=0.2;sketch=1;curveFitting=1;jiggle=2;" edge="1" parent="oGT1-rxk5gDqi7XwYrmR-399">
          <mxGeometry width="50" height="50" relative="1" as="geometry">
            <mxPoint x="399" y="36.230000000000004" as="sourcePoint" />
            <mxPoint x="399" y="8.229999999999997" as="targetPoint" />
          </mxGeometry>
        </mxCell>
        <mxCell id="oGT1-rxk5gDqi7XwYrmR-345" value="" style="endArrow=none;html=1;rounded=0;strokeColor=#111111;strokeWidth=0.2;sketch=1;curveFitting=1;jiggle=2;" edge="1" parent="oGT1-rxk5gDqi7XwYrmR-399">
          <mxGeometry width="50" height="50" relative="1" as="geometry">
            <mxPoint x="398" y="36.230000000000004" as="sourcePoint" />
            <mxPoint x="398" y="8.229999999999997" as="targetPoint" />
          </mxGeometry>
        </mxCell>
        <mxCell id="oGT1-rxk5gDqi7XwYrmR-346" value="" style="endArrow=none;html=1;rounded=0;strokeColor=#111111;strokeWidth=0.2;sketch=1;curveFitting=1;jiggle=2;" edge="1" parent="oGT1-rxk5gDqi7XwYrmR-399">
          <mxGeometry width="50" height="50" relative="1" as="geometry">
            <mxPoint x="396" y="36.230000000000004" as="sourcePoint" />
            <mxPoint x="396" y="8.229999999999997" as="targetPoint" />
          </mxGeometry>
        </mxCell>
        <mxCell id="oGT1-rxk5gDqi7XwYrmR-347" value="" style="endArrow=none;html=1;rounded=0;strokeColor=#111111;strokeWidth=0.2;sketch=1;curveFitting=1;jiggle=2;" edge="1" parent="oGT1-rxk5gDqi7XwYrmR-399">
          <mxGeometry width="50" height="50" relative="1" as="geometry">
            <mxPoint x="397" y="36.230000000000004" as="sourcePoint" />
            <mxPoint x="397" y="8.229999999999997" as="targetPoint" />
          </mxGeometry>
        </mxCell>
        <mxCell id="oGT1-rxk5gDqi7XwYrmR-348" value="" style="endArrow=none;html=1;rounded=0;strokeColor=#111111;strokeWidth=0.2;sketch=1;curveFitting=1;jiggle=2;" edge="1" parent="oGT1-rxk5gDqi7XwYrmR-399">
          <mxGeometry width="50" height="50" relative="1" as="geometry">
            <mxPoint x="395" y="36.230000000000004" as="sourcePoint" />
            <mxPoint x="395" y="8.229999999999997" as="targetPoint" />
          </mxGeometry>
        </mxCell>
        <mxCell id="oGT1-rxk5gDqi7XwYrmR-349" value="" style="endArrow=none;html=1;rounded=0;strokeColor=#111111;strokeWidth=0.2;sketch=1;curveFitting=1;jiggle=2;" edge="1" parent="oGT1-rxk5gDqi7XwYrmR-399">
          <mxGeometry width="50" height="50" relative="1" as="geometry">
            <mxPoint x="394" y="36.230000000000004" as="sourcePoint" />
            <mxPoint x="394" y="8.229999999999997" as="targetPoint" />
          </mxGeometry>
        </mxCell>
        <mxCell id="oGT1-rxk5gDqi7XwYrmR-350" value="" style="endArrow=none;html=1;rounded=0;strokeColor=#111111;strokeWidth=0.2;sketch=1;curveFitting=1;jiggle=2;" edge="1" parent="oGT1-rxk5gDqi7XwYrmR-399">
          <mxGeometry width="50" height="50" relative="1" as="geometry">
            <mxPoint x="392" y="36.230000000000004" as="sourcePoint" />
            <mxPoint x="392" y="8.229999999999997" as="targetPoint" />
          </mxGeometry>
        </mxCell>
        <mxCell id="oGT1-rxk5gDqi7XwYrmR-351" value="" style="endArrow=none;html=1;rounded=0;strokeColor=#111111;strokeWidth=0.2;sketch=1;curveFitting=1;jiggle=2;" edge="1" parent="oGT1-rxk5gDqi7XwYrmR-399">
          <mxGeometry width="50" height="50" relative="1" as="geometry">
            <mxPoint x="393" y="36.230000000000004" as="sourcePoint" />
            <mxPoint x="393" y="8.229999999999997" as="targetPoint" />
          </mxGeometry>
        </mxCell>
        <mxCell id="oGT1-rxk5gDqi7XwYrmR-352" value="" style="endArrow=none;html=1;rounded=0;strokeColor=#111111;strokeWidth=0.2;sketch=1;curveFitting=1;jiggle=2;" edge="1" parent="oGT1-rxk5gDqi7XwYrmR-399">
          <mxGeometry width="50" height="50" relative="1" as="geometry">
            <mxPoint x="391" y="36.230000000000004" as="sourcePoint" />
            <mxPoint x="391" y="8.229999999999997" as="targetPoint" />
          </mxGeometry>
        </mxCell>
        <mxCell id="oGT1-rxk5gDqi7XwYrmR-353" value="" style="endArrow=none;html=1;rounded=0;strokeColor=#111111;strokeWidth=0.2;sketch=1;curveFitting=1;jiggle=2;" edge="1" parent="oGT1-rxk5gDqi7XwYrmR-399">
          <mxGeometry width="50" height="50" relative="1" as="geometry">
            <mxPoint x="390" y="36.230000000000004" as="sourcePoint" />
            <mxPoint x="390" y="8.229999999999997" as="targetPoint" />
          </mxGeometry>
        </mxCell>
        <mxCell id="oGT1-rxk5gDqi7XwYrmR-354" value="" style="endArrow=none;html=1;rounded=0;strokeColor=#111111;strokeWidth=0.2;sketch=1;curveFitting=1;jiggle=2;" edge="1" parent="oGT1-rxk5gDqi7XwYrmR-399">
          <mxGeometry width="50" height="50" relative="1" as="geometry">
            <mxPoint x="388" y="36.230000000000004" as="sourcePoint" />
            <mxPoint x="388" y="8.229999999999997" as="targetPoint" />
          </mxGeometry>
        </mxCell>
        <mxCell id="oGT1-rxk5gDqi7XwYrmR-355" value="" style="endArrow=none;html=1;rounded=0;strokeColor=#111111;strokeWidth=0.2;sketch=1;curveFitting=1;jiggle=2;" edge="1" parent="oGT1-rxk5gDqi7XwYrmR-399">
          <mxGeometry width="50" height="50" relative="1" as="geometry">
            <mxPoint x="389" y="36.230000000000004" as="sourcePoint" />
            <mxPoint x="389" y="8.229999999999997" as="targetPoint" />
          </mxGeometry>
        </mxCell>
        <mxCell id="oGT1-rxk5gDqi7XwYrmR-356" value="" style="endArrow=none;html=1;rounded=0;strokeColor=#111111;strokeWidth=0.2;sketch=1;curveFitting=1;jiggle=2;" edge="1" parent="oGT1-rxk5gDqi7XwYrmR-399">
          <mxGeometry width="50" height="50" relative="1" as="geometry">
            <mxPoint x="387" y="36.230000000000004" as="sourcePoint" />
            <mxPoint x="387" y="8.229999999999997" as="targetPoint" />
          </mxGeometry>
        </mxCell>
        <mxCell id="oGT1-rxk5gDqi7XwYrmR-357" value="" style="endArrow=none;html=1;rounded=0;strokeColor=#111111;strokeWidth=0.2;sketch=1;curveFitting=1;jiggle=2;" edge="1" parent="oGT1-rxk5gDqi7XwYrmR-399">
          <mxGeometry width="50" height="50" relative="1" as="geometry">
            <mxPoint x="386" y="36.230000000000004" as="sourcePoint" />
            <mxPoint x="386" y="8.229999999999997" as="targetPoint" />
          </mxGeometry>
        </mxCell>
        <mxCell id="oGT1-rxk5gDqi7XwYrmR-358" value="" style="endArrow=none;html=1;rounded=0;strokeColor=#111111;strokeWidth=0.2;sketch=1;curveFitting=1;jiggle=2;" edge="1" parent="oGT1-rxk5gDqi7XwYrmR-399">
          <mxGeometry width="50" height="50" relative="1" as="geometry">
            <mxPoint x="385" y="36.230000000000004" as="sourcePoint" />
            <mxPoint x="385" y="8.229999999999997" as="targetPoint" />
          </mxGeometry>
        </mxCell>
        <mxCell id="oGT1-rxk5gDqi7XwYrmR-359" value="" style="endArrow=none;html=1;rounded=0;strokeColor=#111111;strokeWidth=0.2;sketch=1;curveFitting=1;jiggle=2;" edge="1" parent="oGT1-rxk5gDqi7XwYrmR-399">
          <mxGeometry width="50" height="50" relative="1" as="geometry">
            <mxPoint x="384" y="36.230000000000004" as="sourcePoint" />
            <mxPoint x="384" y="8.229999999999997" as="targetPoint" />
          </mxGeometry>
        </mxCell>
        <mxCell id="oGT1-rxk5gDqi7XwYrmR-360" value="" style="endArrow=none;html=1;rounded=0;strokeColor=#111111;strokeWidth=0.2;sketch=1;curveFitting=1;jiggle=2;" edge="1" parent="oGT1-rxk5gDqi7XwYrmR-399">
          <mxGeometry width="50" height="50" relative="1" as="geometry">
            <mxPoint x="383" y="36.230000000000004" as="sourcePoint" />
            <mxPoint x="383" y="8.229999999999997" as="targetPoint" />
          </mxGeometry>
        </mxCell>
        <mxCell id="oGT1-rxk5gDqi7XwYrmR-361" value="" style="endArrow=none;html=1;rounded=0;strokeColor=#111111;strokeWidth=0.2;sketch=1;curveFitting=1;jiggle=2;" edge="1" parent="oGT1-rxk5gDqi7XwYrmR-399">
          <mxGeometry width="50" height="50" relative="1" as="geometry">
            <mxPoint x="416" y="36.230000000000004" as="sourcePoint" />
            <mxPoint x="416" y="8.229999999999997" as="targetPoint" />
          </mxGeometry>
        </mxCell>
        <mxCell id="oGT1-rxk5gDqi7XwYrmR-362" value="" style="endArrow=none;html=1;rounded=0;strokeColor=#111111;strokeWidth=0.2;sketch=1;curveFitting=1;jiggle=2;" edge="1" parent="oGT1-rxk5gDqi7XwYrmR-399">
          <mxGeometry width="50" height="50" relative="1" as="geometry">
            <mxPoint x="417" y="36.230000000000004" as="sourcePoint" />
            <mxPoint x="417" y="8.229999999999997" as="targetPoint" />
          </mxGeometry>
        </mxCell>
        <mxCell id="oGT1-rxk5gDqi7XwYrmR-363" value="" style="endArrow=none;html=1;rounded=0;strokeColor=#111111;strokeWidth=0.2;sketch=1;curveFitting=1;jiggle=2;" edge="1" parent="oGT1-rxk5gDqi7XwYrmR-399">
          <mxGeometry width="50" height="50" relative="1" as="geometry">
            <mxPoint x="415" y="36.230000000000004" as="sourcePoint" />
            <mxPoint x="415" y="8.229999999999997" as="targetPoint" />
          </mxGeometry>
        </mxCell>
        <mxCell id="oGT1-rxk5gDqi7XwYrmR-364" value="" style="endArrow=none;html=1;rounded=0;strokeColor=#111111;strokeWidth=0.2;sketch=1;curveFitting=1;jiggle=2;" edge="1" parent="oGT1-rxk5gDqi7XwYrmR-399">
          <mxGeometry width="50" height="50" relative="1" as="geometry">
            <mxPoint x="414" y="36.230000000000004" as="sourcePoint" />
            <mxPoint x="414" y="8.229999999999997" as="targetPoint" />
          </mxGeometry>
        </mxCell>
        <mxCell id="oGT1-rxk5gDqi7XwYrmR-365" value="" style="endArrow=none;html=1;rounded=0;strokeColor=#111111;strokeWidth=0.2;sketch=1;curveFitting=1;jiggle=2;" edge="1" parent="oGT1-rxk5gDqi7XwYrmR-399">
          <mxGeometry width="50" height="50" relative="1" as="geometry">
            <mxPoint x="412" y="36.230000000000004" as="sourcePoint" />
            <mxPoint x="412" y="8.229999999999997" as="targetPoint" />
          </mxGeometry>
        </mxCell>
        <mxCell id="oGT1-rxk5gDqi7XwYrmR-366" value="" style="endArrow=none;html=1;rounded=0;strokeColor=#111111;strokeWidth=0.2;sketch=1;curveFitting=1;jiggle=2;" edge="1" parent="oGT1-rxk5gDqi7XwYrmR-399">
          <mxGeometry width="50" height="50" relative="1" as="geometry">
            <mxPoint x="413" y="36.230000000000004" as="sourcePoint" />
            <mxPoint x="413" y="8.229999999999997" as="targetPoint" />
          </mxGeometry>
        </mxCell>
        <mxCell id="oGT1-rxk5gDqi7XwYrmR-367" value="" style="endArrow=none;html=1;rounded=0;strokeColor=#111111;strokeWidth=0.2;sketch=1;curveFitting=1;jiggle=2;" edge="1" parent="oGT1-rxk5gDqi7XwYrmR-399">
          <mxGeometry width="50" height="50" relative="1" as="geometry">
            <mxPoint x="411" y="36.230000000000004" as="sourcePoint" />
            <mxPoint x="411" y="8.229999999999997" as="targetPoint" />
          </mxGeometry>
        </mxCell>
        <mxCell id="oGT1-rxk5gDqi7XwYrmR-368" value="" style="endArrow=none;html=1;rounded=0;strokeColor=#111111;strokeWidth=0.2;sketch=1;curveFitting=1;jiggle=2;" edge="1" parent="oGT1-rxk5gDqi7XwYrmR-399">
          <mxGeometry width="50" height="50" relative="1" as="geometry">
            <mxPoint x="410" y="36.230000000000004" as="sourcePoint" />
            <mxPoint x="410" y="8.229999999999997" as="targetPoint" />
          </mxGeometry>
        </mxCell>
        <mxCell id="oGT1-rxk5gDqi7XwYrmR-369" value="" style="endArrow=none;html=1;rounded=0;strokeColor=#111111;strokeWidth=0.2;sketch=1;curveFitting=1;jiggle=2;" edge="1" parent="oGT1-rxk5gDqi7XwYrmR-399">
          <mxGeometry width="50" height="50" relative="1" as="geometry">
            <mxPoint x="408" y="36.230000000000004" as="sourcePoint" />
            <mxPoint x="408" y="8.229999999999997" as="targetPoint" />
          </mxGeometry>
        </mxCell>
        <mxCell id="oGT1-rxk5gDqi7XwYrmR-370" value="" style="endArrow=none;html=1;rounded=0;strokeColor=#111111;strokeWidth=0.2;sketch=1;curveFitting=1;jiggle=2;" edge="1" parent="oGT1-rxk5gDqi7XwYrmR-399">
          <mxGeometry width="50" height="50" relative="1" as="geometry">
            <mxPoint x="409" y="36.230000000000004" as="sourcePoint" />
            <mxPoint x="409" y="8.229999999999997" as="targetPoint" />
          </mxGeometry>
        </mxCell>
        <mxCell id="oGT1-rxk5gDqi7XwYrmR-371" value="" style="endArrow=none;html=1;rounded=0;strokeColor=#111111;strokeWidth=0.2;sketch=1;curveFitting=1;jiggle=2;" edge="1" parent="oGT1-rxk5gDqi7XwYrmR-399">
          <mxGeometry width="50" height="50" relative="1" as="geometry">
            <mxPoint x="407" y="36.230000000000004" as="sourcePoint" />
            <mxPoint x="407" y="8.229999999999997" as="targetPoint" />
          </mxGeometry>
        </mxCell>
        <mxCell id="oGT1-rxk5gDqi7XwYrmR-372" value="" style="endArrow=none;html=1;rounded=0;strokeColor=#111111;strokeWidth=0.2;sketch=1;curveFitting=1;jiggle=2;" edge="1" parent="oGT1-rxk5gDqi7XwYrmR-399">
          <mxGeometry width="50" height="50" relative="1" as="geometry">
            <mxPoint x="406" y="36.230000000000004" as="sourcePoint" />
            <mxPoint x="406" y="8.229999999999997" as="targetPoint" />
          </mxGeometry>
        </mxCell>
        <mxCell id="oGT1-rxk5gDqi7XwYrmR-373" value="" style="endArrow=none;html=1;rounded=0;strokeColor=#111111;strokeWidth=0.2;sketch=1;curveFitting=1;jiggle=2;" edge="1" parent="oGT1-rxk5gDqi7XwYrmR-399">
          <mxGeometry width="50" height="50" relative="1" as="geometry">
            <mxPoint x="404" y="36.230000000000004" as="sourcePoint" />
            <mxPoint x="404" y="8.229999999999997" as="targetPoint" />
          </mxGeometry>
        </mxCell>
        <mxCell id="oGT1-rxk5gDqi7XwYrmR-374" value="" style="endArrow=none;html=1;rounded=0;strokeColor=#111111;strokeWidth=0.2;sketch=1;curveFitting=1;jiggle=2;" edge="1" parent="oGT1-rxk5gDqi7XwYrmR-399">
          <mxGeometry width="50" height="50" relative="1" as="geometry">
            <mxPoint x="405" y="36.230000000000004" as="sourcePoint" />
            <mxPoint x="405" y="8.229999999999997" as="targetPoint" />
          </mxGeometry>
        </mxCell>
        <mxCell id="oGT1-rxk5gDqi7XwYrmR-375" value="" style="endArrow=none;html=1;rounded=0;strokeColor=#111111;strokeWidth=0.2;sketch=1;curveFitting=1;jiggle=2;" edge="1" parent="oGT1-rxk5gDqi7XwYrmR-399">
          <mxGeometry width="50" height="50" relative="1" as="geometry">
            <mxPoint x="403" y="36.230000000000004" as="sourcePoint" />
            <mxPoint x="403" y="8.229999999999997" as="targetPoint" />
          </mxGeometry>
        </mxCell>
        <mxCell id="oGT1-rxk5gDqi7XwYrmR-376" value="" style="endArrow=none;html=1;rounded=0;strokeColor=#111111;strokeWidth=0.2;sketch=1;curveFitting=1;jiggle=2;" edge="1" parent="oGT1-rxk5gDqi7XwYrmR-399">
          <mxGeometry width="50" height="50" relative="1" as="geometry">
            <mxPoint x="402" y="36.230000000000004" as="sourcePoint" />
            <mxPoint x="402" y="8.229999999999997" as="targetPoint" />
          </mxGeometry>
        </mxCell>
        <mxCell id="oGT1-rxk5gDqi7XwYrmR-377" value="" style="endArrow=none;html=1;rounded=0;strokeColor=#111111;strokeWidth=0.2;sketch=1;curveFitting=1;jiggle=2;" edge="1" parent="oGT1-rxk5gDqi7XwYrmR-399">
          <mxGeometry width="50" height="50" relative="1" as="geometry">
            <mxPoint x="432" y="36.230000000000004" as="sourcePoint" />
            <mxPoint x="432" y="8.229999999999997" as="targetPoint" />
          </mxGeometry>
        </mxCell>
        <mxCell id="oGT1-rxk5gDqi7XwYrmR-378" value="" style="endArrow=none;html=1;rounded=0;strokeColor=#111111;strokeWidth=0.2;sketch=1;curveFitting=1;jiggle=2;" edge="1" parent="oGT1-rxk5gDqi7XwYrmR-399">
          <mxGeometry width="50" height="50" relative="1" as="geometry">
            <mxPoint x="433" y="36.230000000000004" as="sourcePoint" />
            <mxPoint x="433" y="8.229999999999997" as="targetPoint" />
          </mxGeometry>
        </mxCell>
        <mxCell id="oGT1-rxk5gDqi7XwYrmR-379" value="" style="endArrow=none;html=1;rounded=0;strokeColor=#111111;strokeWidth=0.2;sketch=1;curveFitting=1;jiggle=2;" edge="1" parent="oGT1-rxk5gDqi7XwYrmR-399">
          <mxGeometry width="50" height="50" relative="1" as="geometry">
            <mxPoint x="431" y="36.230000000000004" as="sourcePoint" />
            <mxPoint x="431" y="8.229999999999997" as="targetPoint" />
          </mxGeometry>
        </mxCell>
        <mxCell id="oGT1-rxk5gDqi7XwYrmR-380" value="" style="endArrow=none;html=1;rounded=0;strokeColor=#111111;strokeWidth=0.2;sketch=1;curveFitting=1;jiggle=2;" edge="1" parent="oGT1-rxk5gDqi7XwYrmR-399">
          <mxGeometry width="50" height="50" relative="1" as="geometry">
            <mxPoint x="430" y="36.230000000000004" as="sourcePoint" />
            <mxPoint x="430" y="8.229999999999997" as="targetPoint" />
          </mxGeometry>
        </mxCell>
        <mxCell id="oGT1-rxk5gDqi7XwYrmR-381" value="" style="endArrow=none;html=1;rounded=0;strokeColor=#111111;strokeWidth=0.2;sketch=1;curveFitting=1;jiggle=2;" edge="1" parent="oGT1-rxk5gDqi7XwYrmR-399">
          <mxGeometry width="50" height="50" relative="1" as="geometry">
            <mxPoint x="428" y="36.230000000000004" as="sourcePoint" />
            <mxPoint x="428" y="8.229999999999997" as="targetPoint" />
          </mxGeometry>
        </mxCell>
        <mxCell id="oGT1-rxk5gDqi7XwYrmR-382" value="" style="endArrow=none;html=1;rounded=0;strokeColor=#111111;strokeWidth=0.2;sketch=1;curveFitting=1;jiggle=2;" edge="1" parent="oGT1-rxk5gDqi7XwYrmR-399">
          <mxGeometry width="50" height="50" relative="1" as="geometry">
            <mxPoint x="429" y="36.230000000000004" as="sourcePoint" />
            <mxPoint x="429" y="8.229999999999997" as="targetPoint" />
          </mxGeometry>
        </mxCell>
        <mxCell id="oGT1-rxk5gDqi7XwYrmR-383" value="" style="endArrow=none;html=1;rounded=0;strokeColor=#111111;strokeWidth=0.2;sketch=1;curveFitting=1;jiggle=2;" edge="1" parent="oGT1-rxk5gDqi7XwYrmR-399">
          <mxGeometry width="50" height="50" relative="1" as="geometry">
            <mxPoint x="427" y="36.230000000000004" as="sourcePoint" />
            <mxPoint x="427" y="8.229999999999997" as="targetPoint" />
          </mxGeometry>
        </mxCell>
        <mxCell id="oGT1-rxk5gDqi7XwYrmR-384" value="" style="endArrow=none;html=1;rounded=0;strokeColor=#111111;strokeWidth=0.2;sketch=1;curveFitting=1;jiggle=2;" edge="1" parent="oGT1-rxk5gDqi7XwYrmR-399">
          <mxGeometry width="50" height="50" relative="1" as="geometry">
            <mxPoint x="426" y="36.230000000000004" as="sourcePoint" />
            <mxPoint x="426" y="8.229999999999997" as="targetPoint" />
          </mxGeometry>
        </mxCell>
        <mxCell id="oGT1-rxk5gDqi7XwYrmR-385" value="" style="endArrow=none;html=1;rounded=0;strokeColor=#111111;strokeWidth=0.2;sketch=1;curveFitting=1;jiggle=2;" edge="1" parent="oGT1-rxk5gDqi7XwYrmR-399">
          <mxGeometry width="50" height="50" relative="1" as="geometry">
            <mxPoint x="424" y="36.230000000000004" as="sourcePoint" />
            <mxPoint x="424" y="8.229999999999997" as="targetPoint" />
          </mxGeometry>
        </mxCell>
        <mxCell id="oGT1-rxk5gDqi7XwYrmR-386" value="" style="endArrow=none;html=1;rounded=0;strokeColor=#111111;strokeWidth=0.2;sketch=1;curveFitting=1;jiggle=2;" edge="1" parent="oGT1-rxk5gDqi7XwYrmR-399">
          <mxGeometry width="50" height="50" relative="1" as="geometry">
            <mxPoint x="425" y="36.230000000000004" as="sourcePoint" />
            <mxPoint x="425" y="8.229999999999997" as="targetPoint" />
          </mxGeometry>
        </mxCell>
        <mxCell id="oGT1-rxk5gDqi7XwYrmR-387" value="" style="endArrow=none;html=1;rounded=0;strokeColor=#111111;strokeWidth=0.2;sketch=1;curveFitting=1;jiggle=2;" edge="1" parent="oGT1-rxk5gDqi7XwYrmR-399">
          <mxGeometry width="50" height="50" relative="1" as="geometry">
            <mxPoint x="423" y="36.230000000000004" as="sourcePoint" />
            <mxPoint x="423" y="8.229999999999997" as="targetPoint" />
          </mxGeometry>
        </mxCell>
        <mxCell id="oGT1-rxk5gDqi7XwYrmR-388" value="" style="endArrow=none;html=1;rounded=0;strokeColor=#111111;strokeWidth=0.2;sketch=1;curveFitting=1;jiggle=2;" edge="1" parent="oGT1-rxk5gDqi7XwYrmR-399">
          <mxGeometry width="50" height="50" relative="1" as="geometry">
            <mxPoint x="422" y="36.230000000000004" as="sourcePoint" />
            <mxPoint x="422" y="8.229999999999997" as="targetPoint" />
          </mxGeometry>
        </mxCell>
        <mxCell id="oGT1-rxk5gDqi7XwYrmR-389" value="" style="endArrow=none;html=1;rounded=0;strokeColor=#111111;strokeWidth=0.2;sketch=1;curveFitting=1;jiggle=2;" edge="1" parent="oGT1-rxk5gDqi7XwYrmR-399">
          <mxGeometry width="50" height="50" relative="1" as="geometry">
            <mxPoint x="420" y="36.230000000000004" as="sourcePoint" />
            <mxPoint x="420" y="8.229999999999997" as="targetPoint" />
          </mxGeometry>
        </mxCell>
        <mxCell id="oGT1-rxk5gDqi7XwYrmR-390" value="" style="endArrow=none;html=1;rounded=0;strokeColor=#111111;strokeWidth=0.2;sketch=1;curveFitting=1;jiggle=2;" edge="1" parent="oGT1-rxk5gDqi7XwYrmR-399">
          <mxGeometry width="50" height="50" relative="1" as="geometry">
            <mxPoint x="421" y="36.230000000000004" as="sourcePoint" />
            <mxPoint x="421" y="8.229999999999997" as="targetPoint" />
          </mxGeometry>
        </mxCell>
        <mxCell id="oGT1-rxk5gDqi7XwYrmR-391" value="" style="endArrow=none;html=1;rounded=0;strokeColor=#111111;strokeWidth=0.2;sketch=1;curveFitting=1;jiggle=2;" edge="1" parent="oGT1-rxk5gDqi7XwYrmR-399">
          <mxGeometry width="50" height="50" relative="1" as="geometry">
            <mxPoint x="419" y="36.230000000000004" as="sourcePoint" />
            <mxPoint x="419" y="8.229999999999997" as="targetPoint" />
          </mxGeometry>
        </mxCell>
        <mxCell id="oGT1-rxk5gDqi7XwYrmR-392" value="" style="endArrow=none;html=1;rounded=0;strokeColor=#111111;strokeWidth=0.2;sketch=1;curveFitting=1;jiggle=2;" edge="1" parent="oGT1-rxk5gDqi7XwYrmR-399">
          <mxGeometry width="50" height="50" relative="1" as="geometry">
            <mxPoint x="418" y="36.230000000000004" as="sourcePoint" />
            <mxPoint x="418" y="8.229999999999997" as="targetPoint" />
          </mxGeometry>
        </mxCell>
        <mxCell id="oGT1-rxk5gDqi7XwYrmR-393" value="" style="endArrow=none;html=1;rounded=0;strokeColor=#111111;strokeWidth=0.2;sketch=1;curveFitting=1;jiggle=2;" edge="1" parent="oGT1-rxk5gDqi7XwYrmR-399">
          <mxGeometry width="50" height="50" relative="1" as="geometry">
            <mxPoint x="434" y="36.230000000000004" as="sourcePoint" />
            <mxPoint x="434" y="8.229999999999997" as="targetPoint" />
          </mxGeometry>
        </mxCell>
        <mxCell id="oGT1-rxk5gDqi7XwYrmR-394" value="" style="endArrow=none;html=1;rounded=0;strokeColor=#111111;strokeWidth=0.2;sketch=1;curveFitting=1;jiggle=2;" edge="1" parent="oGT1-rxk5gDqi7XwYrmR-399">
          <mxGeometry width="50" height="50" relative="1" as="geometry">
            <mxPoint x="435" y="36.230000000000004" as="sourcePoint" />
            <mxPoint x="435" y="8.229999999999997" as="targetPoint" />
          </mxGeometry>
        </mxCell>
        <mxCell id="oGT1-rxk5gDqi7XwYrmR-395" value="" style="endArrow=none;html=1;rounded=0;strokeColor=#111111;strokeWidth=0.2;sketch=1;curveFitting=1;jiggle=2;" edge="1" parent="oGT1-rxk5gDqi7XwYrmR-399">
          <mxGeometry width="50" height="50" relative="1" as="geometry">
            <mxPoint x="436" y="36.230000000000004" as="sourcePoint" />
            <mxPoint x="436" y="8.229999999999997" as="targetPoint" />
          </mxGeometry>
        </mxCell>
        <mxCell id="oGT1-rxk5gDqi7XwYrmR-396" value="" style="endArrow=none;html=1;rounded=0;strokeColor=#111111;strokeWidth=0.2;sketch=1;curveFitting=1;jiggle=2;" edge="1" parent="oGT1-rxk5gDqi7XwYrmR-399">
          <mxGeometry width="50" height="50" relative="1" as="geometry">
            <mxPoint x="437" y="36.230000000000004" as="sourcePoint" />
            <mxPoint x="437" y="8.229999999999997" as="targetPoint" />
          </mxGeometry>
        </mxCell>
        <mxCell id="oGT1-rxk5gDqi7XwYrmR-397" value="" style="endArrow=none;html=1;rounded=0;strokeColor=#111111;strokeWidth=0.2;sketch=1;curveFitting=1;jiggle=2;" edge="1" parent="oGT1-rxk5gDqi7XwYrmR-399">
          <mxGeometry width="50" height="50" relative="1" as="geometry">
            <mxPoint x="438" y="36.230000000000004" as="sourcePoint" />
            <mxPoint x="438" y="8.229999999999997" as="targetPoint" />
          </mxGeometry>
        </mxCell>
        <mxCell id="oGT1-rxk5gDqi7XwYrmR-398" value="" style="endArrow=none;html=1;rounded=0;strokeColor=#111111;strokeWidth=0.2;sketch=1;curveFitting=1;jiggle=2;" edge="1" parent="oGT1-rxk5gDqi7XwYrmR-399">
          <mxGeometry width="50" height="50" relative="1" as="geometry">
            <mxPoint x="439" y="36.230000000000004" as="sourcePoint" />
            <mxPoint x="439" y="8.229999999999997" as="targetPoint" />
          </mxGeometry>
        </mxCell>
      </root>
    </mxGraphModel>
  </diagram>
</mxfile>
